<?xml version="1.0" standalone="no"?>
 <!DOCTYPE svg PUBLIC "-//W3C//DTD SVG 1.1//EN" 
 "http://www.w3.org/Graphics/SVG/1.1/DTD/svg11.dtd"> 
<svg xmlns="http://www.w3.org/2000/svg" version="1.1" 
    width="14.8488cm" height="10.5004cm" viewBox="0 0 58460 41340 ">
<title>SVG Picture created as BuddiesJewel--brd.svg date 2013/11/29 14:56:20 </title>
  <desc>Picture generated by PCBNEW </desc>
<g style="fill:#000000; fill-opacity:1;stroke:#000000; stroke-opacity:1;
stroke-linecap:round; stroke-linejoin:round; "
 transform="translate(0 0) scale(1 1)">
</g>
<g style="fill:#000000; fill-opacity:0.0; 
stroke:#000000; stroke-width:196.85; stroke-opacity:1; 
stroke-linecap:round; stroke-linejoin:round;">
<path d="M4000 4000
L54460 4000
L54460 37340
L4000 37340
L4000 4000
" />
<path d="M4700 4700
L53760 4700
L53760 36640
L4700 36640
L4700 4700
" />
<path d="M29230 4000
L29230 4700
" />
<path d="M16762 4552
L16477 4552
" />
<path d="M16620 4552
L16620 4052
L16572 4123
L16524 4171
L16477 4195
" />
<path d="M29230 37340
L29230 36640
" />
<path d="M16762 37192
L16477 37192
" />
<path d="M16620 37192
L16620 36692
L16572 36763
L16524 36811
L16477 36835
" />
<path d="M41707 4100
L41730 4076
L41778 4052
L41897 4052
L41945 4076
L41969 4100
L41992 4147
L41992 4195
L41969 4266
L41683 4552
L41992 4552
" />
<path d="M41707 36740
L41730 36716
L41778 36692
L41897 36692
L41945 36716
L41969 36740
L41992 36787
L41992 36835
L41969 36906
L41683 37192
L41992 37192
" />
<path d="M4230 20729
L4469 20729
" />
<path d="M4183 20872
L4350 20372
L4516 20872
" />
<path d="M53990 20729
L54229 20729
" />
<path d="M53943 20872
L54110 20372
L54276 20872
" />
<path d="M20910 35082
L20985 34482
L21127 34482
L21210 34511
L21260 34568
L21281 34625
L21295 34740
L21285 34825
L21242 34940
L21206 34997
L21142 35054
L21052 35082
L20910 35082
" />
<path d="M21767 35082
L21806 34768
L21785 34711
L21731 34682
L21617 34682
L21556 34711
" />
<path d="M21770 35054
L21710 35082
L21567 35082
L21513 35054
L21492 34997
L21499 34940
L21535 34882
L21595 34854
L21738 34854
L21799 34825
" />
<path d="M22017 34682
L22245 34682
" />
<path d="M22127 34482
L22063 34997
L22085 35054
L22138 35082
L22195 35082
" />
<path d="M22627 35054
L22567 35082
L22452 35082
L22399 35054
L22377 34997
L22406 34768
L22442 34711
L22502 34682
L22617 34682
L22670 34711
L22692 34768
L22685 34825
L22392 34882
" />
<path d="M22917 35025
L22942 35054
L22910 35082
L22885 35054
L22917 35025
L22910 35082
" />
<path d="M22956 34711
L22981 34740
L22949 34768
L22924 34740
L22956 34711
L22949 34768
" />
<path d="M23692 34540
L23724 34511
L23785 34482
L23927 34482
L23981 34511
L24006 34540
L24027 34597
L24020 34654
L23981 34740
L23595 35082
L23967 35082
" />
<path d="M24252 35082
L24367 35082
L24427 35054
L24460 35025
L24527 34940
L24570 34825
L24599 34597
L24577 34540
L24552 34511
L24499 34482
L24385 34482
L24324 34511
L24292 34540
L24256 34597
L24238 34740
L24260 34797
L24285 34825
L24338 34854
L24452 34854
L24513 34825
L24545 34797
L24581 34740
" />
<path d="M25302 34682
L25252 35082
" />
<path d="M25295 34740
L25327 34711
L25388 34682
L25474 34682
L25527 34711
L25549 34768
L25510 35082
" />
<path d="M25881 35082
L25827 35054
L25802 35025
L25781 34968
L25802 34797
L25838 34740
L25870 34711
L25931 34682
L26017 34682
L26070 34711
L26095 34740
L26117 34797
L26095 34968
L26060 35025
L26027 35054
L25967 35082
L25881 35082
" />
<path d="M26331 34682
L26424 35082
L26617 34682
" />
<path d="M27292 34540
L27324 34511
L27385 34482
L27527 34482
L27581 34511
L27606 34540
L27627 34597
L27620 34654
L27581 34740
L27195 35082
L27567 35082
" />
<path d="M28013 34482
L28070 34482
L28124 34511
L28149 34540
L28170 34597
L28185 34711
L28167 34854
L28124 34968
L28088 35025
L28056 35054
L27995 35082
L27938 35082
L27885 35054
L27860 35025
L27838 34968
L27824 34854
L27842 34711
L27885 34597
L27920 34540
L27952 34511
L28013 34482
" />
<path d="M28710 35082
L28367 35082
" />
<path d="M28538 35082
L28613 34482
L28545 34568
L28481 34625
L28420 34654
" />
<path d="M28985 34482
L29356 34482
L29127 34711
L29213 34711
L29267 34740
L29292 34768
L29313 34825
L29295 34968
L29260 35025
L29227 35054
L29167 35082
L28995 35082
L28942 35054
L28917 35025
" />
<path d="M12502 36282
L12502 35682
" />
<path d="M12845 36282
L12588 35940
" />
<path d="M12845 35682
L12502 36025
" />
<path d="M13102 36282
L13102 35882
" />
<path d="M13102 35682
L13074 35711
L13102 35740
L13131 35711
L13102 35682
L13102 35740
" />
<path d="M13731 36225
L13702 36254
L13617 36282
L13560 36282
L13474 36254
L13417 36197
L13388 36140
L13360 36025
L13360 35940
L13388 35825
L13417 35768
L13474 35711
L13560 35682
L13617 35682
L13702 35711
L13731 35740
" />
<path d="M14245 36282
L14245 35968
L14217 35911
L14160 35882
L14045 35882
L13988 35911
" />
<path d="M14245 36254
L14188 36282
L14045 36282
L13988 36254
L13960 36197
L13960 36140
L13988 36082
L14045 36054
L14188 36054
L14245 36025
" />
<path d="M14788 36282
L14788 35682
" />
<path d="M14788 36254
L14731 36282
L14617 36282
L14560 36254
L14531 36225
L14502 36168
L14502 35997
L14531 35940
L14560 35911
L14617 35882
L14731 35882
L14788 35911
" />
<path d="M15531 35968
L15731 35968
" />
<path d="M15817 36282
L15531 36282
L15531 35682
L15817 35682
" />
<path d="M16074 36225
L16102 36254
L16074 36282
L16045 36254
L16074 36225
L16074 36282
" />
<path d="M16359 36282
L16359 35682
L16502 35682
L16588 35711
L16645 35768
L16674 35825
L16702 35940
L16702 36025
L16674 36140
L16645 36197
L16588 36254
L16502 36282
L16359 36282
" />
<path d="M16959 36225
L16988 36254
L16959 36282
L16931 36254
L16959 36225
L16959 36282
" />
<path d="M17217 36111
L17502 36111
" />
<path d="M17159 36282
L17359 35682
L17559 36282
" />
<path d="M17759 36225
L17788 36254
L17759 36282
L17731 36254
L17759 36225
L17759 36282
" />
<path d="M46052 35082
L45888 34797
" />
<path d="M45710 35082
L45785 34482
L46013 34482
L46067 34511
L46092 34540
L46113 34597
L46102 34682
L46067 34740
L46035 34768
L45974 34797
L45745 34797
" />
<path d="M46542 35054
L46481 35082
L46367 35082
L46313 35054
L46292 34997
L46320 34768
L46356 34711
L46417 34682
L46531 34682
L46585 34711
L46606 34768
L46599 34825
L46306 34882
" />
<path d="M46817 34682
L46910 35082
L47102 34682
" />
<path d="M47288 35025
L47313 35054
L47281 35082
L47256 35054
L47288 35025
L47281 35082
" />
<path d="M47327 34711
L47352 34740
L47320 34768
L47295 34740
L47327 34711
L47320 34768
" />
<path d="M48338 35082
L47995 35082
" />
<path d="M48167 35082
L48242 34482
L48174 34568
L48110 34625
L48049 34654
" />
<path d="M48602 35025
L48627 35054
L48595 35082
L48570 35054
L48602 35025
L48595 35082
" />
<path d="M48920 34540
L48952 34511
L49013 34482
L49156 34482
L49210 34511
L49235 34540
L49256 34597
L49249 34654
L49210 34740
L48824 35082
L49195 35082
" />
<path d="M12474 35054
L12560 35082
L12702 35082
L12760 35054
L12788 35025
L12817 34968
L12817 34911
L12788 34854
L12760 34825
L12702 34797
L12588 34768
L12531 34740
L12502 34711
L12474 34654
L12474 34597
L12502 34540
L12531 34511
L12588 34482
L12731 34482
L12817 34511
" />
<path d="M13074 35082
L13074 34682
" />
<path d="M13074 34482
L13045 34511
L13074 34540
L13102 34511
L13074 34482
L13074 34540
" />
<path d="M13302 34682
L13617 34682
L13302 35082
L13617 35082
" />
<path d="M14074 35054
L14017 35082
L13902 35082
L13845 35054
L13817 34997
L13817 34768
L13845 34711
L13902 34682
L14017 34682
L14074 34711
L14102 34768
L14102 34825
L13817 34882
" />
<path d="M14360 35025
L14388 35054
L14360 35082
L14331 35054
L14360 35025
L14360 35082
" />
<path d="M14360 34711
L14388 34740
L14360 34768
L14331 34740
L14360 34711
L14360 34768
" />
<path d="M15102 34482
L15102 34968
L15131 35025
L15160 35054
L15217 35082
L15331 35082
L15388 35054
L15417 35025
L15445 34968
L15445 34482
" />
<path d="M15702 35054
L15760 35082
L15874 35082
L15931 35054
L15960 34997
L15960 34968
L15931 34911
L15874 34882
L15788 34882
L15731 34854
L15702 34797
L15702 34768
L15731 34711
L15788 34682
L15874 34682
L15931 34711
" />
<path d="M16445 35054
L16388 35082
L16274 35082
L16217 35054
L16188 34997
L16188 34768
L16217 34711
L16274 34682
L16388 34682
L16445 34711
L16474 34768
L16474 34825
L16188 34882
" />
<path d="M16731 35082
L16731 34682
" />
<path d="M16731 34797
L16760 34740
L16788 34711
L16845 34682
L16902 34682
" />
<path d="M45702 36282
L45702 35682
" />
<path d="M46245 36282
L46245 35682
" />
<path d="M46245 36254
L46188 36282
L46074 36282
L46017 36254
L45988 36225
L45960 36168
L45960 35997
L45988 35940
L46017 35911
L46074 35882
L46188 35882
L46245 35911
" />
<path d="M46531 36225
L46560 36254
L46531 36282
L46502 36254
L46531 36225
L46531 36282
" />
<path d="M46531 35911
L46560 35940
L46531 35968
L46502 35940
L46531 35911
L46531 35968
" />
<path d="M47588 36282
L47245 36282
" />
<path d="M47417 36282
L47417 35682
L47359 35768
L47302 35825
L47245 35854
" />
<path d="M48274 35654
L47760 36425
" />
<path d="M48788 36282
L48445 36282
" />
<path d="M48617 36282
L48617 35682
L48559 35768
L48502 35825
L48445 35854
" />
<path d="M12499 33282
L12842 33282
" />
<path d="M12595 33882
L12670 33282
" />
<path d="M12967 33882
L13017 33482
" />
<path d="M13042 33282
L13010 33311
L13035 33340
L13067 33311
L13042 33282
L13035 33340
" />
<path d="M13217 33482
L13445 33482
" />
<path d="M13327 33282
L13263 33797
L13285 33854
L13338 33882
L13395 33882
" />
<path d="M13681 33882
L13627 33854
L13606 33797
L13670 33282
" />
<path d="M14142 33854
L14081 33882
L13967 33882
L13913 33854
L13892 33797
L13920 33568
L13956 33511
L14017 33482
L14131 33482
L14185 33511
L14206 33568
L14199 33625
L13906 33682
" />
<path d="M14431 33825
L14456 33854
L14424 33882
L14399 33854
L14431 33825
L14424 33882
" />
<path d="M14470 33511
L14495 33540
L14463 33568
L14438 33540
L14470 33511
L14463 33568
" />
<path d="M15481 33882
L15138 33882
" />
<path d="M15310 33882
L15385 33282
L15317 33368
L15252 33425
L15192 33454
" />
<path d="M15970 33854
L15910 33882
L15795 33882
L15742 33854
L15720 33797
L15749 33568
L15785 33511
L15845 33482
L15960 33482
L16013 33511
L16035 33568
L16027 33625
L15735 33682
" />
<path d="M16252 33882
L16302 33482
" />
<path d="M16288 33597
L16324 33540
L16356 33511
L16417 33482
L16474 33482
" />
<path d="M16856 33854
L16795 33882
L16681 33882
L16627 33854
L16606 33797
L16635 33568
L16670 33511
L16731 33482
L16845 33482
L16899 33511
L16920 33568
L16913 33625
L16620 33682
" />
<path d="M17827 33854
L17767 33882
L17652 33882
L17599 33854
L17577 33797
L17606 33568
L17642 33511
L17702 33482
L17817 33482
L17870 33511
L17892 33568
L17885 33625
L17592 33682
" />
<path d="M17845 33254
L17749 33340
" />
<path d="M18110 33882
L18185 33282
" />
<path d="M18156 33511
L18217 33482
L18331 33482
L18385 33511
L18410 33540
L18431 33597
L18410 33768
L18374 33825
L18342 33854
L18281 33882
L18167 33882
L18113 33854
" />
<path d="M18910 33882
L18949 33568
L18927 33511
L18874 33482
L18760 33482
L18699 33511
" />
<path d="M18913 33854
L18852 33882
L18710 33882
L18656 33854
L18635 33797
L18642 33740
L18677 33682
L18738 33654
L18881 33654
L18942 33625
" />
<path d="M19502 33482
L19452 33882
" />
<path d="M19245 33482
L19206 33797
L19227 33854
L19281 33882
L19367 33882
L19427 33854
L19460 33825
" />
<path d="M19999 33854
L19938 33882
L19824 33882
L19770 33854
L19745 33825
L19724 33768
L19745 33597
L19781 33540
L19813 33511
L19874 33482
L19988 33482
L20042 33511
" />
<path d="M20252 33882
L20327 33282
" />
<path d="M20510 33882
L20549 33568
L20527 33511
L20474 33482
L20388 33482
L20327 33511
L20295 33540
" />
<path d="M21027 33854
L20967 33882
L20852 33882
L20799 33854
L20777 33797
L20806 33568
L20842 33511
L20902 33482
L21017 33482
L21070 33511
L21092 33568
L21085 33625
L20792 33682
" />
<path d="M12702 31168
L12502 31168
" />
<path d="M12502 31482
L12502 30882
L12788 30882
" />
<path d="M13017 31482
L13017 31082
" />
<path d="M13017 30882
L12988 30911
L13017 30940
L13045 30911
L13017 30882
L13017 30940
" />
<path d="M13388 31482
L13331 31454
L13302 31397
L13302 30882
" />
<path d="M13845 31454
L13788 31482
L13674 31482
L13617 31454
L13588 31397
L13588 31168
L13617 31111
L13674 31082
L13788 31082
L13845 31111
L13874 31168
L13874 31225
L13588 31282
" />
<path d="M14131 31425
L14160 31454
L14131 31482
L14102 31454
L14131 31425
L14131 31482
" />
<path d="M14131 31111
L14160 31140
L14131 31168
L14102 31140
L14131 31111
L14131 31168
" />
<path d="M15074 31168
L15160 31197
L15188 31225
L15217 31282
L15217 31368
L15188 31425
L15160 31454
L15102 31482
L14874 31482
L14874 30882
L15074 30882
L15131 30911
L15160 30940
L15188 30997
L15188 31054
L15160 31111
L15131 31140
L15074 31168
L14874 31168
" />
<path d="M15731 31082
L15731 31482
" />
<path d="M15474 31082
L15474 31397
L15502 31454
L15560 31482
L15645 31482
L15702 31454
L15731 31425
" />
<path d="M16274 31482
L16274 30882
" />
<path d="M16274 31454
L16217 31482
L16102 31482
L16045 31454
L16017 31425
L15988 31368
L15988 31197
L16017 31140
L16045 31111
L16102 31082
L16217 31082
L16274 31111
" />
<path d="M16817 31482
L16817 30882
" />
<path d="M16817 31454
L16760 31482
L16645 31482
L16588 31454
L16560 31425
L16531 31368
L16531 31197
L16560 31140
L16588 31111
L16645 31082
L16760 31082
L16817 31111
" />
<path d="M17102 31482
L17102 31082
" />
<path d="M17102 30882
L17074 30911
L17102 30940
L17131 30911
L17102 30882
L17102 30940
" />
<path d="M17617 31454
L17560 31482
L17445 31482
L17388 31454
L17360 31397
L17360 31168
L17388 31111
L17445 31082
L17560 31082
L17617 31111
L17645 31168
L17645 31225
L17360 31282
" />
<path d="M17874 31454
L17931 31482
L18045 31482
L18102 31454
L18131 31397
L18131 31368
L18102 31311
L18045 31282
L17960 31282
L17902 31254
L17874 31197
L17874 31168
L17902 31111
L17960 31082
L18045 31082
L18102 31111
" />
<path d="M18560 30882
L18560 31311
L18531 31397
L18474 31454
L18388 31482
L18331 31482
" />
<path d="M19074 31454
L19017 31482
L18902 31482
L18845 31454
L18817 31397
L18817 31168
L18845 31111
L18902 31082
L19017 31082
L19074 31111
L19102 31168
L19102 31225
L18817 31282
" />
<path d="M19302 31082
L19417 31482
L19531 31197
L19645 31482
L19760 31082
" />
<path d="M20217 31454
L20160 31482
L20045 31482
L19988 31454
L19960 31397
L19960 31168
L19988 31111
L20045 31082
L20160 31082
L20217 31111
L20245 31168
L20245 31225
L19960 31282
" />
<path d="M20588 31482
L20531 31454
L20502 31397
L20502 30882
" />
<path d="M20817 31425
L20845 31454
L20817 31482
L20788 31454
L20817 31425
L20817 31482
" />
<path d="M21102 31482
L21102 30882
" />
<path d="M21160 31254
L21331 31482
" />
<path d="M21331 31082
L21102 31311
" />
<path d="M21588 31482
L21588 31082
" />
<path d="M21588 30882
L21560 30911
L21588 30940
L21617 30911
L21588 30882
L21588 30940
" />
<path d="M22131 31454
L22074 31482
L21959 31482
L21902 31454
L21874 31425
L21845 31368
L21845 31197
L21874 31140
L21902 31111
L21959 31082
L22074 31082
L22131 31111
" />
<path d="M22645 31482
L22645 31168
L22617 31111
L22560 31082
L22445 31082
L22388 31111
" />
<path d="M22645 31454
L22588 31482
L22445 31482
L22388 31454
L22360 31397
L22360 31340
L22388 31282
L22445 31254
L22588 31254
L22645 31225
" />
<path d="M23188 31482
L23188 30882
" />
<path d="M23188 31454
L23131 31482
L23017 31482
L22960 31454
L22931 31425
L22902 31368
L22902 31197
L22931 31140
L22960 31111
L23017 31082
L23131 31082
L23188 31111
" />
<path d="M23331 31540
L23788 31540
" />
<path d="M23931 31082
L23931 31682
" />
<path d="M23931 31111
L23988 31082
L24102 31082
L24160 31111
L24188 31140
L24217 31197
L24217 31368
L24188 31425
L24160 31454
L24102 31482
L23988 31482
L23931 31454
" />
<path d="M24731 31454
L24674 31482
L24559 31482
L24502 31454
L24474 31425
L24445 31368
L24445 31197
L24474 31140
L24502 31111
L24559 31082
L24674 31082
L24731 31111
" />
<path d="M24988 31482
L24988 30882
" />
<path d="M24988 31111
L25045 31082
L25160 31082
L25217 31111
L25245 31140
L25274 31197
L25274 31368
L25245 31425
L25217 31454
L25160 31482
L25045 31482
L24988 31454
" />
<path d="M12474 32654
L12560 32682
L12702 32682
L12760 32654
L12788 32625
L12817 32568
L12817 32511
L12788 32454
L12760 32425
L12702 32397
L12588 32368
L12531 32340
L12502 32311
L12474 32254
L12474 32197
L12502 32140
L12531 32111
L12588 32082
L12731 32082
L12817 32111
" />
<path d="M13074 32682
L13074 32082
" />
<path d="M13331 32682
L13331 32368
L13302 32311
L13245 32282
L13160 32282
L13102 32311
L13074 32340
" />
<path d="M13845 32654
L13788 32682
L13674 32682
L13617 32654
L13588 32597
L13588 32368
L13617 32311
L13674 32282
L13788 32282
L13845 32311
L13874 32368
L13874 32425
L13588 32482
" />
<path d="M14360 32654
L14302 32682
L14188 32682
L14131 32654
L14102 32597
L14102 32368
L14131 32311
L14188 32282
L14302 32282
L14360 32311
L14388 32368
L14388 32425
L14102 32482
" />
<path d="M14560 32282
L14788 32282
" />
<path d="M14645 32082
L14645 32597
L14674 32654
L14731 32682
L14788 32682
" />
<path d="M14988 32625
L15017 32654
L14988 32682
L14960 32654
L14988 32625
L14988 32682
" />
<path d="M14988 32311
L15017 32340
L14988 32368
L14960 32340
L14988 32311
L14988 32368
" />
<path d="M12749 29968
L12831 29997
L12856 30025
L12877 30082
L12867 30168
L12831 30225
L12799 30254
L12738 30282
L12510 30282
L12585 29682
L12785 29682
L12838 29711
L12863 29740
L12885 29797
L12877 29854
L12842 29911
L12810 29940
L12749 29968
L12549 29968
" />
<path d="M13417 29882
L13367 30282
" />
<path d="M13160 29882
L13120 30197
L13142 30254
L13195 30282
L13281 30282
L13342 30254
L13374 30225
" />
<path d="M13910 30282
L13985 29682
" />
<path d="M13913 30254
L13852 30282
L13738 30282
L13685 30254
L13660 30225
L13638 30168
L13660 29997
L13695 29940
L13727 29911
L13788 29882
L13902 29882
L13956 29911
" />
<path d="M14452 30282
L14527 29682
" />
<path d="M14456 30254
L14395 30282
L14281 30282
L14227 30254
L14202 30225
L14181 30168
L14202 29997
L14238 29940
L14270 29911
L14331 29882
L14445 29882
L14499 29911
" />
<path d="M14738 30282
L14788 29882
" />
<path d="M14813 29682
L14781 29711
L14806 29740
L14838 29711
L14813 29682
L14806 29740
" />
<path d="M15256 30254
L15195 30282
L15081 30282
L15027 30254
L15006 30197
L15035 29968
L15070 29911
L15131 29882
L15245 29882
L15299 29911
L15320 29968
L15313 30025
L15020 30082
" />
<path d="M15513 30254
L15567 30282
L15681 30282
L15742 30254
L15777 30197
L15781 30168
L15759 30111
L15706 30082
L15620 30082
L15567 30054
L15545 29997
L15549 29968
L15584 29911
L15645 29882
L15731 29882
L15784 29911
" />
<path d="M16024 30282
L16099 29682
L16327 29682
L16381 29711
L16406 29740
L16427 29797
L16417 29882
L16381 29940
L16349 29968
L16288 29997
L16059 29997
" />
<path d="M16624 30282
L16674 29882
" />
<path d="M16659 29997
L16695 29940
L16727 29911
L16788 29882
L16845 29882
" />
<path d="M17081 30282
L17027 30254
L17002 30225
L16981 30168
L17002 29997
L17038 29940
L17070 29911
L17131 29882
L17217 29882
L17270 29911
L17295 29940
L17317 29997
L17295 30168
L17260 30225
L17227 30254
L17167 30282
L17081 30282
" />
<path d="M17588 29882
L17524 30397
L17488 30454
L17427 30482
L17399 30482
" />
<path d="M17613 29682
L17581 29711
L17606 29740
L17638 29711
L17613 29682
L17606 29740
" />
<path d="M18056 30254
L17995 30282
L17881 30282
L17827 30254
L17806 30197
L17835 29968
L17870 29911
L17931 29882
L18045 29882
L18099 29911
L18120 29968
L18113 30025
L17820 30082
" />
<path d="M18599 30254
L18538 30282
L18424 30282
L18370 30254
L18345 30225
L18324 30168
L18345 29997
L18381 29940
L18413 29911
L18474 29882
L18588 29882
L18642 29911
" />
<path d="M18817 29882
L19045 29882
" />
<path d="M18927 29682
L18863 30197
L18885 30254
L18938 30282
L18995 30282
" />
<path d="M19170 30254
L19224 30282
L19338 30282
L19399 30254
L19435 30197
L19438 30168
L19417 30111
L19363 30082
L19277 30082
L19224 30054
L19202 29997
L19206 29968
L19242 29911
L19302 29882
L19388 29882
L19442 29911
" />
<path d="M11760 29440
L11760 36640
" />
<path d="M11760 30640
L53760 30640
" />
<path d="M11760 29440
L53760 29440
" />
<path d="M11760 33040
L53760 33040
" />
<path d="M44960 34240
L44960 36640
" />
<path d="M11760 35440
L53760 35440
" />
<path d="M11760 34240
L53760 34240
" />
<path d="M18360 34240
L18360 35440
" />
</g>
<g style="fill:#009F00; fill-opacity:0.0; 
stroke:#009F00; stroke-width:118.11; stroke-opacity:1; 
stroke-linecap:round; stroke-linejoin:round;">
<path d="M25506 11051
L25590 11079
L25618 11107
L25646 11164
L25646 11248
L25618 11304
L25590 11332
L25534 11361
L25309 11361
L25309 10770
L25506 10770
L25562 10798
L25590 10826
L25618 10883
L25618 10939
L25590 10995
L25562 11023
L25506 11051
L25309 11051
" />
<path d="M26012 10770
L26124 10770
L26181 10798
L26237 10854
L26265 10967
L26265 11164
L26237 11276
L26181 11332
L26124 11361
L26012 11361
L25956 11332
L25899 11276
L25871 11164
L25871 10967
L25899 10854
L25956 10798
L26012 10770
" />
<path d="M26434 10770
L26771 10770
" />
<path d="M26602 11361
L26602 10770
" />
<path d="M26884 10770
L27221 10770
" />
<path d="M27052 11361
L27052 10770
" />
<path d="M27530 10770
L27643 10770
L27699 10798
L27755 10854
L27784 10967
L27784 11164
L27755 11276
L27699 11332
L27643 11361
L27530 11361
L27474 11332
L27418 11276
L27390 11164
L27390 10967
L27418 10854
L27474 10798
L27530 10770
" />
<path d="M28037 11361
L28037 10770
L28233 11192
L28430 10770
L28430 11361
" />
</g>
<g style="fill:#9F0000; fill-opacity:0.0; 
stroke:#9F0000; stroke-width:118.11; stroke-opacity:1; 
stroke-linecap:round; stroke-linejoin:round;">
<path d="M26293 10770
L26631 10770
" />
<path d="M26462 11361
L26462 10770
" />
<path d="M26940 10770
L27052 10770
L27109 10798
L27165 10854
L27193 10967
L27193 11164
L27165 11276
L27109 11332
L27052 11361
L26940 11361
L26884 11332
L26827 11276
L26799 11164
L26799 10967
L26827 10854
L26884 10798
L26940 10770
" />
<path d="M27446 11361
L27446 10770
L27671 10770
L27727 10798
L27755 10826
L27784 10883
L27784 10967
L27755 11023
L27727 11051
L27671 11079
L27446 11079
" />
</g>
<g style="fill:#BFBFBF; fill-opacity:0.0; 
stroke:#BFBFBF; stroke-width:118.11; stroke-opacity:1; 
stroke-linecap:round; stroke-linejoin:round;">
<path d="M33720 13775
L33720 14140
L33495 13944
L33495 14028
L33466 14084
L33438 14112
L33382 14140
L33241 14140
L33185 14112
L33157 14084
L33129 14028
L33129 13859
L33157 13803
L33185 13775
" />
<path d="M33129 14703
L33129 14365
" />
<path d="M33129 14534
L33720 14534
L33635 14478
L33579 14422
L33551 14365
" />
<path d="M33157 14984
L33129 14984
L33073 14956
L33045 14928
" />
<path d="M33720 15181
L33720 15575
L33129 15321
" />
<path d="M33720 16081
L33720 15800
L33438 15771
L33466 15800
L33495 15856
L33495 15996
L33466 16053
L33438 16081
L33382 16109
L33241 16109
L33185 16081
L33157 16053
L33129 15996
L33129 15856
L33157 15800
L33185 15771
" />
<path d="M33720 16474
L33720 16531
L33691 16587
L33663 16615
L33607 16643
L33495 16671
L33354 16671
L33241 16643
L33185 16615
L33157 16587
L33129 16531
L33129 16474
L33157 16418
L33185 16390
L33241 16362
L33354 16334
L33495 16334
L33607 16362
L33663 16390
L33691 16418
L33720 16474
" />
<path d="M33129 17374
L33523 17374
" />
<path d="M33466 17374
L33495 17402
L33523 17459
L33523 17543
L33495 17599
L33438 17627
L33129 17627
" />
<path d="M33438 17627
L33495 17656
L33523 17712
L33523 17796
L33495 17852
L33438 17881
L33129 17881
" />
<path d="M33129 18162
L33523 18162
" />
<path d="M33466 18162
L33495 18190
L33523 18246
L33523 18330
L33495 18387
L33438 18415
L33129 18415
" />
<path d="M33438 18415
L33495 18443
L33523 18499
L33523 18584
L33495 18640
L33438 18668
L33129 18668
" />
<path d="M33900 10000
L33900 22500
" />
<path d="M34100 10000
L32837 10000
" />
<path d="M34100 22500
L32837 22500
" />
<path d="M33900 22500
L33669 22056
" />
<path d="M33900 22500
L34130 22056
" />
<path d="M33900 10000
L33669 10443
" />
<path d="M33900 10000
L34130 10443
" />
<path d="M23575 8679
L23940 8679
L23744 8904
L23828 8904
L23884 8933
L23912 8961
L23940 9017
L23940 9158
L23912 9214
L23884 9242
L23828 9270
L23659 9270
L23603 9242
L23575 9214
" />
<path d="M24137 8679
L24503 8679
L24306 8904
L24390 8904
L24447 8933
L24475 8961
L24503 9017
L24503 9158
L24475 9214
L24447 9242
L24390 9270
L24222 9270
L24165 9242
L24137 9214
" />
<path d="M24784 9242
L24784 9270
L24756 9326
L24728 9354
" />
<path d="M25009 8736
L25037 8708
L25093 8679
L25234 8679
L25290 8708
L25318 8736
L25346 8792
L25346 8848
L25318 8933
L24981 9270
L25346 9270
" />
<path d="M25543 8679
L25937 8679
L25684 9270
" />
<path d="M26415 8876
L26415 9270
" />
<path d="M26274 8651
L26134 9073
L26499 9073
" />
<path d="M27174 9270
L27174 8876
" />
<path d="M27174 8933
L27202 8904
L27259 8876
L27343 8876
L27399 8904
L27427 8961
L27427 9270
" />
<path d="M27427 8961
L27456 8904
L27512 8876
L27596 8876
L27652 8904
L27681 8961
L27681 9270
" />
<path d="M27962 9270
L27962 8876
" />
<path d="M27962 8933
L27990 8904
L28046 8876
L28130 8876
L28187 8904
L28215 8961
L28215 9270
" />
<path d="M28215 8961
L28243 8904
L28299 8876
L28384 8876
L28440 8904
L28468 8961
L28468 9270
" />
<path d="M32600 8499
L19500 8499
" />
<path d="M32600 8400
L32600 9562
" />
<path d="M19500 8400
L19500 9562
" />
<path d="M19500 8499
L19943 8269
" />
<path d="M19500 8499
L19943 8730
" />
<path d="M32600 8499
L32156 8269
" />
<path d="M32600 8499
L32156 8730
" />
</g>
<g style="fill:#BFBFBF; fill-opacity:0.0; 
stroke:#BFBFBF; stroke-width:78.7402; stroke-opacity:1; 
stroke-linecap:round; stroke-linejoin:round;">
<path d="M32600 22500
L32600 10000
" />
<path d="M19500 22500
L32600 22500
" />
<path d="M19500 10000
L19500 22500
" />
<path d="M32600 10000
L19500 10000
" />
</g>
<g style="fill:#FFFF00; fill-opacity:0.0; 
stroke:#FFFF00; stroke-width:39.3701; stroke-opacity:1; 
stroke-linecap:round; stroke-linejoin:round;">
<circle cx="20998.4" cy="21300" r="131.233" /> 
<path d="M20801 21300
L21195 21300
" />
<path d="M20998 21103
L20998 21496
" />
<circle cx="31498.4" cy="21300" r="131.233" /> 
<path d="M31301 21300
L31695 21300
" />
<path d="M31498 21103
L31498 21496
" />
<circle cx="31498.4" cy="11200" r="131.233" /> 
<path d="M31301 11200
L31695 11200
" />
<path d="M31498 11003
L31498 11396
" />
<circle cx="20798.4" cy="11200" r="131.233" /> 
<path d="M20601 11200
L20995 11200
" />
<path d="M20798 11003
L20798 11396
" />
</g>
<g style="fill:#009F9F; fill-opacity:0.0; 
stroke:#009F9F; stroke-width:45; stroke-opacity:1; 
stroke-linecap:round; stroke-linejoin:round;">
<path d="M28998 12726
L29008 12735
L29017 12761
L29017 12778
L29008 12803
L28989 12821
L28970 12829
L28932 12838
L28903 12838
L28865 12829
L28846 12821
L28827 12803
L28817 12778
L28817 12761
L28827 12735
L28837 12726
" />
<path d="M29017 12555
L29017 12658
" />
<path d="M29017 12606
L28817 12606
L28846 12623
L28865 12641
L28875 12658
" />
<path d="M28367 12885
L28367 12988
" />
<path d="M28367 12936
L28167 12936
L28196 12953
L28215 12971
L28225 12988
" />
<path d="M28234 12671
L28434 12671
" />
<path d="M28339 12585
L28358 12576
L28367 12559
" />
<path d="M28339 12671
L28358 12662
L28367 12645
L28367 12611
L28358 12593
L28339 12585
L28234 12585
" />
<path d="M28263 12422
L28263 12482
" />
<path d="M28367 12482
L28167 12482
L28167 12396
" />
<path d="M28998 11841
L29008 11849
L29017 11875
L29017 11892
L29008 11918
L28989 11935
L28970 11943
L28932 11952
L28903 11952
L28865 11943
L28846 11935
L28827 11918
L28817 11892
L28817 11875
L28827 11849
L28837 11841
" />
<path d="M28837 11772
L28827 11763
L28817 11746
L28817 11703
L28827 11686
L28837 11678
L28856 11669
L28875 11669
L28903 11678
L29017 11781
L29017 11669
" />
<path d="M28167 12188
L28167 12171
L28177 12153
L28187 12145
L28206 12136
L28244 12128
L28291 12128
L28329 12136
L28348 12145
L28358 12153
L28367 12171
L28367 12188
L28358 12205
L28348 12213
L28329 12222
L28291 12231
L28244 12231
L28206 12222
L28187 12213
L28177 12205
L28167 12188
" />
<path d="M28358 12042
L28367 12042
L28387 12051
L28396 12059
" />
<path d="M28367 11871
L28367 11973
" />
<path d="M28367 11922
L28167 11922
L28196 11939
L28215 11956
L28225 11973
" />
<path d="M28234 11656
L28434 11656
" />
<path d="M28339 11571
L28358 11562
L28367 11545
" />
<path d="M28339 11656
L28358 11648
L28367 11631
L28367 11596
L28358 11579
L28339 11571
L28234 11571
" />
<path d="M28263 11408
L28263 11468
" />
<path d="M28367 11468
L28167 11468
L28167 11382
" />
<path d="M27030 12726
L27039 12735
L27049 12761
L27049 12778
L27039 12803
L27020 12821
L27001 12829
L26963 12838
L26935 12838
L26897 12829
L26878 12821
L26858 12803
L26849 12778
L26849 12761
L26858 12735
L26868 12726
" />
<path d="M26849 12666
L26849 12555
L26925 12615
L26925 12589
L26935 12572
L26944 12563
L26963 12555
L27011 12555
L27030 12563
L27039 12572
L27049 12589
L27049 12641
L27039 12658
L27030 12666
" />
<path d="M27499 13159
L27499 13142
L27508 13125
L27518 13116
L27537 13108
L27575 13099
L27623 13099
L27661 13108
L27680 13116
L27689 13125
L27699 13142
L27699 13159
L27689 13176
L27680 13185
L27661 13193
L27623 13202
L27575 13202
L27537 13193
L27518 13185
L27508 13176
L27499 13159
" />
<path d="M27689 13013
L27699 13013
L27718 13022
L27728 13031
" />
<path d="M27566 12859
L27699 12859
" />
<path d="M27489 12902
L27632 12945
L27632 12833
" />
<path d="M27499 12782
L27499 12662
L27699 12739
" />
<path d="M27566 12456
L27766 12456
" />
<path d="M27670 12371
L27689 12362
L27699 12345
" />
<path d="M27670 12456
L27689 12448
L27699 12431
L27699 12396
L27689 12379
L27670 12371
L27566 12371
" />
<path d="M27594 12208
L27594 12268
" />
<path d="M27699 12268
L27499 12268
L27499 12182
" />
<path d="M21623 14235
L21614 14244
L21589 14254
L21572 14254
L21546 14244
L21529 14225
L21520 14206
L21512 14168
L21512 14139
L21520 14101
L21529 14082
L21546 14063
L21572 14054
L21589 14054
L21614 14063
L21623 14073
" />
<path d="M21777 14120
L21777 14254
" />
<path d="M21734 14044
L21692 14187
L21803 14187
" />
<path d="M21289 13423
L21297 13413
L21314 13404
L21357 13404
L21374 13413
L21383 13423
L21392 13442
L21392 13461
L21383 13489
L21280 13604
L21392 13604
" />
<path d="M21460 13423
L21469 13413
L21486 13404
L21529 13404
L21546 13413
L21554 13423
L21563 13442
L21563 13461
L21554 13489
L21452 13604
L21563 13604
" />
<path d="M21777 13470
L21777 13670
" />
<path d="M21777 13480
L21794 13470
L21829 13470
L21846 13480
L21854 13489
L21863 13508
L21863 13566
L21854 13585
L21846 13594
L21829 13604
L21794 13604
L21777 13594
" />
<path d="M22000 13499
L21940 13499
" />
<path d="M21940 13604
L21940 13404
L22026 13404
" />
</g>
<g style="fill:#009F9F; fill-opacity:0.0; 
stroke:#009F9F; stroke-width:80; stroke-opacity:1; 
stroke-linecap:round; stroke-linejoin:round;">
<path d="M23671 20170
L23690 20189
L23709 20246
L23709 20285
L23690 20342
L23652 20380
L23613 20399
L23537 20418
L23480 20418
L23404 20399
L23366 20380
L23328 20342
L23309 20285
L23309 20246
L23328 20189
L23347 20170
" />
<path d="M23309 19923
L23309 19846
L23328 19808
L23366 19770
L23442 19751
L23575 19751
L23652 19770
L23690 19808
L23709 19846
L23709 19923
L23690 19961
L23652 19999
L23575 20018
L23442 20018
L23366 19999
L23328 19961
L23309 19923
" />
<path d="M23709 19580
L23309 19580
L23709 19351
L23309 19351
" />
<path d="M23709 18951
L23709 19180
" />
<path d="M23709 19065
L23309 19065
L23366 19104
L23404 19142
L23423 19180
" />
<path d="M21416 17615
L21397 17634
L21340 17653
L21301 17653
L21244 17634
L21206 17596
L21187 17558
L21168 17482
L21168 17425
L21187 17348
L21206 17310
L21244 17272
L21301 17253
L21340 17253
L21397 17272
L21416 17291
" />
<path d="M21663 17253
L21740 17253
L21778 17272
L21816 17310
L21835 17386
L21835 17520
L21816 17596
L21778 17634
L21740 17653
L21663 17653
L21625 17634
L21587 17596
L21568 17520
L21568 17386
L21587 17310
L21625 17272
L21663 17253
" />
<path d="M22006 17653
L22006 17253
L22235 17653
L22235 17253
" />
<path d="M22406 17291
L22425 17272
L22463 17253
L22559 17253
L22597 17272
L22616 17291
L22635 17329
L22635 17367
L22616 17425
L22387 17653
L22635 17653
" />
</g>
<g style="fill:#009F9F; fill-opacity:0.0; 
stroke:#009F9F; stroke-width:59.0551; stroke-opacity:1; 
stroke-linecap:round; stroke-linejoin:round;">
<path d="M29739 15333
L29148 15333
L29148 15192
L29176 15108
L29232 15052
L29289 15024
L29401 14996
L29485 14996
L29598 15024
L29654 15052
L29710 15108
L29739 15192
L29739 15333
" />
<path d="M29739 14433
L29739 14771
" />
<path d="M29739 14602
L29148 14602
L29232 14658
L29289 14714
L29317 14771
" />
<path d="M25928 16816
L26518 16676
L26096 16563
L26518 16451
L25928 16310
" />
<path d="M26490 16113
L26518 16029
L26518 15888
L26490 15832
L26462 15804
L26406 15776
L26349 15776
L26293 15804
L26265 15832
L26237 15888
L26209 16001
L26181 16057
L26152 16085
L26096 16113
L26040 16113
L25984 16085
L25956 16057
L25928 16001
L25928 15860
L25956 15776
" />
<path d="M25984 15551
L25956 15523
L25928 15466
L25928 15326
L25956 15269
L25984 15241
L26040 15213
L26096 15213
L26181 15241
L26518 15579
L26518 15213
" />
<path d="M26181 14876
L26152 14932
L26124 14960
L26068 14988
L26040 14988
L25984 14960
L25956 14932
L25928 14876
L25928 14763
L25956 14707
L25984 14679
L26040 14651
L26068 14651
L26124 14679
L26152 14707
L26181 14763
L26181 14876
L26209 14932
L26237 14960
L26293 14988
L26406 14988
L26462 14960
L26490 14932
L26518 14876
L26518 14763
L26490 14707
L26462 14679
L26406 14651
L26293 14651
L26237 14679
L26209 14707
L26181 14763
" />
<path d="M26518 14088
L26518 14426
" />
<path d="M26518 14257
L25928 14257
L26012 14313
L26068 14370
L26096 14426
" />
<path d="M25984 13863
L25956 13835
L25928 13779
L25928 13638
L25956 13582
L25984 13554
L26040 13526
L26096 13526
L26181 13554
L26518 13892
L26518 13526
" />
</g>
<g style="fill:#009F9F; fill-opacity:0.0; 
stroke:#009F9F; stroke-width:60; stroke-opacity:1; 
stroke-linecap:round; stroke-linejoin:round;">
<path d="M31228 18800
L30828 18800
L30828 18705
L30847 18648
L30885 18610
L30923 18591
L30999 18572
L31057 18572
L31133 18591
L31171 18610
L31209 18648
L31228 18705
L31228 18800
" />
<path d="M30866 18419
L30847 18400
L30828 18362
L30828 18267
L30847 18229
L30866 18210
L30904 18191
L30942 18191
L30999 18210
L31228 18438
L31228 18191
" />
</g>
<g style="fill:#009F9F; fill-opacity:0.0; 
stroke:#009F9F; stroke-width:120; stroke-opacity:1; 
stroke-linecap:round; stroke-linejoin:round;">
<path d="M25103 19435
L25103 18835
" />
<path d="M25731 19378
L25703 19407
L25617 19435
L25560 19435
L25474 19407
L25417 19350
L25388 19292
L25360 19178
L25360 19092
L25388 18978
L25417 18921
L25474 18864
L25560 18835
L25617 18835
L25703 18864
L25731 18892
" />
<path d="M26303 19435
L25960 19435
" />
<path d="M26131 19435
L26131 18835
L26074 18921
L26017 18978
L25960 19007
" />
</g>
<g style="fill:#009F9F; fill-opacity:0.0; 
stroke:#009F9F; stroke-width:59.0551; stroke-opacity:1; 
stroke-linecap:round; stroke-linejoin:round;">
<path d="M28341 16830
L28763 16830
L28847 16858
L28903 16915
L28931 16999
L28931 17055
" />
<path d="M28931 16549
L28341 16549
L28341 16324
L28369 16268
L28397 16240
L28453 16212
L28538 16212
L28594 16240
L28622 16268
L28650 16324
L28650 16549
" />
<path d="M28931 15649
L28931 15987
" />
<path d="M28931 15818
L28341 15818
L28425 15874
L28482 15930
L28510 15987
" />
<path d="M30967 17758
L31389 17758
L31473 17786
L31529 17843
L31557 17927
L31557 17983
" />
<path d="M30967 17477
L31445 17477
L31501 17449
L31529 17421
L31557 17365
L31557 17252
L31529 17196
L31501 17168
L31445 17140
L30967 17140
" />
<path d="M31557 16858
L30967 16858
L31389 16661
L30967 16465
L31557 16465
" />
<path d="M31557 16183
L30967 16183
L30967 15958
L30995 15902
L31023 15874
L31079 15846
L31164 15846
L31220 15874
L31248 15902
L31276 15958
L31276 16183
" />
<path d="M31248 15593
L31248 15396
" />
<path d="M31557 15312
L31557 15593
L30967 15593
L30967 15312
" />
<path d="M31557 14721
L31276 14918
" />
<path d="M31557 15059
L30967 15059
L30967 14834
L30995 14777
L31023 14749
L31079 14721
L31164 14721
L31220 14749
L31248 14777
L31276 14834
L31276 15059
" />
<path d="M31375 11613
L31375 11022
L31600 11022
L31656 11050
L31684 11078
L31712 11134
L31712 11219
L31684 11275
L31656 11303
L31600 11331
L31375 11331
" />
<path d="M32275 11613
L31937 11613
" />
<path d="M32106 11613
L32106 11022
L32050 11106
L31993 11163
L31937 11191
" />
<path d="M28083 11129
L28364 11129
" />
<path d="M28026 11298
L28223 10707
L28420 11298
" />
<path d="M28898 11298
L28617 11298
L28617 10707
" />
<path d="M29095 11298
L29095 10707
" />
<path d="M29376 11298
L29376 10707
L29573 11129
L29770 10707
L29770 11298
" />
</g>
<g style="fill:#009F9F; fill-opacity:0.0; 
stroke:#009F9F; stroke-width:45; stroke-opacity:1; 
stroke-linecap:round; stroke-linejoin:round;">
<path d="M28893 18460
L28799 18520
" />
<path d="M28893 18563
L28696 18563
L28696 18494
L28705 18477
L28715 18469
L28733 18460
L28761 18460
L28780 18469
L28790 18477
L28799 18494
L28799 18563
" />
<path d="M28893 18289
L28893 18391
" />
<path d="M28893 18340
L28696 18340
L28724 18357
L28743 18374
L28752 18391
" />
<path d="M29455 19249
L29588 19249
" />
<path d="M29474 19249
L29464 19241
L29455 19224
L29455 19198
L29464 19181
L29483 19172
L29588 19172
" />
<path d="M29588 19061
L29579 19078
L29569 19086
L29550 19095
L29493 19095
L29474 19086
L29464 19078
L29455 19061
L29455 19035
L29464 19018
L29474 19009
L29493 19001
L29550 19001
L29569 19009
L29579 19018
L29588 19035
L29588 19061
" />
<path d="M29455 18949
L29455 18881
" />
<path d="M29388 18924
L29559 18924
L29579 18915
L29588 18898
L29588 18881
" />
<path d="M29579 18615
L29588 18632
L29588 18666
L29579 18684
L29559 18692
L29483 18692
L29464 18684
L29455 18666
L29455 18632
L29464 18615
L29483 18606
L29502 18606
L29521 18692
" />
<path d="M29455 18452
L29655 18452
" />
<path d="M29579 18452
L29588 18469
L29588 18504
L29579 18521
L29569 18529
L29550 18538
L29493 18538
L29474 18529
L29464 18521
L29455 18504
L29455 18469
L29464 18452
" />
<path d="M29455 18289
L29588 18289
" />
<path d="M29455 18366
L29559 18366
L29579 18358
L29588 18341
L29588 18315
L29579 18298
L29569 18289
" />
<path d="M29588 18204
L29455 18204
" />
<path d="M29388 18204
L29398 18212
L29407 18204
L29398 18195
L29388 18204
L29407 18204
" />
<path d="M29455 18118
L29655 18118
" />
<path d="M29464 18118
L29455 18101
L29455 18066
L29464 18049
L29474 18041
L29493 18032
L29550 18032
L29569 18041
L29579 18049
L29588 18066
L29588 18101
L29579 18118
" />
<path d="M29455 17955
L29655 17955
" />
<path d="M29464 17955
L29455 17938
L29455 17904
L29464 17886
L29474 17878
L29493 17869
L29550 17869
L29569 17878
L29579 17886
L29588 17904
L29588 17938
L29579 17955
" />
<path d="M29579 17724
L29588 17741
L29588 17775
L29579 17792
L29559 17801
L29483 17801
L29464 17792
L29455 17775
L29455 17741
L29464 17724
L29483 17715
L29502 17715
L29521 17801
" />
<path d="M29588 17561
L29388 17561
" />
<path d="M29579 17561
L29588 17578
L29588 17612
L29579 17629
L29569 17638
L29550 17646
L29493 17646
L29474 17638
L29464 17629
L29455 17612
L29455 17578
L29464 17561
" />
<path d="M28893 17476
L28799 17536
" />
<path d="M28893 17579
L28696 17579
L28696 17510
L28705 17493
L28715 17484
L28733 17476
L28761 17476
L28780 17484
L28790 17493
L28799 17510
L28799 17579
" />
<path d="M28715 17407
L28705 17399
L28696 17381
L28696 17339
L28705 17321
L28715 17313
L28733 17304
L28752 17304
L28780 17313
L28893 17416
L28893 17304
" />
<path d="M29455 18265
L29588 18265
" />
<path d="M29474 18265
L29464 18256
L29455 18239
L29455 18214
L29464 18196
L29483 18188
L29588 18188
" />
<path d="M29588 18076
L29579 18094
L29569 18102
L29550 18111
L29493 18111
L29474 18102
L29464 18094
L29455 18076
L29455 18051
L29464 18034
L29474 18025
L29493 18016
L29550 18016
L29569 18025
L29579 18034
L29588 18051
L29588 18076
" />
<path d="M29455 17965
L29455 17896
" />
<path d="M29388 17939
L29559 17939
L29579 17931
L29588 17914
L29588 17896
" />
<path d="M29579 17631
L29588 17648
L29588 17682
L29579 17699
L29559 17708
L29483 17708
L29464 17699
L29455 17682
L29455 17648
L29464 17631
L29483 17622
L29502 17622
L29521 17708
" />
<path d="M29455 17468
L29655 17468
" />
<path d="M29579 17468
L29588 17485
L29588 17519
L29579 17536
L29569 17545
L29550 17554
L29493 17554
L29474 17545
L29464 17536
L29455 17519
L29455 17485
L29464 17468
" />
<path d="M29455 17305
L29588 17305
" />
<path d="M29455 17382
L29559 17382
L29579 17374
L29588 17356
L29588 17331
L29579 17314
L29569 17305
" />
<path d="M29588 17219
L29455 17219
" />
<path d="M29388 17219
L29398 17228
L29407 17219
L29398 17211
L29388 17219
L29407 17219
" />
<path d="M29455 17134
L29655 17134
" />
<path d="M29464 17134
L29455 17116
L29455 17082
L29464 17065
L29474 17056
L29493 17048
L29550 17048
L29569 17056
L29579 17065
L29588 17082
L29588 17116
L29579 17134
" />
<path d="M29455 16971
L29655 16971
" />
<path d="M29464 16971
L29455 16954
L29455 16919
L29464 16902
L29474 16894
L29493 16885
L29550 16885
L29569 16894
L29579 16902
L29588 16919
L29588 16954
L29579 16971
" />
<path d="M29579 16739
L29588 16756
L29588 16791
L29579 16808
L29559 16816
L29483 16816
L29464 16808
L29455 16791
L29455 16756
L29464 16739
L29483 16731
L29502 16731
L29521 16816
" />
<path d="M29588 16576
L29388 16576
" />
<path d="M29579 16576
L29588 16594
L29588 16628
L29579 16645
L29569 16654
L29550 16662
L29493 16662
L29474 16654
L29464 16645
L29455 16628
L29455 16594
L29464 16576
" />
<path d="M23676 12555
L23582 12615
" />
<path d="M23676 12657
L23479 12657
L23479 12589
L23489 12572
L23498 12563
L23517 12555
L23545 12555
L23564 12563
L23573 12572
L23582 12589
L23582 12657
" />
<path d="M23479 12495
L23479 12383
L23554 12443
L23554 12417
L23564 12400
L23573 12392
L23592 12383
L23639 12383
L23658 12392
L23667 12400
L23676 12417
L23676 12469
L23667 12486
L23658 12495
" />
<path d="M24238 13344
L24371 13344
" />
<path d="M24257 13344
L24248 13335
L24238 13318
L24238 13292
L24248 13275
L24267 13267
L24371 13267
" />
<path d="M24371 13155
L24362 13172
L24352 13181
L24333 13189
L24276 13189
L24257 13181
L24248 13172
L24238 13155
L24238 13129
L24248 13112
L24257 13104
L24276 13095
L24333 13095
L24352 13104
L24362 13112
L24371 13129
L24371 13155
" />
<path d="M24238 13044
L24238 12975
" />
<path d="M24171 13018
L24343 13018
L24362 13009
L24371 12992
L24371 12975
" />
<path d="M24362 12709
L24371 12727
L24371 12761
L24362 12778
L24343 12787
L24267 12787
L24248 12778
L24238 12761
L24238 12727
L24248 12709
L24267 12701
L24286 12701
L24305 12787
" />
<path d="M24238 12547
L24438 12547
" />
<path d="M24362 12547
L24371 12564
L24371 12598
L24362 12615
L24352 12624
L24333 12632
L24276 12632
L24257 12624
L24248 12615
L24238 12598
L24238 12564
L24248 12547
" />
<path d="M24238 12384
L24371 12384
" />
<path d="M24238 12461
L24343 12461
L24362 12452
L24371 12435
L24371 12409
L24362 12392
L24352 12384
" />
<path d="M24371 12298
L24238 12298
" />
<path d="M24171 12298
L24181 12307
L24191 12298
L24181 12289
L24171 12298
L24191 12298
" />
<path d="M24238 12212
L24438 12212
" />
<path d="M24248 12212
L24238 12195
L24238 12161
L24248 12144
L24257 12135
L24276 12127
L24333 12127
L24352 12135
L24362 12144
L24371 12161
L24371 12195
L24362 12212
" />
<path d="M24238 12050
L24438 12050
" />
<path d="M24248 12050
L24238 12032
L24238 11998
L24248 11981
L24257 11972
L24276 11964
L24333 11964
L24352 11972
L24362 11981
L24371 11998
L24371 12032
L24362 12050
" />
<path d="M24362 11818
L24371 11835
L24371 11870
L24362 11887
L24343 11895
L24267 11895
L24248 11887
L24238 11870
L24238 11835
L24248 11818
L24267 11810
L24286 11810
L24305 11895
" />
<path d="M24371 11655
L24171 11655
" />
<path d="M24362 11655
L24371 11672
L24371 11707
L24362 11724
L24352 11732
L24333 11741
L24276 11741
L24257 11732
L24248 11724
L24238 11707
L24238 11672
L24248 11655
" />
<path d="M25104 12505
L25010 12565
" />
<path d="M25104 12607
L24907 12607
L24907 12539
L24917 12522
L24926 12513
L24945 12505
L24973 12505
L24992 12513
L25001 12522
L25010 12539
L25010 12607
" />
<path d="M24973 12350
L25104 12350
" />
<path d="M24898 12393
L25039 12436
L25039 12325
" />
<path d="M24278 12920
L24278 12825
L24411 12920
L24411 12825
" />
<path d="M24402 12688
L24411 12705
L24411 12740
L24402 12757
L24383 12765
L24307 12765
L24288 12757
L24278 12740
L24278 12705
L24288 12688
L24307 12680
L24326 12680
L24345 12765
" />
<path d="M24411 12602
L24278 12602
" />
<path d="M24316 12602
L24297 12594
L24288 12585
L24278 12568
L24278 12551
" />
<path d="M24411 12465
L24402 12482
L24392 12491
L24373 12499
L24316 12499
L24297 12491
L24288 12482
L24278 12465
L24278 12439
L24288 12422
L24297 12414
L24316 12405
L24373 12405
L24392 12414
L24402 12422
L24411 12439
L24411 12465
" />
<path d="M24411 12088
L24316 12148
" />
<path d="M24411 12191
L24211 12191
L24211 12122
L24221 12105
L24231 12097
L24250 12088
L24278 12088
L24297 12097
L24307 12105
L24316 12122
L24316 12191
" />
<path d="M24502 16148
L24442 16054
" />
<path d="M24400 16148
L24400 15951
L24468 15951
L24485 15960
L24494 15969
L24502 15988
L24502 16016
L24494 16035
L24485 16044
L24468 16054
L24400 16054
" />
<path d="M24665 15951
L24580 15951
L24571 16044
L24580 16035
L24597 16026
L24640 16026
L24657 16035
L24665 16044
L24674 16063
L24674 16110
L24665 16129
L24657 16138
L24640 16148
L24597 16148
L24580 16138
L24571 16129
" />
<path d="M24087 15321
L24182 15321
L24087 15455
L24182 15455
" />
<path d="M24319 15445
L24302 15455
L24267 15455
L24250 15445
L24242 15426
L24242 15350
L24250 15331
L24267 15321
L24302 15321
L24319 15331
L24327 15350
L24327 15369
L24242 15388
" />
<path d="M24405 15455
L24405 15321
" />
<path d="M24405 15360
L24413 15340
L24422 15331
L24439 15321
L24456 15321
" />
<path d="M24542 15455
L24525 15445
L24516 15436
L24507 15417
L24507 15360
L24516 15340
L24525 15331
L24542 15321
L24567 15321
L24585 15331
L24593 15340
L24602 15360
L24602 15417
L24593 15436
L24585 15445
L24567 15455
L24542 15455
" />
<path d="M24919 15455
L24859 15360
" />
<path d="M24816 15455
L24816 15255
L24885 15255
L24902 15264
L24910 15274
L24919 15293
L24919 15321
L24910 15340
L24902 15350
L24885 15360
L24816 15360
" />
<path d="M23715 16148
L23655 16054
" />
<path d="M23612 16148
L23612 15951
L23681 15951
L23698 15960
L23706 15969
L23715 15988
L23715 16016
L23706 16035
L23698 16044
L23681 16054
L23612 16054
" />
<path d="M23869 15951
L23835 15951
L23818 15960
L23809 15969
L23792 15997
L23784 16035
L23784 16110
L23792 16129
L23801 16138
L23818 16148
L23852 16148
L23869 16138
L23878 16129
L23886 16110
L23886 16063
L23878 16044
L23869 16035
L23852 16026
L23818 16026
L23801 16035
L23792 16044
L23784 16063
" />
<path d="M23300 15321
L23394 15321
L23300 15455
L23394 15455
" />
<path d="M23531 15445
L23514 15455
L23480 15455
L23463 15445
L23454 15426
L23454 15350
L23463 15331
L23480 15321
L23514 15321
L23531 15331
L23540 15350
L23540 15369
L23454 15388
" />
<path d="M23617 15455
L23617 15321
" />
<path d="M23617 15360
L23626 15340
L23634 15331
L23651 15321
L23669 15321
" />
<path d="M23754 15455
L23737 15445
L23729 15436
L23720 15417
L23720 15360
L23729 15340
L23737 15331
L23754 15321
L23780 15321
L23797 15331
L23806 15340
L23814 15360
L23814 15417
L23806 15436
L23797 15445
L23780 15455
L23754 15455
" />
<path d="M24131 15455
L24071 15360
" />
<path d="M24029 15455
L24029 15255
L24097 15255
L24114 15264
L24123 15274
L24131 15293
L24131 15321
L24123 15340
L24114 15350
L24097 15360
L24029 15360
" />
</g>
<g style="fill:#009F9F; fill-opacity:0.0; 
stroke:#009F9F; stroke-width:59.0551; stroke-opacity:1; 
stroke-linecap:round; stroke-linejoin:round;">
<path d="M28191 19628
L28191 20106
L28219 20163
L28248 20191
L28304 20219
L28416 20219
L28473 20191
L28501 20163
L28529 20106
L28529 19628
" />
<path d="M29119 20219
L28782 20219
" />
<path d="M28951 20219
L28951 19628
L28894 19713
L28838 19769
L28782 19797
" />
<path d="M28262 23053
L28262 22463
L28487 22463
L28543 22491
L28571 22519
L28599 22575
L28599 22660
L28571 22716
L28543 22744
L28487 22772
L28262 22772
" />
<path d="M28768 22463
L29105 22463
" />
<path d="M28937 23053
L28937 22463
" />
<path d="M20908 10868
L20908 11347
L20936 11403
L20964 11431
L21020 11459
L21133 11459
L21189 11431
L21217 11403
L21245 11347
L21245 10868
" />
<path d="M21498 10925
L21526 10897
L21583 10868
L21723 10868
L21780 10897
L21808 10925
L21836 10981
L21836 11037
L21808 11122
L21470 11459
L21836 11459
" />
<path d="M20978 14294
L20978 13703
L21203 13703
L21259 13731
L21287 13759
L21316 13816
L21316 13900
L21287 13956
L21259 13984
L21203 14012
L20978 14012
" />
<path d="M21484 13703
L21822 13703
" />
<path d="M21653 14294
L21653 13703
" />
<path d="M20908 9786
L20908 10264
L20936 10320
L20964 10348
L21020 10376
L21133 10376
L21189 10348
L21217 10320
L21245 10264
L21245 9786
" />
<path d="M21470 9786
L21836 9786
L21639 10011
L21723 10011
L21780 10039
L21808 10067
L21836 10123
L21836 10264
L21808 10320
L21780 10348
L21723 10376
L21555 10376
L21498 10348
L21470 10320
" />
<path d="M20978 13211
L20978 12620
L21203 12620
L21259 12649
L21287 12677
L21316 12733
L21316 12817
L21287 12874
L21259 12902
L21203 12930
L20978 12930
" />
<path d="M21484 12620
L21822 12620
" />
<path d="M21653 13211
L21653 12620
" />
<path d="M28191 18644
L28191 19122
L28219 19178
L28248 19206
L28304 19235
L28416 19235
L28473 19206
L28501 19178
L28529 19122
L28529 18644
" />
<path d="M29063 18841
L29063 19235
" />
<path d="M28922 18616
L28782 19038
L29147 19038
" />
<path d="M28262 22069
L28262 21479
L28487 21479
L28543 21507
L28571 21535
L28599 21591
L28599 21676
L28571 21732
L28543 21760
L28487 21788
L28262 21788
" />
<path d="M28768 21479
L29105 21479
" />
<path d="M28937 22069
L28937 21479
" />
<path d="M24574 13249
L24574 13568
L24592 13606
L24611 13624
L24649 13643
L24724 13643
L24761 13624
L24780 13606
L24799 13568
L24799 13249
" />
<path d="M25173 13249
L24986 13249
L24967 13437
L24986 13418
L25023 13399
L25117 13399
L25155 13418
L25173 13437
L25192 13474
L25192 13568
L25173 13606
L25155 13624
L25117 13643
L25023 13643
L24986 13624
L24967 13606
" />
<path d="M23191 15722
L23059 15534
" />
<path d="M22966 15722
L22966 15328
L23116 15328
L23153 15347
L23172 15366
L23191 15403
L23191 15459
L23172 15497
L23153 15516
L23116 15534
L22966 15534
" />
<path d="M23491 15516
L23359 15516
" />
<path d="M23359 15722
L23359 15328
L23547 15328
" />
<path d="M23865 15459
L23865 15722
" />
<path d="M23772 15309
L23678 15591
L23922 15591
" />
<path d="M24034 15328
L24278 15328
L24147 15478
L24203 15478
L24240 15497
L24259 15516
L24278 15553
L24278 15647
L24259 15684
L24240 15703
L24203 15722
L24090 15722
L24053 15703
L24034 15684
" />
<path d="M24522 15328
L24559 15328
L24597 15347
L24615 15366
L24634 15403
L24653 15478
L24653 15572
L24634 15647
L24615 15684
L24597 15703
L24559 15722
L24522 15722
L24484 15703
L24465 15684
L24447 15647
L24428 15572
L24428 15478
L24447 15403
L24465 15366
L24484 15347
L24522 15328
" />
<path d="M25047 15684
L25028 15703
L24972 15722
L24934 15722
L24878 15703
L24840 15666
L24822 15628
L24803 15553
L24803 15497
L24822 15422
L24840 15384
L24878 15347
L24934 15328
L24972 15328
L25028 15347
L25047 15366
" />
<path d="M25403 15722
L25215 15722
L25215 15328
" />
<path d="M25497 15328
L25740 15328
L25609 15478
L25665 15478
L25703 15497
L25721 15516
L25740 15553
L25740 15647
L25721 15684
L25703 15703
L25665 15722
L25553 15722
L25515 15703
L25497 15684
" />
<path d="M25871 15328
L26115 15328
L25984 15478
L26040 15478
L26078 15497
L26096 15516
L26115 15553
L26115 15647
L26096 15684
L26078 15703
L26040 15722
L25928 15722
L25890 15703
L25871 15684
" />
<path d="M26359 15328
L26396 15328
L26434 15347
L26453 15366
L26471 15403
L26490 15478
L26490 15572
L26471 15647
L26453 15684
L26434 15703
L26396 15722
L26359 15722
L26321 15703
L26303 15684
L26284 15647
L26265 15572
L26265 15478
L26284 15403
L26303 15366
L26321 15347
L26359 15328
" />
<path d="M26659 15722
L26659 15328
" />
<path d="M26659 15516
L26884 15516
" />
<path d="M26884 15722
L26884 15328
" />
</g>
<g style="fill:#009F9F; fill-opacity:0.0; 
stroke:#009F9F; stroke-width:45; stroke-opacity:1; 
stroke-linecap:round; stroke-linejoin:round;">
<path d="M22607 14235
L22599 14244
L22573 14254
L22556 14254
L22530 14244
L22513 14225
L22504 14206
L22496 14168
L22496 14139
L22504 14101
L22513 14082
L22530 14063
L22556 14054
L22573 14054
L22599 14063
L22607 14073
" />
<path d="M22770 14054
L22684 14054
L22676 14149
L22684 14139
L22702 14130
L22744 14130
L22762 14139
L22770 14149
L22779 14168
L22779 14216
L22770 14235
L22762 14244
L22744 14254
L22702 14254
L22684 14244
L22676 14235
" />
<path d="M21793 13470
L21793 13604
" />
<path d="M21793 13489
L21802 13480
L21819 13470
L21844 13470
L21862 13480
L21870 13499
L21870 13604
" />
<path d="M21982 13604
L21964 13594
L21956 13585
L21947 13566
L21947 13508
L21956 13489
L21964 13480
L21982 13470
L22007 13470
L22024 13480
L22033 13489
L22042 13508
L22042 13566
L22033 13585
L22024 13594
L22007 13604
L21982 13604
" />
<path d="M22093 13470
L22162 13470
" />
<path d="M22119 13404
L22119 13575
L22127 13594
L22144 13604
L22162 13604
" />
<path d="M22427 13594
L22410 13604
L22376 13604
L22359 13594
L22350 13575
L22350 13499
L22359 13480
L22376 13470
L22410 13470
L22427 13480
L22436 13499
L22436 13518
L22350 13537
" />
<path d="M22590 13470
L22590 13670
" />
<path d="M22590 13594
L22573 13604
L22539 13604
L22522 13594
L22513 13585
L22504 13566
L22504 13508
L22513 13489
L22522 13480
L22539 13470
L22573 13470
L22590 13480
" />
<path d="M22753 13470
L22753 13604
" />
<path d="M22676 13470
L22676 13575
L22684 13594
L22702 13604
L22727 13604
L22744 13594
L22753 13585
" />
<path d="M22839 13604
L22839 13470
" />
<path d="M22839 13404
L22830 13413
L22839 13423
L22847 13413
L22839 13404
L22839 13423
" />
<path d="M22924 13470
L22924 13670
" />
<path d="M22924 13480
L22942 13470
L22976 13470
L22993 13480
L23002 13489
L23010 13508
L23010 13566
L23002 13585
L22993 13594
L22976 13604
L22942 13604
L22924 13594
" />
<path d="M23087 13470
L23087 13670
" />
<path d="M23087 13480
L23104 13470
L23139 13470
L23156 13480
L23164 13489
L23173 13508
L23173 13566
L23164 13585
L23156 13594
L23139 13604
L23104 13604
L23087 13594
" />
<path d="M23319 13594
L23302 13604
L23267 13604
L23250 13594
L23242 13575
L23242 13499
L23250 13480
L23267 13470
L23302 13470
L23319 13480
L23327 13499
L23327 13518
L23242 13537
" />
<path d="M23482 13604
L23482 13404
" />
<path d="M23482 13594
L23464 13604
L23430 13604
L23413 13594
L23404 13585
L23396 13566
L23396 13508
L23404 13489
L23413 13480
L23430 13470
L23464 13470
L23482 13480
" />
<path d="M29522 13982
L29462 13888
" />
<path d="M29419 13982
L29419 13785
L29488 13785
L29505 13795
L29513 13804
L29522 13823
L29522 13851
L29513 13870
L29505 13879
L29488 13888
L29419 13888
" />
<path d="M29582 13785
L29702 13785
L29625 13982
" />
<path d="M29317 13289
L29214 13289
" />
<path d="M29266 13289
L29266 13089
L29248 13118
L29231 13137
L29214 13147
" />
<path d="M29428 13089
L29446 13089
L29463 13099
L29471 13108
L29480 13128
L29488 13166
L29488 13213
L29480 13251
L29471 13270
L29463 13280
L29446 13289
L29428 13289
L29411 13280
L29403 13270
L29394 13251
L29386 13213
L29386 13166
L29394 13128
L29403 13108
L29411 13099
L29428 13089
" />
<path d="M29600 13089
L29617 13089
L29634 13099
L29643 13108
L29651 13128
L29660 13166
L29660 13213
L29651 13251
L29643 13270
L29634 13280
L29617 13289
L29600 13289
L29583 13280
L29574 13270
L29566 13251
L29557 13213
L29557 13166
L29566 13128
L29574 13108
L29583 13099
L29600 13089
" />
<path d="M29840 13289
L29780 13194
" />
<path d="M29737 13289
L29737 13089
L29806 13089
L29823 13099
L29831 13108
L29840 13128
L29840 13156
L29831 13175
L29823 13185
L29806 13194
L29737 13194
" />
</g>
<g style="fill:#009F9F; fill-opacity:0.0; 
stroke:#009F9F; stroke-width:47; stroke-opacity:1; 
stroke-linecap:round; stroke-linejoin:round;">
<path d="M29134 12952
L29409 12952
" />
<path d="M28740 12952
L28465 12952
" />
<path d="M29134 12440
L29409 12440
" />
<path d="M28465 12440
L28740 12440
" />
<path d="M29409 12446
L29409 12946
" />
<path d="M28465 12946
L28465 12446
" />
<path d="M29134 12067
L29409 12067
" />
<path d="M28740 12067
L28465 12067
" />
<path d="M29134 11555
L29409 11555
" />
<path d="M28465 11555
L28740 11555
" />
<path d="M29409 11561
L29409 12061
" />
<path d="M28465 12061
L28465 11561
" />
<path d="M26771 12440
L26496 12440
" />
<path d="M27165 12440
L27440 12440
" />
<path d="M26771 12952
L26496 12952
" />
<path d="M27440 12952
L27165 12952
" />
<path d="M26496 12946
L26496 12446
" />
<path d="M27440 12446
L27440 12946
" />
<path d="M21397 14370
L21397 14645
" />
<path d="M21397 13976
L21397 13701
" />
<path d="M21909 14370
L21909 14645
" />
<path d="M21909 13701
L21909 13976
" />
<path d="M21903 14645
L21403 14645
" />
<path d="M21403 13701
L21903 13701
" />
</g>
<g style="fill:#009F9F; fill-opacity:0.0; 
stroke:#009F9F; stroke-width:80; stroke-opacity:1; 
stroke-linecap:round; stroke-linejoin:round;">
<path d="M21047 21185
L21047 18185
" />
<path d="M23047 18185
L23047 21185
" />
<path d="M23047 21185
L21047 21185
" />
<path d="M21047 18185
L23047 18185
" />
</g>
<g style="fill:#009F9F; fill-opacity:0.0; 
stroke:#009F9F; stroke-width:120; stroke-opacity:1; 
stroke-linecap:round; stroke-linejoin:round;">
<path d="M22751 17141
L20751 17141
" />
<path d="M20751 17141
L20751 15141
" />
<path d="M20751 15141
L22751 15141
" />
<path d="M22751 15141
L22751 17141
" />
</g>
<g style="fill:#009F9F; fill-opacity:0.0; 
stroke:#009F9F; stroke-width:60; stroke-opacity:1; 
stroke-linecap:round; stroke-linejoin:round;">
<path d="M29716 16905
L30716 16905
" />
<path d="M30716 16905
L30716 19905
" />
<path d="M30716 19905
L29716 19905
" />
<path d="M29716 19905
L29716 16905
" />
<path d="M30716 17905
L29716 17905
" />
</g>
<g style="fill:#009F9F; fill-opacity:0.0; 
stroke:#009F9F; stroke-width:150; stroke-opacity:1; 
stroke-linecap:round; stroke-linejoin:round;">
<path d="M27988 21192
L23388 21192
" />
<path d="M23388 17192
L27988 17192
" />
<path d="M23388 17192
L23388 21192
" />
<path d="M27988 17192
L27988 21192
" />
</g>
<g style="fill:#009F9F; fill-opacity:0.0; 
stroke:#009F9F; stroke-width:50; stroke-opacity:1; 
stroke-linecap:round; stroke-linejoin:round;">
<path d="M29035 18680
L29313 18680
" />
<path d="M29313 18680
L29313 18130
" />
<path d="M29313 18130
L29035 18130
" />
<path d="M28363 18680
L28641 18680
" />
<path d="M28363 18680
L28363 18130
" />
<path d="M28363 18130
L28641 18130
" />
<path d="M29035 17696
L29313 17696
" />
<path d="M29313 17696
L29313 17146
" />
<path d="M29313 17146
L29035 17146
" />
<path d="M28363 17696
L28641 17696
" />
<path d="M28363 17696
L28363 17146
" />
<path d="M28363 17146
L28641 17146
" />
<path d="M23819 12775
L24097 12775
" />
<path d="M24097 12775
L24097 12225
" />
<path d="M24097 12225
L23819 12225
" />
<path d="M23147 12775
L23425 12775
" />
<path d="M23147 12775
L23147 12225
" />
<path d="M23147 12225
L23425 12225
" />
<path d="M24803 12225
L24525 12225
" />
<path d="M24525 12225
L24525 12775
" />
<path d="M24525 12775
L24803 12775
" />
<path d="M25475 12225
L25197 12225
" />
<path d="M25475 12225
L25475 12775
" />
<path d="M25475 12775
L25197 12775
" />
<path d="M24782 15846
L24782 15568
" />
<path d="M24782 15568
L24232 15568
" />
<path d="M24232 15568
L24232 15846
" />
<path d="M24782 16518
L24782 16240
" />
<path d="M24782 16518
L24232 16518
" />
<path d="M24232 16518
L24232 16240
" />
<path d="M23995 15846
L23995 15568
" />
<path d="M23995 15568
L23445 15568
" />
<path d="M23445 15568
L23445 15846
" />
<path d="M23995 16518
L23995 16240
" />
<path d="M23995 16518
L23445 16518
" />
<path d="M23445 16518
L23445 16240
" />
</g>
<g style="fill:#009F9F; fill-opacity:0.0; 
stroke:#009F9F; stroke-width:47; stroke-opacity:1; 
stroke-linecap:round; stroke-linejoin:round;">
<path d="M22381 14370
L22381 14645
" />
<path d="M22381 13976
L22381 13701
" />
<path d="M22893 14370
L22893 14645
" />
<path d="M22893 13701
L22893 13976
" />
<path d="M22887 14645
L22387 14645
" />
<path d="M22387 13701
L22887 13701
" />
</g>
<g style="fill:#009F9F; fill-opacity:0.0; 
stroke:#009F9F; stroke-width:50; stroke-opacity:1; 
stroke-linecap:round; stroke-linejoin:round;">
<path d="M29802 13680
L29802 13402
" />
<path d="M29802 13402
L29252 13402
" />
<path d="M29252 13402
L29252 13680
" />
<path d="M29802 14352
L29802 14074
" />
<path d="M29802 14352
L29252 14352
" />
<path d="M29252 14352
L29252 14074
" />
</g>
<g style="fill:#9F0000; fill-opacity:0.0; 
stroke:#9F0000; stroke-width:196.85; stroke-opacity:1; 
stroke-linecap:round; stroke-linejoin:round;">
</g>
<g style="fill:#9F0000; fill-opacity:1.0; 
stroke:#9F0000; stroke-width:196.85; stroke-opacity:1; 
stroke-linecap:round; stroke-linejoin:round;">
<polyline style="fill-rule:evenodd;"
points="28610,12823
28610,12570
28663,12570
28663,12823
28610,12823
" /> 
<polyline style="fill-rule:evenodd;"
points="29210,12823
29210,12570
29263,12570
29263,12823
29210,12823
" /> 
<polyline style="fill-rule:evenodd;"
points="28610,11937
28610,11684
28663,11684
28663,11937
28610,11937
" /> 
<polyline style="fill-rule:evenodd;"
points="29210,11937
29210,11684
29263,11684
29263,11937
29210,11937
" /> 
<polyline style="fill-rule:evenodd;"
points="27295,12570
27295,12823
27241,12823
27241,12570
27295,12570
" /> 
<polyline style="fill-rule:evenodd;"
points="26695,12570
26695,12823
26641,12823
26641,12570
26695,12570
" /> 
<polyline style="fill-rule:evenodd;"
points="21526,13846
21780,13846
21780,13899
21526,13899
21526,13846
" /> 
<polyline style="fill-rule:evenodd;"
points="21526,14446
21780,14446
21780,14499
21526,14499
21526,14446
" /> 
</g>
<g style="fill:#7F7F00; fill-opacity:1.0; 
stroke:#7F7F00; stroke-width:196.85; stroke-opacity:1; 
stroke-linecap:round; stroke-linejoin:round;">
<polyline style="fill-rule:evenodd;"
points="21345,18483
21748,18483
21748,18886
21345,18886
21345,18483
" /> 
<circle cx="22547.2" cy="18685" r="201.575" /> 
<circle cx="21547.2" cy="19685" r="201.575" /> 
<circle cx="22547.2" cy="19685" r="201.575" /> 
<circle cx="21547.2" cy="20685" r="201.575" /> 
<circle cx="22547.2" cy="20685" r="201.575" /> 
<polyline style="fill-rule:evenodd;"
points="22453,15440
22453,15843
22050,15843
22050,15440
22453,15440
" /> 
<circle cx="22252" cy="16641.7" r="201.575" /> 
<circle cx="21252" cy="15641.7" r="201.575" /> 
<circle cx="21252" cy="16641.7" r="201.575" /> 
</g>
<g style="fill:#9F0000; fill-opacity:1.0; 
stroke:#9F0000; stroke-width:196.85; stroke-opacity:1; 
stroke-linecap:round; stroke-linejoin:round;">
<polyline style="fill-rule:evenodd;"
points="28444,13681
28641,13681
28641,14074
28444,14074
28444,13681
" /> 
<polyline style="fill-rule:evenodd;"
points="27814,13681
28011,13681
28011,14074
27814,14074
27814,13681
" /> 
<polyline style="fill-rule:evenodd;"
points="27185,13688
27381,13688
27381,14082
27185,14082
27185,13688
" /> 
<polyline style="fill-rule:evenodd;"
points="28444,15610
28641,15610
28641,16003
28444,16003
28444,15610
" /> 
<polyline style="fill-rule:evenodd;"
points="27814,15610
28011,15610
28011,16003
27814,16003
27814,15610
" /> 
<polyline style="fill-rule:evenodd;"
points="27185,15610
27381,15610
27381,16003
27185,16003
27185,15610
" /> 
</g>
<g style="fill:#7F7F00; fill-opacity:1.0; 
stroke:#7F7F00; stroke-width:196.85; stroke-opacity:1; 
stroke-linecap:round; stroke-linejoin:round;">
<polyline style="fill-rule:evenodd;"
points="30014,17203
30418,17203
30418,17607
30014,17607
30014,17203
" /> 
<circle cx="30216.5" cy="18405.5" r="201.575" /> 
<circle cx="30216.5" cy="19405.5" r="201.575" /> 
<circle cx="24189" cy="20692.9" r="251.575" /> 
<circle cx="25189" cy="20692.9" r="251.575" /> 
<circle cx="26189" cy="20692.9" r="251.575" /> 
<circle cx="27189" cy="20692.9" r="251.575" /> 
<circle cx="27189" cy="17692.9" r="251.575" /> 
<circle cx="26189" cy="17692.9" r="251.575" /> 
<circle cx="25189" cy="17692.9" r="251.575" /> 
<circle cx="24189" cy="17692.9" r="251.575" /> 
<polyline style="fill-rule:evenodd;"
points="29921,16437
29724,16437
29724,16240
29921,16240
29921,16437
" /> 
<polyline style="fill-rule:evenodd;"
points="30472,16433
30275,16433
30275,16236
30472,16236
30472,16433
" /> 
<polyline style="fill-rule:evenodd;"
points="29921,12795
29921,12204
30511,12204
30511,12795
29921,12795
" /> 
<circle cx="30216.5" cy="20570.9" r="295.276" /> 
</g>
<g style="fill:#9F0000; fill-opacity:1.0; 
stroke:#9F0000; stroke-width:196.85; stroke-opacity:1; 
stroke-linecap:round; stroke-linejoin:round;">
<polyline style="fill-rule:evenodd;"
points="29165,18278
29165,18532
29112,18532
29112,18278
29165,18278
" /> 
<polyline style="fill-rule:evenodd;"
points="28565,18278
28565,18532
28512,18532
28512,18278
28565,18278
" /> 
<polyline style="fill-rule:evenodd;"
points="29165,17294
29165,17547
29112,17547
29112,17294
29165,17294
" /> 
<polyline style="fill-rule:evenodd;"
points="28565,17294
28565,17547
28512,17547
28512,17294
28565,17294
" /> 
<polyline style="fill-rule:evenodd;"
points="23948,12373
23948,12626
23895,12626
23895,12373
23948,12373
" /> 
<polyline style="fill-rule:evenodd;"
points="23348,12373
23348,12626
23295,12626
23295,12373
23348,12373
" /> 
<polyline style="fill-rule:evenodd;"
points="24673,12626
24673,12373
24726,12373
24726,12626
24673,12626
" /> 
<polyline style="fill-rule:evenodd;"
points="25273,12626
25273,12373
25326,12373
25326,12626
25273,12626
" /> 
<polyline style="fill-rule:evenodd;"
points="24381,15716
24634,15716
24634,15769
24381,15769
24381,15716
" /> 
<polyline style="fill-rule:evenodd;"
points="24381,16316
24634,16316
24634,16369
24381,16369
24381,16316
" /> 
<polyline style="fill-rule:evenodd;"
points="23593,15716
23847,15716
23847,15769
23593,15769
23593,15716
" /> 
<polyline style="fill-rule:evenodd;"
points="23593,16316
23847,16316
23847,16369
23593,16369
23593,16316
" /> 
<circle cx="28641.7" cy="21259.8" r="196.85" /> 
<circle cx="21358.3" cy="12500" r="196.85" /> 
<circle cx="21358.3" cy="11417.3" r="196.85" /> 
<circle cx="28641.7" cy="20275.6" r="196.85" /> 
<polyline style="fill-rule:evenodd;"
points="23562,13484
23562,13484
23877,13484
23877,13484
23562,13484
" /> 
<polyline style="fill-rule:evenodd;"
points="23562,13740
23562,13740
23877,13740
23877,13740
23562,13740
" /> 
<polyline style="fill-rule:evenodd;"
points="23562,13996
23562,13996
23877,13996
23877,13996
23562,13996
" /> 
<polyline style="fill-rule:evenodd;"
points="23562,14251
23562,14251
23877,14251
23877,14251
23562,14251
" /> 
<polyline style="fill-rule:evenodd;"
points="23562,14507
23562,14507
23877,14507
23877,14507
23562,14507
" /> 
<polyline style="fill-rule:evenodd;"
points="23562,14763
23562,14763
23877,14763
23877,14763
23562,14763
" /> 
<polyline style="fill-rule:evenodd;"
points="23562,15019
23562,15019
23877,15019
23877,15019
23562,15019
" /> 
<polyline style="fill-rule:evenodd;"
points="25807,13484
25807,13484
26122,13484
26122,13484
25807,13484
" /> 
<polyline style="fill-rule:evenodd;"
points="25807,13740
25807,13740
26122,13740
26122,13740
25807,13740
" /> 
<polyline style="fill-rule:evenodd;"
points="25807,13996
25807,13996
26122,13996
26122,13996
25807,13996
" /> 
<polyline style="fill-rule:evenodd;"
points="25807,14251
25807,14251
26122,14251
26122,14251
25807,14251
" /> 
<polyline style="fill-rule:evenodd;"
points="25807,14507
25807,14507
26122,14507
26122,14507
25807,14507
" /> 
<polyline style="fill-rule:evenodd;"
points="25807,14763
25807,14763
26122,14763
26122,14763
25807,14763
" /> 
<polyline style="fill-rule:evenodd;"
points="25807,15019
25807,15019
26122,15019
26122,15019
25807,15019
" /> 
<polyline style="fill-rule:evenodd;"
points="22511,13846
22764,13846
22764,13899
22511,13899
22511,13846
" /> 
<polyline style="fill-rule:evenodd;"
points="22511,14446
22764,14446
22764,14499
22511,14499
22511,14446
" /> 
<polyline style="fill-rule:evenodd;"
points="29400,13551
29654,13551
29654,13604
29400,13604
29400,13551
" /> 
<polyline style="fill-rule:evenodd;"
points="29400,14151
29654,14151
29654,14204
29400,14204
29400,14151
" /> 
</g>
<g style="fill:#BFBFBF; fill-opacity:1.0; 
stroke:#BFBFBF; stroke-width:196.85; stroke-opacity:1; 
stroke-linecap:round; stroke-linejoin:round;">
<circle cx="24409.4" cy="11909.4" r="76.5748" /> 
<circle cx="26870.1" cy="19192.9" r="76.5748" /> 
<circle cx="25098.4" cy="14665.4" r="76.5748" /> 
<circle cx="26279.5" cy="15452.8" r="76.5748" /> 
<circle cx="19586.6" cy="16240.2" r="76.5748" /> 
<circle cx="20275.6" cy="16633.9" r="76.5748" /> 
</g>
<g style="fill:#9F0000; fill-opacity:1.0; 
stroke:#9F0000; stroke-width:100; stroke-opacity:1; 
stroke-linecap:round; stroke-linejoin:round;">
<path d="M23720 13484
L23523 13484
" />
<path d="M23322 13282
L23322 12500
" />
<path d="M23523 13484
L23322 13282
" />
</g>
<g style="fill:#009F00; fill-opacity:1.0; 
stroke:#009F00; stroke-width:196.85; stroke-opacity:1; 
stroke-linecap:round; stroke-linejoin:round;">
<path d="M30216 12500
L29724 12500
" />
</g>
<g style="fill:#9F0000; fill-opacity:1.0; 
stroke:#9F0000; stroke-width:196.85; stroke-opacity:1; 
stroke-linecap:round; stroke-linejoin:round;">
<path d="M23322 12209
L23322 12500
" />
<path d="M23622 11909
L23322 12209
" />
<path d="M24409 11909
L23622 11909
" />
</g>
<g style="fill:#009F00; fill-opacity:1.0; 
stroke:#009F00; stroke-width:196.85; stroke-opacity:1; 
stroke-linecap:round; stroke-linejoin:round;">
<path d="M25590 11909
L24409 11909
" />
<path d="M25885 12204
L25590 11909
" />
<path d="M29429 12204
L25885 12204
" />
<path d="M29724 12500
L29429 12204
" />
<path d="M30216 12500
L30216 15059
" />
<path d="M30625 17405
L30216 17405
" />
<path d="M31003 17027
L30625 17405
" />
<path d="M31003 15846
L31003 17027
" />
<path d="M30216 15059
L31003 15846
" />
</g>
<g style="fill:#9F0000; fill-opacity:1.0; 
stroke:#9F0000; stroke-width:196.85; stroke-opacity:1; 
stroke-linecap:round; stroke-linejoin:round;">
<path d="M29237 12696
L29237 13287
" />
<path d="M29237 13287
L29527 13577
" />
<path d="M29138 17421
L29138 16402
" />
<path d="M29138 16402
L28543 15807
" />
<path d="M23322 12500
L21358 12500
" />
</g>
<g style="fill:#009F00; fill-opacity:1.0; 
stroke:#009F00; stroke-width:196.85; stroke-opacity:1; 
stroke-linecap:round; stroke-linejoin:round;">
<path d="M28641 16929
L24952 16929
" />
<path d="M24952 16929
L24188 17692
" />
<path d="M30216 17405
L29118 17405
" />
<path d="M29118 17405
L28641 16929
" />
</g>
<g style="fill:#9F0000; fill-opacity:1.0; 
stroke:#9F0000; stroke-width:196.85; stroke-opacity:1; 
stroke-linecap:round; stroke-linejoin:round;">
<path d="M24188 17692
L23539 17692
" />
<path d="M23539 17692
L22547 18685
" />
<path d="M29237 11811
L29237 12696
" />
<path d="M30216 12500
L30216 12106
" />
<path d="M29921 11811
L29237 11811
" />
<path d="M30216 12106
L29921 11811
" />
<path d="M29138 18405
L29138 17421
" />
<path d="M30216 17405
L29154 17405
" />
<path d="M29154 17405
L29138 17421
" />
<path d="M30216 17405
L29641 17405
" />
</g>
<g style="fill:#9F0000; fill-opacity:1.0; 
stroke:#9F0000; stroke-width:100; stroke-opacity:1; 
stroke-linecap:round; stroke-linejoin:round;">
<path d="M22637 13873
L23134 13873
" />
<path d="M23267 13740
L23720 13740
" />
<path d="M23134 13873
L23267 13740
" />
</g>
<g style="fill:#9F0000; fill-opacity:1.0; 
stroke:#9F0000; stroke-width:196.85; stroke-opacity:1; 
stroke-linecap:round; stroke-linejoin:round;">
<path d="M22251 15641
L22137 15641
" />
<path d="M21362 13873
L21653 13873
" />
<path d="M21062 14173
L21362 13873
" />
<path d="M21062 14763
L21062 14173
" />
<path d="M21259 14960
L21062 14763
" />
<path d="M21456 14960
L21259 14960
" />
<path d="M22137 15641
L21456 14960
" />
<path d="M21653 13873
L22637 13873
" />
</g>
<g style="fill:#9F0000; fill-opacity:1.0; 
stroke:#9F0000; stroke-width:100; stroke-opacity:1; 
stroke-linecap:round; stroke-linejoin:round;">
<path d="M22637 14473
L23125 14473
" />
<path d="M23405 13996
L23720 13996
" />
<path d="M23228 14173
L23405 13996
" />
<path d="M23228 14370
L23228 14173
" />
<path d="M23125 14473
L23228 14370
" />
</g>
<g style="fill:#9F0000; fill-opacity:1.0; 
stroke:#9F0000; stroke-width:196.85; stroke-opacity:1; 
stroke-linecap:round; stroke-linejoin:round;">
<path d="M21653 14473
L21653 14566
" />
<path d="M22531 16641
L22251 16641
" />
<path d="M22933 16240
L22531 16641
" />
<path d="M22933 15157
L22933 16240
" />
<path d="M22736 14960
L22933 15157
" />
<path d="M22047 14960
L22736 14960
" />
<path d="M21653 14566
L22047 14960
" />
<path d="M21550 14473
L21653 14473
" />
<path d="M21653 14473
L22637 14473
" />
</g>
<g style="fill:#9F0000; fill-opacity:1.0; 
stroke:#9F0000; stroke-width:100; stroke-opacity:1; 
stroke-linecap:round; stroke-linejoin:round;">
<path d="M25964 15019
L25964 15275
" />
<path d="M25885 17389
L26188 17692
" />
<path d="M25885 15354
L25885 17389
" />
<path d="M25964 15275
L25885 15354
" />
</g>
<g style="fill:#009F00; fill-opacity:1.0; 
stroke:#009F00; stroke-width:196.85; stroke-opacity:1; 
stroke-linecap:round; stroke-linejoin:round;">
<path d="M21547 18685
L21547 18118
" />
<path d="M25476 18405
L26188 17692
" />
<path d="M23818 18405
L25476 18405
" />
<path d="M23129 17716
L23818 18405
" />
<path d="M21948 17716
L23129 17716
" />
<path d="M21547 18118
L21948 17716
" />
</g>
<g style="fill:#9F0000; fill-opacity:1.0; 
stroke:#9F0000; stroke-width:196.85; stroke-opacity:1; 
stroke-linecap:round; stroke-linejoin:round;">
<path d="M30216 18405
L30511 18405
" />
<path d="M30905 16866
L30374 16334
" />
<path d="M30905 18011
L30905 16866
" />
<path d="M30511 18405
L30905 18011
" />
</g>
<g style="fill:#009F00; fill-opacity:1.0; 
stroke:#009F00; stroke-width:196.85; stroke-opacity:1; 
stroke-linecap:round; stroke-linejoin:round;">
<path d="M30216 18405
L30019 18405
" />
<path d="M27688 19192
L26188 20692
" />
<path d="M29232 19192
L27688 19192
" />
<path d="M30019 18405
L29232 19192
" />
</g>
<g style="fill:#9F0000; fill-opacity:1.0; 
stroke:#9F0000; stroke-width:196.85; stroke-opacity:1; 
stroke-linecap:round; stroke-linejoin:round;">
<path d="M24188 20692
L24188 21086
" />
<path d="M22318 21456
L21547 20685
" />
<path d="M23818 21456
L22318 21456
" />
<path d="M24188 21086
L23818 21456
" />
</g>
<g style="fill:#9F0000; fill-opacity:1.0; 
stroke:#9F0000; stroke-width:100; stroke-opacity:1; 
stroke-linecap:round; stroke-linejoin:round;">
<path d="M25492 14468
L25492 14370
" />
<path d="M25188 16838
L25492 16535
" />
<path d="M25492 16535
L25492 14468
" />
<path d="M25188 17692
L25188 16838
" />
<path d="M25610 14251
L25964 14251
" />
<path d="M25492 14370
L25610 14251
" />
</g>
<g style="fill:#9F0000; fill-opacity:1.0; 
stroke:#9F0000; stroke-width:196.85; stroke-opacity:1; 
stroke-linecap:round; stroke-linejoin:round;">
<path d="M28538 18405
L28538 19188
" />
<path d="M29429 20472
L28641 21259
" />
<path d="M29429 20078
L29429 20472
" />
<path d="M28538 19188
L29429 20078
" />
<path d="M21456 17322
L23129 17322
" />
<path d="M23129 17322
L23523 16929
" />
<path d="M21547 19685
L21259 19685
" />
<path d="M24425 16929
L25188 17692
" />
<path d="M23523 16929
L24425 16929
" />
<path d="M20767 18011
L21456 17322
" />
<path d="M20767 19192
L20767 18011
" />
<path d="M21259 19685
L20767 19192
" />
<path d="M28538 18405
L25901 18405
" />
<path d="M25901 18405
L25188 17692
" />
</g>
<g style="fill:#9F0000; fill-opacity:1.0; 
stroke:#9F0000; stroke-width:100; stroke-opacity:1; 
stroke-linecap:round; stroke-linejoin:round;">
<path d="M27188 17692
L27188 16952
" />
<path d="M26496 13996
L25964 13996
" />
<path d="M26673 14173
L26496 13996
" />
<path d="M26673 16437
L26673 14173
" />
<path d="M27188 16952
L26673 16437
" />
</g>
<g style="fill:#009F00; fill-opacity:1.0; 
stroke:#009F00; stroke-width:196.85; stroke-opacity:1; 
stroke-linecap:round; stroke-linejoin:round;">
<path d="M26377 19685
L26870 19192
" />
</g>
<g style="fill:#9F0000; fill-opacity:1.0; 
stroke:#9F0000; stroke-width:196.85; stroke-opacity:1; 
stroke-linecap:round; stroke-linejoin:round;">
<path d="M27952 20275
L28641 20275
" />
<path d="M26870 19192
L27952 20275
" />
</g>
<g style="fill:#009F00; fill-opacity:1.0; 
stroke:#009F00; stroke-width:196.85; stroke-opacity:1; 
stroke-linecap:round; stroke-linejoin:round;">
<path d="M27188 17692
L27188 18874
" />
<path d="M26377 19685
L22547 19685
" />
<path d="M27188 18874
L26377 19685
" />
</g>
<g style="fill:#9F0000; fill-opacity:1.0; 
stroke:#9F0000; stroke-width:196.85; stroke-opacity:1; 
stroke-linecap:round; stroke-linejoin:round;">
<path d="M28538 17421
L27460 17421
" />
<path d="M27460 17421
L27188 17692
" />
</g>
<g style="fill:#9F0000; fill-opacity:1.0; 
stroke:#9F0000; stroke-width:100; stroke-opacity:1; 
stroke-linecap:round; stroke-linejoin:round;">
<path d="M25098 14665
L25098 13779
" />
<path d="M25393 13484
L25964 13484
" />
<path d="M25098 13779
L25393 13484
" />
<path d="M25964 14507
L26318 14507
" />
<path d="M24896 16343
L24507 16343
" />
<path d="M25098 16141
L24896 16343
" />
<path d="M25098 14665
L25098 16141
" />
</g>
<g style="fill:#009F00; fill-opacity:1.0; 
stroke:#009F00; stroke-width:100; stroke-opacity:1; 
stroke-linecap:round; stroke-linejoin:round;">
<path d="M25492 14665
L25098 14665
" />
<path d="M26279 15452
L25492 14665
" />
</g>
<g style="fill:#9F0000; fill-opacity:1.0; 
stroke:#9F0000; stroke-width:100; stroke-opacity:1; 
stroke-linecap:round; stroke-linejoin:round;">
<path d="M26473 15259
L26279 15452
" />
<path d="M26473 14662
L26473 15259
" />
<path d="M26318 14507
L26473 14662
" />
</g>
<g style="fill:#9F0000; fill-opacity:1.0; 
stroke:#9F0000; stroke-width:196.85; stroke-opacity:1; 
stroke-linecap:round; stroke-linejoin:round;">
<path d="M27268 12696
L27268 13870
" />
<path d="M27268 13870
L27283 13885
" />
<path d="M28637 12696
L27268 12696
" />
</g>
<g style="fill:#9F0000; fill-opacity:1.0; 
stroke:#9F0000; stroke-width:100; stroke-opacity:1; 
stroke-linecap:round; stroke-linejoin:round;">
<path d="M23720 16343
L24507 16343
" />
<path d="M25300 12500
L25492 12500
" />
<path d="M25964 12972
L25964 13484
" />
<path d="M25492 12500
L25964 12972
" />
<path d="M25964 14507
L25964 14763
" />
</g>
<g style="fill:#9F0000; fill-opacity:1.0; 
stroke:#9F0000; stroke-width:196.85; stroke-opacity:1; 
stroke-linecap:round; stroke-linejoin:round;">
<path d="M21358 11417
L25595 11417
" />
<path d="M25595 11417
L25988 11811
" />
<path d="M25988 11811
L25986 11813
" />
<path d="M25986 11813
L25300 12500
" />
<path d="M27066 11811
L25988 11811
" />
<path d="M30216 19405
L30496 19405
" />
<path d="M28637 11323
L28637 11811
" />
<path d="M30496 19405
L31397 18503
" />
</g>
<g style="fill:#009F00; fill-opacity:1.0; 
stroke:#009F00; stroke-width:196.85; stroke-opacity:1; 
stroke-linecap:round; stroke-linejoin:round;">
<path d="M30216 19405
L30200 19405
" />
<path d="M30200 19405
L29921 19685
" />
<path d="M29921 19685
L28196 19685
" />
<path d="M28196 19685
L27188 20692
" />
<path d="M27188 20692
L27188 21039
" />
<path d="M23318 21456
L22547 20685
" />
<path d="M26771 21456
L23318 21456
" />
<path d="M27188 21039
L26771 21456
" />
</g>
<g style="fill:#9F0000; fill-opacity:1.0; 
stroke:#9F0000; stroke-width:196.85; stroke-opacity:1; 
stroke-linecap:round; stroke-linejoin:round;">
<path d="M28637 12696
L28637 12701
" />
<path d="M28637 11811
L28637 12696
" />
</g>
<g style="fill:#009F00; fill-opacity:1.0; 
stroke:#009F00; stroke-width:196.85; stroke-opacity:1; 
stroke-linecap:round; stroke-linejoin:round;">
<path d="M30216 20570
L30216 19405
" />
</g>
<g style="fill:#9F0000; fill-opacity:1.0; 
stroke:#9F0000; stroke-width:196.85; stroke-opacity:1; 
stroke-linecap:round; stroke-linejoin:round;">
<path d="M28838 11122
L28740 11122
" />
<path d="M28051 11811
L27066 11811
" />
<path d="M28740 11122
L28051 11811
" />
<path d="M28838 11122
L28637 11323
" />
<path d="M30610 11122
L28838 11122
" />
<path d="M31397 11909
L30610 11122
" />
<path d="M31397 18503
L31397 11909
" />
<path d="M29822 16338
L29724 16338
" />
<path d="M27913 15492
L27913 15807
" />
<path d="M28346 15059
L27913 15492
" />
<path d="M28937 15059
L28346 15059
" />
<path d="M29133 15255
L28937 15059
" />
<path d="M29133 15748
L29133 15255
" />
<path d="M29724 16338
L29133 15748
" />
</g>
<g style="fill:#9F0000; fill-opacity:1.0; 
stroke:#9F0000; stroke-width:100; stroke-opacity:1; 
stroke-linecap:round; stroke-linejoin:round;">
<path d="M24700 12500
L24606 12500
" />
<path d="M24271 14507
L23720 14507
" />
<path d="M24507 14271
L24271 14507
" />
<path d="M24507 12598
L24507 14271
" />
<path d="M24606 12500
L24507 12598
" />
<path d="M25964 13740
L26417 13740
" />
<path d="M26668 13488
L26668 12500
" />
<path d="M26417 13740
L26668 13488
" />
</g>
<g style="fill:#009F00; fill-opacity:1.0; 
stroke:#009F00; stroke-width:196.85; stroke-opacity:1; 
stroke-linecap:round; stroke-linejoin:round;">
<path d="M31988 10433
L32086 10433
" />
<path d="M32086 21358
L32086 10433
" />
<path d="M31988 10433
L19881 10433
" />
<path d="M19881 10433
L19881 22440
" />
<path d="M19881 22440
L32480 22440
" />
<path d="M32480 22440
L32480 10137
" />
<path d="M32480 10137
L19586 10137
" />
<path d="M19586 10137
L19586 16240
" />
</g>
<g style="fill:#9F0000; fill-opacity:1.0; 
stroke:#9F0000; stroke-width:196.85; stroke-opacity:1; 
stroke-linecap:round; stroke-linejoin:round;">
<path d="M19586 16240
L19586 22440
" />
<path d="M19586 22440
L32480 22440
" />
<path d="M32480 22440
L32480 10433
" />
<path d="M32480 10433
L19881 10433
" />
<path d="M19881 10433
L19881 15649
" />
<path d="M19881 15649
L19889 15641
" />
<path d="M19889 15641
L21251 15641
" />
</g>
<g style="fill:#009F00; fill-opacity:1.0; 
stroke:#009F00; stroke-width:196.85; stroke-opacity:1; 
stroke-linecap:round; stroke-linejoin:round;">
<path d="M20275 22047
L32086 22047
" />
</g>
<g style="fill:#9F0000; fill-opacity:1.0; 
stroke:#9F0000; stroke-width:196.85; stroke-opacity:1; 
stroke-linecap:round; stroke-linejoin:round;">
<path d="M21251 16641
L20185 16641
" />
</g>
<g style="fill:#009F00; fill-opacity:1.0; 
stroke:#009F00; stroke-width:196.85; stroke-opacity:1; 
stroke-linecap:round; stroke-linejoin:round;">
<path d="M20275 16633
L20275 21751
" />
</g>
<g style="fill:#9F0000; fill-opacity:1.0; 
stroke:#9F0000; stroke-width:196.85; stroke-opacity:1; 
stroke-linecap:round; stroke-linejoin:round;">
<path d="M20192 16633
L20275 16633
" />
<path d="M20185 16641
L20192 16633
" />
</g>
<g style="fill:#009F00; fill-opacity:1.0; 
stroke:#009F00; stroke-width:196.85; stroke-opacity:1; 
stroke-linecap:round; stroke-linejoin:round;">
<path d="M20275 22047
L20275 21751
" />
<path d="M32086 22047
L32086 21358
" />
<path d="M32086 21751
L32086 21358
" />
</g>
<g style="fill:#9F0000; fill-opacity:1.0; 
stroke:#9F0000; stroke-width:196.85; stroke-opacity:1; 
stroke-linecap:round; stroke-linejoin:round;">
<path d="M29527 14177
L29527 14370
" />
<path d="M27913 14429
L27913 13877
" />
<path d="M28051 14566
L27913 14429
" />
<path d="M29330 14566
L28051 14566
" />
<path d="M29527 14370
L29330 14566
" />
</g>
<g style="fill:#9F0000; fill-opacity:1.0; 
stroke:#9F0000; stroke-width:100; stroke-opacity:1; 
stroke-linecap:round; stroke-linejoin:round;">
<path d="M23720 14251
L24133 14251
" />
<path d="M24212 12790
L23922 12500
" />
<path d="M24212 14173
L24212 12790
" />
<path d="M24133 14251
L24212 14173
" />
<path d="M23720 15743
L23720 15019
" />
<path d="M24507 15743
L24507 15059
" />
<path d="M24212 14763
L23720 14763
" />
<path d="M24507 15059
L24212 14763
" />
</g>
<g style="fill:#FFFFFF; fill-opacity:1.0; 
stroke:#FFFFFF; stroke-width:196.85; stroke-opacity:1; 
stroke-linecap:round; stroke-linejoin:round;">
<circle cx="24409.4" cy="11909.4" r="26.5748" /> 
<circle cx="26870.1" cy="19192.9" r="26.5748" /> 
<circle cx="25098.4" cy="14665.4" r="26.5748" /> 
<circle cx="26279.5" cy="15452.8" r="26.5748" /> 
<circle cx="19586.6" cy="16240.2" r="26.5748" /> 
<circle cx="20275.6" cy="16633.9" r="26.5748" /> 
<circle cx="21547.2" cy="18685" r="101.575" /> 
<circle cx="22547.2" cy="18685" r="101.575" /> 
<circle cx="21547.2" cy="19685" r="101.575" /> 
<circle cx="22547.2" cy="19685" r="101.575" /> 
<circle cx="21547.2" cy="20685" r="101.575" /> 
<circle cx="22547.2" cy="20685" r="101.575" /> 
<circle cx="22252" cy="15641.7" r="101.575" /> 
<circle cx="22252" cy="16641.7" r="101.575" /> 
<circle cx="21252" cy="15641.7" r="101.575" /> 
<circle cx="21252" cy="16641.7" r="101.575" /> 
<circle cx="30216.5" cy="17405.5" r="101.575" /> 
<circle cx="30216.5" cy="18405.5" r="101.575" /> 
<circle cx="30216.5" cy="19405.5" r="101.575" /> 
<circle cx="24189" cy="20692.9" r="26.5748" /> 
<circle cx="25189" cy="20692.9" r="26.5748" /> 
<circle cx="26189" cy="20692.9" r="26.5748" /> 
<circle cx="27189" cy="20692.9" r="26.5748" /> 
<circle cx="27189" cy="17692.9" r="26.5748" /> 
<circle cx="26189" cy="17692.9" r="26.5748" /> 
<circle cx="25189" cy="17692.9" r="26.5748" /> 
<circle cx="24189" cy="17692.9" r="26.5748" /> 
<circle cx="29822.8" cy="16338.6" r="0" /> 
<circle cx="30374" cy="16334.6" r="0" /> 
<circle cx="30216.5" cy="12500" r="102.362" /> 
<circle cx="30216.5" cy="20570.9" r="102.362" /> 
</g> 
</svg>
