<?xml version="1.0" standalone="no"?>
 <!DOCTYPE svg PUBLIC "-//W3C//DTD SVG 1.1//EN" 
 "http://www.w3.org/Graphics/SVG/1.1/DTD/svg11.dtd"> 
<svg xmlns="http://www.w3.org/2000/svg" version="1.1" 
    width="14.8488cm" height="10.5004cm" viewBox="0 0 58460 41340 ">
<title>SVG Picture created as BuddiesJewel--brd.svg date 2013/12/03 01:32:45 </title>
  <desc>Picture generated by PCBNEW </desc>
<g style="fill:#000000; fill-opacity:1;stroke:#000000; stroke-opacity:1;
stroke-linecap:round; stroke-linejoin:round; "
 transform="translate(0 0) scale(1 1)">
</g>
<g style="fill:#000000; fill-opacity:0.0; 
stroke:#000000; stroke-width:196.85; stroke-opacity:1; 
stroke-linecap:round; stroke-linejoin:round;">
<path d="M4000 4000
L54460 4000
L54460 37340
L4000 37340
L4000 4000
" />
<path d="M4700 4700
L53760 4700
L53760 36640
L4700 36640
L4700 4700
" />
<path d="M29230 4000
L29230 4700
" />
<path d="M16762 4552
L16477 4552
" />
<path d="M16620 4552
L16620 4052
L16572 4123
L16524 4171
L16477 4195
" />
<path d="M29230 37340
L29230 36640
" />
<path d="M16762 37192
L16477 37192
" />
<path d="M16620 37192
L16620 36692
L16572 36763
L16524 36811
L16477 36835
" />
<path d="M41707 4100
L41730 4076
L41778 4052
L41897 4052
L41945 4076
L41969 4100
L41992 4147
L41992 4195
L41969 4266
L41683 4552
L41992 4552
" />
<path d="M41707 36740
L41730 36716
L41778 36692
L41897 36692
L41945 36716
L41969 36740
L41992 36787
L41992 36835
L41969 36906
L41683 37192
L41992 37192
" />
<path d="M4230 20729
L4469 20729
" />
<path d="M4183 20872
L4350 20372
L4516 20872
" />
<path d="M53990 20729
L54229 20729
" />
<path d="M53943 20872
L54110 20372
L54276 20872
" />
<path d="M20910 35082
L20985 34482
L21127 34482
L21210 34511
L21260 34568
L21281 34625
L21295 34740
L21285 34825
L21242 34940
L21206 34997
L21142 35054
L21052 35082
L20910 35082
" />
<path d="M21767 35082
L21806 34768
L21785 34711
L21731 34682
L21617 34682
L21556 34711
" />
<path d="M21770 35054
L21710 35082
L21567 35082
L21513 35054
L21492 34997
L21499 34940
L21535 34882
L21595 34854
L21738 34854
L21799 34825
" />
<path d="M22017 34682
L22245 34682
" />
<path d="M22127 34482
L22063 34997
L22085 35054
L22138 35082
L22195 35082
" />
<path d="M22627 35054
L22567 35082
L22452 35082
L22399 35054
L22377 34997
L22406 34768
L22442 34711
L22502 34682
L22617 34682
L22670 34711
L22692 34768
L22685 34825
L22392 34882
" />
<path d="M22917 35025
L22942 35054
L22910 35082
L22885 35054
L22917 35025
L22910 35082
" />
<path d="M22956 34711
L22981 34740
L22949 34768
L22924 34740
L22956 34711
L22949 34768
" />
<path d="M23670 34482
L24042 34482
L23813 34711
L23899 34711
L23952 34740
L23977 34768
L23999 34825
L23981 34968
L23945 35025
L23913 35054
L23852 35082
L23681 35082
L23627 35054
L23602 35025
" />
<path d="M24938 35082
L25013 34482
" />
<path d="M24942 35054
L24881 35082
L24767 35082
L24713 35054
L24688 35025
L24667 34968
L24688 34797
L24724 34740
L24756 34711
L24817 34682
L24931 34682
L24985 34711
" />
<path d="M25456 35054
L25395 35082
L25281 35082
L25227 35054
L25206 34997
L25235 34768
L25270 34711
L25331 34682
L25445 34682
L25499 34711
L25520 34768
L25513 34825
L25220 34882
" />
<path d="M25999 35054
L25938 35082
L25824 35082
L25770 35054
L25745 35025
L25724 34968
L25745 34797
L25781 34740
L25813 34711
L25874 34682
L25988 34682
L26042 34711
" />
<path d="M26749 34540
L26781 34511
L26842 34482
L26985 34482
L27038 34511
L27063 34540
L27085 34597
L27077 34654
L27038 34740
L26652 35082
L27024 35082
" />
<path d="M27470 34482
L27527 34482
L27581 34511
L27606 34540
L27627 34597
L27642 34711
L27624 34854
L27581 34968
L27545 35025
L27513 35054
L27452 35082
L27395 35082
L27342 35054
L27317 35025
L27295 34968
L27281 34854
L27299 34711
L27342 34597
L27377 34540
L27410 34511
L27470 34482
" />
<path d="M28167 35082
L27824 35082
" />
<path d="M27995 35082
L28070 34482
L28002 34568
L27938 34625
L27877 34654
" />
<path d="M28442 34482
L28813 34482
L28585 34711
L28670 34711
L28724 34740
L28749 34768
L28770 34825
L28752 34968
L28717 35025
L28685 35054
L28624 35082
L28452 35082
L28399 35054
L28374 35025
" />
<path d="M12502 36282
L12502 35682
" />
<path d="M12845 36282
L12588 35940
" />
<path d="M12845 35682
L12502 36025
" />
<path d="M13102 36282
L13102 35882
" />
<path d="M13102 35682
L13074 35711
L13102 35740
L13131 35711
L13102 35682
L13102 35740
" />
<path d="M13731 36225
L13702 36254
L13617 36282
L13560 36282
L13474 36254
L13417 36197
L13388 36140
L13360 36025
L13360 35940
L13388 35825
L13417 35768
L13474 35711
L13560 35682
L13617 35682
L13702 35711
L13731 35740
" />
<path d="M14245 36282
L14245 35968
L14217 35911
L14160 35882
L14045 35882
L13988 35911
" />
<path d="M14245 36254
L14188 36282
L14045 36282
L13988 36254
L13960 36197
L13960 36140
L13988 36082
L14045 36054
L14188 36054
L14245 36025
" />
<path d="M14788 36282
L14788 35682
" />
<path d="M14788 36254
L14731 36282
L14617 36282
L14560 36254
L14531 36225
L14502 36168
L14502 35997
L14531 35940
L14560 35911
L14617 35882
L14731 35882
L14788 35911
" />
<path d="M15531 35968
L15731 35968
" />
<path d="M15817 36282
L15531 36282
L15531 35682
L15817 35682
" />
<path d="M16074 36225
L16102 36254
L16074 36282
L16045 36254
L16074 36225
L16074 36282
" />
<path d="M16359 36282
L16359 35682
L16502 35682
L16588 35711
L16645 35768
L16674 35825
L16702 35940
L16702 36025
L16674 36140
L16645 36197
L16588 36254
L16502 36282
L16359 36282
" />
<path d="M16959 36225
L16988 36254
L16959 36282
L16931 36254
L16959 36225
L16959 36282
" />
<path d="M17217 36111
L17502 36111
" />
<path d="M17159 36282
L17359 35682
L17559 36282
" />
<path d="M17759 36225
L17788 36254
L17759 36282
L17731 36254
L17759 36225
L17759 36282
" />
<path d="M46052 35082
L45888 34797
" />
<path d="M45710 35082
L45785 34482
L46013 34482
L46067 34511
L46092 34540
L46113 34597
L46102 34682
L46067 34740
L46035 34768
L45974 34797
L45745 34797
" />
<path d="M46542 35054
L46481 35082
L46367 35082
L46313 35054
L46292 34997
L46320 34768
L46356 34711
L46417 34682
L46531 34682
L46585 34711
L46606 34768
L46599 34825
L46306 34882
" />
<path d="M46817 34682
L46910 35082
L47102 34682
" />
<path d="M47288 35025
L47313 35054
L47281 35082
L47256 35054
L47288 35025
L47281 35082
" />
<path d="M47327 34711
L47352 34740
L47320 34768
L47295 34740
L47327 34711
L47320 34768
" />
<path d="M48338 35082
L47995 35082
" />
<path d="M48167 35082
L48242 34482
L48174 34568
L48110 34625
L48049 34654
" />
<path d="M48602 35025
L48627 35054
L48595 35082
L48570 35054
L48602 35025
L48595 35082
" />
<path d="M49188 34682
L49138 35082
" />
<path d="M49074 34454
L48877 34882
L49249 34882
" />
<path d="M12474 35054
L12560 35082
L12702 35082
L12760 35054
L12788 35025
L12817 34968
L12817 34911
L12788 34854
L12760 34825
L12702 34797
L12588 34768
L12531 34740
L12502 34711
L12474 34654
L12474 34597
L12502 34540
L12531 34511
L12588 34482
L12731 34482
L12817 34511
" />
<path d="M13074 35082
L13074 34682
" />
<path d="M13074 34482
L13045 34511
L13074 34540
L13102 34511
L13074 34482
L13074 34540
" />
<path d="M13302 34682
L13617 34682
L13302 35082
L13617 35082
" />
<path d="M14074 35054
L14017 35082
L13902 35082
L13845 35054
L13817 34997
L13817 34768
L13845 34711
L13902 34682
L14017 34682
L14074 34711
L14102 34768
L14102 34825
L13817 34882
" />
<path d="M14360 35025
L14388 35054
L14360 35082
L14331 35054
L14360 35025
L14360 35082
" />
<path d="M14360 34711
L14388 34740
L14360 34768
L14331 34740
L14360 34711
L14360 34768
" />
<path d="M15102 34482
L15102 34968
L15131 35025
L15160 35054
L15217 35082
L15331 35082
L15388 35054
L15417 35025
L15445 34968
L15445 34482
" />
<path d="M15702 35054
L15760 35082
L15874 35082
L15931 35054
L15960 34997
L15960 34968
L15931 34911
L15874 34882
L15788 34882
L15731 34854
L15702 34797
L15702 34768
L15731 34711
L15788 34682
L15874 34682
L15931 34711
" />
<path d="M16445 35054
L16388 35082
L16274 35082
L16217 35054
L16188 34997
L16188 34768
L16217 34711
L16274 34682
L16388 34682
L16445 34711
L16474 34768
L16474 34825
L16188 34882
" />
<path d="M16731 35082
L16731 34682
" />
<path d="M16731 34797
L16760 34740
L16788 34711
L16845 34682
L16902 34682
" />
<path d="M45702 36282
L45702 35682
" />
<path d="M46245 36282
L46245 35682
" />
<path d="M46245 36254
L46188 36282
L46074 36282
L46017 36254
L45988 36225
L45960 36168
L45960 35997
L45988 35940
L46017 35911
L46074 35882
L46188 35882
L46245 35911
" />
<path d="M46531 36225
L46560 36254
L46531 36282
L46502 36254
L46531 36225
L46531 36282
" />
<path d="M46531 35911
L46560 35940
L46531 35968
L46502 35940
L46531 35911
L46531 35968
" />
<path d="M47588 36282
L47245 36282
" />
<path d="M47417 36282
L47417 35682
L47359 35768
L47302 35825
L47245 35854
" />
<path d="M48274 35654
L47760 36425
" />
<path d="M48788 36282
L48445 36282
" />
<path d="M48617 36282
L48617 35682
L48559 35768
L48502 35825
L48445 35854
" />
<path d="M12499 33282
L12842 33282
" />
<path d="M12595 33882
L12670 33282
" />
<path d="M12967 33882
L13017 33482
" />
<path d="M13042 33282
L13010 33311
L13035 33340
L13067 33311
L13042 33282
L13035 33340
" />
<path d="M13217 33482
L13445 33482
" />
<path d="M13327 33282
L13263 33797
L13285 33854
L13338 33882
L13395 33882
" />
<path d="M13681 33882
L13627 33854
L13606 33797
L13670 33282
" />
<path d="M14142 33854
L14081 33882
L13967 33882
L13913 33854
L13892 33797
L13920 33568
L13956 33511
L14017 33482
L14131 33482
L14185 33511
L14206 33568
L14199 33625
L13906 33682
" />
<path d="M14431 33825
L14456 33854
L14424 33882
L14399 33854
L14431 33825
L14424 33882
" />
<path d="M14470 33511
L14495 33540
L14463 33568
L14438 33540
L14470 33511
L14463 33568
" />
<path d="M15167 33882
L15242 33282
L15470 33282
L15524 33311
L15549 33340
L15570 33397
L15560 33482
L15524 33540
L15492 33568
L15431 33597
L15202 33597
" />
<path d="M15767 33882
L15817 33482
" />
<path d="M15802 33597
L15838 33540
L15870 33511
L15931 33482
L15988 33482
" />
<path d="M16224 33882
L16170 33854
L16145 33825
L16124 33768
L16145 33597
L16181 33540
L16213 33511
L16274 33482
L16360 33482
L16413 33511
L16438 33540
L16460 33597
L16438 33768
L16402 33825
L16370 33854
L16310 33882
L16224 33882
" />
<path d="M16645 33482
L16874 33482
" />
<path d="M16756 33282
L16692 33797
L16713 33854
L16767 33882
L16824 33882
" />
<path d="M17110 33882
L17056 33854
L17031 33825
L17010 33768
L17031 33597
L17067 33540
L17099 33511
L17160 33482
L17245 33482
L17299 33511
L17324 33540
L17345 33597
L17324 33768
L17288 33825
L17256 33854
L17195 33882
L17110 33882
" />
<path d="M18263 33568
L18345 33597
L18370 33625
L18392 33682
L18381 33768
L18345 33825
L18313 33854
L18252 33882
L18024 33882
L18099 33282
L18299 33282
L18352 33311
L18377 33340
L18399 33397
L18392 33454
L18356 33511
L18324 33540
L18263 33568
L18063 33568
" />
<path d="M18931 33482
L18881 33882
" />
<path d="M18674 33482
L18635 33797
L18656 33854
L18710 33882
L18795 33882
L18856 33854
L18888 33825
" />
<path d="M19424 33882
L19499 33282
" />
<path d="M19427 33854
L19367 33882
L19252 33882
L19199 33854
L19174 33825
L19152 33768
L19174 33597
L19210 33540
L19242 33511
L19302 33482
L19417 33482
L19470 33511
" />
<path d="M19967 33882
L20042 33282
" />
<path d="M19970 33854
L19910 33882
L19795 33882
L19742 33854
L19717 33825
L19695 33768
L19717 33597
L19752 33540
L19785 33511
L19845 33482
L19960 33482
L20013 33511
" />
<path d="M20252 33882
L20302 33482
" />
<path d="M20327 33282
L20295 33311
L20320 33340
L20352 33311
L20327 33282
L20320 33340
" />
<path d="M20770 33854
L20710 33882
L20595 33882
L20542 33854
L20520 33797
L20549 33568
L20584 33511
L20645 33482
L20760 33482
L20813 33511
L20835 33568
L20827 33625
L20535 33682
" />
<path d="M21027 33854
L21081 33882
L21195 33882
L21256 33854
L21292 33797
L21295 33768
L21274 33711
L21220 33682
L21135 33682
L21081 33654
L21060 33597
L21063 33568
L21099 33511
L21160 33482
L21245 33482
L21299 33511
" />
<path d="M21785 33282
L21731 33711
L21692 33797
L21627 33854
L21538 33882
L21481 33882
" />
<path d="M22227 33854
L22167 33882
L22052 33882
L21999 33854
L21977 33797
L22006 33568
L22042 33511
L22102 33482
L22217 33482
L22270 33511
L22292 33568
L22285 33625
L21992 33682
" />
<path d="M22502 33482
L22567 33882
L22717 33597
L22795 33882
L22960 33482
" />
<path d="M23370 33854
L23310 33882
L23195 33882
L23142 33854
L23120 33797
L23149 33568
L23184 33511
L23245 33482
L23360 33482
L23413 33511
L23435 33568
L23427 33625
L23135 33682
" />
<path d="M23738 33882
L23685 33854
L23663 33797
L23727 33282
" />
<path d="M12702 31168
L12502 31168
" />
<path d="M12502 31482
L12502 30882
L12788 30882
" />
<path d="M13017 31482
L13017 31082
" />
<path d="M13017 30882
L12988 30911
L13017 30940
L13045 30911
L13017 30882
L13017 30940
" />
<path d="M13388 31482
L13331 31454
L13302 31397
L13302 30882
" />
<path d="M13845 31454
L13788 31482
L13674 31482
L13617 31454
L13588 31397
L13588 31168
L13617 31111
L13674 31082
L13788 31082
L13845 31111
L13874 31168
L13874 31225
L13588 31282
" />
<path d="M14131 31425
L14160 31454
L14131 31482
L14102 31454
L14131 31425
L14131 31482
" />
<path d="M14131 31111
L14160 31140
L14131 31168
L14102 31140
L14131 31111
L14131 31168
" />
<path d="M15074 31168
L15160 31197
L15188 31225
L15217 31282
L15217 31368
L15188 31425
L15160 31454
L15102 31482
L14874 31482
L14874 30882
L15074 30882
L15131 30911
L15160 30940
L15188 30997
L15188 31054
L15160 31111
L15131 31140
L15074 31168
L14874 31168
" />
<path d="M15731 31082
L15731 31482
" />
<path d="M15474 31082
L15474 31397
L15502 31454
L15560 31482
L15645 31482
L15702 31454
L15731 31425
" />
<path d="M16274 31482
L16274 30882
" />
<path d="M16274 31454
L16217 31482
L16102 31482
L16045 31454
L16017 31425
L15988 31368
L15988 31197
L16017 31140
L16045 31111
L16102 31082
L16217 31082
L16274 31111
" />
<path d="M16817 31482
L16817 30882
" />
<path d="M16817 31454
L16760 31482
L16645 31482
L16588 31454
L16560 31425
L16531 31368
L16531 31197
L16560 31140
L16588 31111
L16645 31082
L16760 31082
L16817 31111
" />
<path d="M17102 31482
L17102 31082
" />
<path d="M17102 30882
L17074 30911
L17102 30940
L17131 30911
L17102 30882
L17102 30940
" />
<path d="M17617 31454
L17560 31482
L17445 31482
L17388 31454
L17360 31397
L17360 31168
L17388 31111
L17445 31082
L17560 31082
L17617 31111
L17645 31168
L17645 31225
L17360 31282
" />
<path d="M17874 31454
L17931 31482
L18045 31482
L18102 31454
L18131 31397
L18131 31368
L18102 31311
L18045 31282
L17960 31282
L17902 31254
L17874 31197
L17874 31168
L17902 31111
L17960 31082
L18045 31082
L18102 31111
" />
<path d="M18560 30882
L18560 31311
L18531 31397
L18474 31454
L18388 31482
L18331 31482
" />
<path d="M19074 31454
L19017 31482
L18902 31482
L18845 31454
L18817 31397
L18817 31168
L18845 31111
L18902 31082
L19017 31082
L19074 31111
L19102 31168
L19102 31225
L18817 31282
" />
<path d="M19302 31082
L19417 31482
L19531 31197
L19645 31482
L19760 31082
" />
<path d="M20217 31454
L20160 31482
L20045 31482
L19988 31454
L19960 31397
L19960 31168
L19988 31111
L20045 31082
L20160 31082
L20217 31111
L20245 31168
L20245 31225
L19960 31282
" />
<path d="M20588 31482
L20531 31454
L20502 31397
L20502 30882
" />
<path d="M20817 31425
L20845 31454
L20817 31482
L20788 31454
L20817 31425
L20817 31482
" />
<path d="M21102 31482
L21102 30882
" />
<path d="M21160 31254
L21331 31482
" />
<path d="M21331 31082
L21102 31311
" />
<path d="M21588 31482
L21588 31082
" />
<path d="M21588 30882
L21560 30911
L21588 30940
L21617 30911
L21588 30882
L21588 30940
" />
<path d="M22131 31454
L22074 31482
L21959 31482
L21902 31454
L21874 31425
L21845 31368
L21845 31197
L21874 31140
L21902 31111
L21959 31082
L22074 31082
L22131 31111
" />
<path d="M22645 31482
L22645 31168
L22617 31111
L22560 31082
L22445 31082
L22388 31111
" />
<path d="M22645 31454
L22588 31482
L22445 31482
L22388 31454
L22360 31397
L22360 31340
L22388 31282
L22445 31254
L22588 31254
L22645 31225
" />
<path d="M23188 31482
L23188 30882
" />
<path d="M23188 31454
L23131 31482
L23017 31482
L22960 31454
L22931 31425
L22902 31368
L22902 31197
L22931 31140
L22960 31111
L23017 31082
L23131 31082
L23188 31111
" />
<path d="M23331 31540
L23788 31540
" />
<path d="M23931 31082
L23931 31682
" />
<path d="M23931 31111
L23988 31082
L24102 31082
L24160 31111
L24188 31140
L24217 31197
L24217 31368
L24188 31425
L24160 31454
L24102 31482
L23988 31482
L23931 31454
" />
<path d="M24731 31454
L24674 31482
L24559 31482
L24502 31454
L24474 31425
L24445 31368
L24445 31197
L24474 31140
L24502 31111
L24559 31082
L24674 31082
L24731 31111
" />
<path d="M24988 31482
L24988 30882
" />
<path d="M24988 31111
L25045 31082
L25160 31082
L25217 31111
L25245 31140
L25274 31197
L25274 31368
L25245 31425
L25217 31454
L25160 31482
L25045 31482
L24988 31454
" />
<path d="M12474 32654
L12560 32682
L12702 32682
L12760 32654
L12788 32625
L12817 32568
L12817 32511
L12788 32454
L12760 32425
L12702 32397
L12588 32368
L12531 32340
L12502 32311
L12474 32254
L12474 32197
L12502 32140
L12531 32111
L12588 32082
L12731 32082
L12817 32111
" />
<path d="M13074 32682
L13074 32082
" />
<path d="M13331 32682
L13331 32368
L13302 32311
L13245 32282
L13160 32282
L13102 32311
L13074 32340
" />
<path d="M13845 32654
L13788 32682
L13674 32682
L13617 32654
L13588 32597
L13588 32368
L13617 32311
L13674 32282
L13788 32282
L13845 32311
L13874 32368
L13874 32425
L13588 32482
" />
<path d="M14360 32654
L14302 32682
L14188 32682
L14131 32654
L14102 32597
L14102 32368
L14131 32311
L14188 32282
L14302 32282
L14360 32311
L14388 32368
L14388 32425
L14102 32482
" />
<path d="M14560 32282
L14788 32282
" />
<path d="M14645 32082
L14645 32597
L14674 32654
L14731 32682
L14788 32682
" />
<path d="M14988 32625
L15017 32654
L14988 32682
L14960 32654
L14988 32625
L14988 32682
" />
<path d="M14988 32311
L15017 32340
L14988 32368
L14960 32340
L14988 32311
L14988 32368
" />
<path d="M12749 29968
L12831 29997
L12856 30025
L12877 30082
L12867 30168
L12831 30225
L12799 30254
L12738 30282
L12510 30282
L12585 29682
L12785 29682
L12838 29711
L12863 29740
L12885 29797
L12877 29854
L12842 29911
L12810 29940
L12749 29968
L12549 29968
" />
<path d="M13417 29882
L13367 30282
" />
<path d="M13160 29882
L13120 30197
L13142 30254
L13195 30282
L13281 30282
L13342 30254
L13374 30225
" />
<path d="M13910 30282
L13985 29682
" />
<path d="M13913 30254
L13852 30282
L13738 30282
L13685 30254
L13660 30225
L13638 30168
L13660 29997
L13695 29940
L13727 29911
L13788 29882
L13902 29882
L13956 29911
" />
<path d="M14452 30282
L14527 29682
" />
<path d="M14456 30254
L14395 30282
L14281 30282
L14227 30254
L14202 30225
L14181 30168
L14202 29997
L14238 29940
L14270 29911
L14331 29882
L14445 29882
L14499 29911
" />
<path d="M14738 30282
L14788 29882
" />
<path d="M14813 29682
L14781 29711
L14806 29740
L14838 29711
L14813 29682
L14806 29740
" />
<path d="M15256 30254
L15195 30282
L15081 30282
L15027 30254
L15006 30197
L15035 29968
L15070 29911
L15131 29882
L15245 29882
L15299 29911
L15320 29968
L15313 30025
L15020 30082
" />
<path d="M15513 30254
L15567 30282
L15681 30282
L15742 30254
L15777 30197
L15781 30168
L15759 30111
L15706 30082
L15620 30082
L15567 30054
L15545 29997
L15549 29968
L15584 29911
L15645 29882
L15731 29882
L15784 29911
" />
<path d="M16024 30282
L16099 29682
L16327 29682
L16381 29711
L16406 29740
L16427 29797
L16417 29882
L16381 29940
L16349 29968
L16288 29997
L16059 29997
" />
<path d="M16624 30282
L16674 29882
" />
<path d="M16659 29997
L16695 29940
L16727 29911
L16788 29882
L16845 29882
" />
<path d="M17081 30282
L17027 30254
L17002 30225
L16981 30168
L17002 29997
L17038 29940
L17070 29911
L17131 29882
L17217 29882
L17270 29911
L17295 29940
L17317 29997
L17295 30168
L17260 30225
L17227 30254
L17167 30282
L17081 30282
" />
<path d="M17588 29882
L17524 30397
L17488 30454
L17427 30482
L17399 30482
" />
<path d="M17613 29682
L17581 29711
L17606 29740
L17638 29711
L17613 29682
L17606 29740
" />
<path d="M18056 30254
L17995 30282
L17881 30282
L17827 30254
L17806 30197
L17835 29968
L17870 29911
L17931 29882
L18045 29882
L18099 29911
L18120 29968
L18113 30025
L17820 30082
" />
<path d="M18599 30254
L18538 30282
L18424 30282
L18370 30254
L18345 30225
L18324 30168
L18345 29997
L18381 29940
L18413 29911
L18474 29882
L18588 29882
L18642 29911
" />
<path d="M18817 29882
L19045 29882
" />
<path d="M18927 29682
L18863 30197
L18885 30254
L18938 30282
L18995 30282
" />
<path d="M19170 30254
L19224 30282
L19338 30282
L19399 30254
L19435 30197
L19438 30168
L19417 30111
L19363 30082
L19277 30082
L19224 30054
L19202 29997
L19206 29968
L19242 29911
L19302 29882
L19388 29882
L19442 29911
" />
<path d="M11760 29440
L11760 36640
" />
<path d="M11760 30640
L53760 30640
" />
<path d="M11760 29440
L53760 29440
" />
<path d="M11760 33040
L53760 33040
" />
<path d="M44960 34240
L44960 36640
" />
<path d="M11760 35440
L53760 35440
" />
<path d="M11760 34240
L53760 34240
" />
<path d="M18360 34240
L18360 35440
" />
</g>
<g style="fill:#BFBFBF; fill-opacity:0.0; 
stroke:#BFBFBF; stroke-width:118.11; stroke-opacity:1; 
stroke-linecap:round; stroke-linejoin:round;">
<path d="M23523 27837
L23523 28231
" />
<path d="M23383 27612
L23242 28034
L23607 28034
" />
<path d="M24142 28231
L23804 28231
" />
<path d="M23973 28231
L23973 27640
L23917 27724
L23861 27781
L23804 27809
" />
<path d="M24423 28203
L24423 28231
L24395 28287
L24367 28315
" />
<path d="M24957 27640
L24676 27640
L24648 27921
L24676 27893
L24732 27865
L24873 27865
L24929 27893
L24957 27921
L24985 27978
L24985 28118
L24957 28174
L24929 28203
L24873 28231
L24732 28231
L24676 28203
L24648 28174
" />
<path d="M25351 27640
L25407 27640
L25464 27668
L25492 27696
L25520 27753
L25548 27865
L25548 28006
L25520 28118
L25492 28174
L25464 28203
L25407 28231
L25351 28231
L25295 28203
L25267 28174
L25239 28118
L25210 28006
L25210 27865
L25239 27753
L25267 27696
L25295 27668
L25351 27640
" />
<path d="M25913 27640
L25970 27640
L26026 27668
L26054 27696
L26082 27753
L26110 27865
L26110 28006
L26082 28118
L26054 28174
L26026 28203
L25970 28231
L25913 28231
L25857 28203
L25829 28174
L25801 28118
L25773 28006
L25773 27865
L25801 27753
L25829 27696
L25857 27668
L25913 27640
" />
<path d="M26813 28231
L26813 27837
" />
<path d="M26813 27893
L26841 27865
L26898 27837
L26982 27837
L27038 27865
L27066 27921
L27066 28231
" />
<path d="M27066 27921
L27095 27865
L27151 27837
L27235 27837
L27291 27865
L27320 27921
L27320 28231
" />
<path d="M27601 28231
L27601 27837
" />
<path d="M27601 27893
L27629 27865
L27685 27837
L27769 27837
L27826 27865
L27854 27921
L27854 28231
" />
<path d="M27854 27921
L27882 27865
L27938 27837
L28023 27837
L28079 27865
L28107 27921
L28107 28231
" />
<path d="M17519 27460
L33858 27460
" />
<path d="M17519 25885
L17519 28523
" />
<path d="M33858 25885
L33858 28523
" />
<path d="M33858 27460
L33414 27691
" />
<path d="M33858 27460
L33414 27229
" />
<path d="M17519 27460
L17963 27691
" />
<path d="M17519 27460
L17963 27229
" />
<path d="M15061 19881
L15455 19881
" />
<path d="M14836 20022
L15258 20163
L15258 19797
" />
<path d="M15455 19263
L15455 19600
" />
<path d="M15455 19431
L14865 19431
L14949 19488
L15005 19544
L15033 19600
" />
<path d="M15427 18982
L15455 18982
L15511 19010
L15539 19038
" />
<path d="M14865 18447
L14865 18728
L15146 18757
L15118 18728
L15089 18672
L15089 18532
L15118 18475
L15146 18447
L15202 18419
L15343 18419
L15399 18447
L15427 18475
L15455 18532
L15455 18672
L15427 18728
L15399 18757
" />
<path d="M14865 18053
L14865 17997
L14893 17941
L14921 17913
L14977 17885
L15089 17857
L15230 17857
L15343 17885
L15399 17913
L15427 17941
L15455 17997
L15455 18053
L15427 18110
L15399 18138
L15343 18166
L15230 18194
L15089 18194
L14977 18166
L14921 18138
L14893 18110
L14865 18053
" />
<path d="M14865 17491
L14865 17435
L14893 17379
L14921 17350
L14977 17322
L15089 17294
L15230 17294
L15343 17322
L15399 17350
L15427 17379
L15455 17435
L15455 17491
L15427 17547
L15399 17575
L15343 17604
L15230 17632
L15089 17632
L14977 17604
L14921 17575
L14893 17547
L14865 17491
" />
<path d="M15455 16591
L15061 16591
" />
<path d="M15118 16591
L15089 16563
L15061 16507
L15061 16422
L15089 16366
L15146 16338
L15455 16338
" />
<path d="M15146 16338
L15089 16310
L15061 16254
L15061 16169
L15089 16113
L15146 16085
L15455 16085
" />
<path d="M15455 15804
L15061 15804
" />
<path d="M15118 15804
L15089 15776
L15061 15719
L15061 15635
L15089 15579
L15146 15551
L15455 15551
" />
<path d="M15146 15551
L15089 15523
L15061 15466
L15061 15382
L15089 15326
L15146 15298
L15455 15298
" />
<path d="M15748 25885
L15748 9547
" />
<path d="M17519 25885
L14685 25885
" />
<path d="M17519 9547
L14685 9547
" />
<path d="M15748 9547
L15978 9990
" />
<path d="M15748 9547
L15517 9990
" />
<path d="M15748 25885
L15978 25442
" />
<path d="M15748 25885
L15517 25442
" />
</g>
<g style="fill:#FFFF00; fill-opacity:0.0; 
stroke:#FFFF00; stroke-width:39.3701; stroke-opacity:1; 
stroke-linecap:round; stroke-linejoin:round;">
<path d="M33858 25885
L33858 9547
" />
</g>
<g style="fill:#9F0000; fill-opacity:0.0; 
stroke:#9F0000; stroke-width:78.7402; stroke-opacity:1; 
stroke-linecap:round; stroke-linejoin:round;">
<path d="M31300 22867
L31375 23077
L31450 22867
" />
<path d="M31735 23077
L31555 23077
" />
<path d="M31645 23077
L31645 22762
L31615 22807
L31585 22837
L31555 22852
" />
<path d="M31869 23047
L31884 23062
L31869 23077
L31854 23062
L31869 23047
L31869 23077
" />
<path d="M32154 22867
L32154 23077
" />
<path d="M32079 22747
L32004 22972
L32199 22972
" />
</g>
<g style="fill:#9F0000; fill-opacity:0.0; 
stroke:#9F0000; stroke-width:147.638; stroke-opacity:1; 
stroke-linecap:round; stroke-linejoin:round;">
<path d="M31617 22329
L31701 22357
L31729 22385
L31757 22442
L31757 22526
L31729 22582
L31701 22610
L31645 22639
L31420 22639
L31420 22048
L31617 22048
L31673 22076
L31701 22104
L31729 22160
L31729 22217
L31701 22273
L31673 22301
L31617 22329
L31420 22329
" />
<path d="M32179 22048
L32179 22470
L32151 22554
L32095 22610
L32010 22639
L31954 22639
" />
</g>
<g style="fill:#FFFF00; fill-opacity:0.0; 
stroke:#FFFF00; stroke-width:39.3701; stroke-opacity:1; 
stroke-linecap:round; stroke-linejoin:round;">
<path d="M33858 9547
L17519 9547
" />
<path d="M17519 25885
L33858 25885
" />
<path d="M17519 9547
L17519 25885
" />
</g>
<g style="fill:#BFBFBF; fill-opacity:0.0; 
stroke:#BFBFBF; stroke-width:118.11; stroke-opacity:1; 
stroke-linecap:round; stroke-linejoin:round;">
<path d="M36512 15438
L36512 15804
L36287 15607
L36287 15691
L36259 15748
L36231 15776
L36175 15804
L36034 15804
L35978 15776
L35950 15748
L35922 15691
L35922 15523
L35950 15466
L35978 15438
" />
<path d="M36456 16029
L36484 16057
L36512 16113
L36512 16254
L36484 16310
L36456 16338
L36400 16366
L36344 16366
L36259 16338
L35922 16001
L35922 16366
" />
<path d="M35950 16647
L35922 16647
L35866 16619
L35838 16591
" />
<path d="M36512 17013
L36512 17069
L36484 17125
L36456 17154
L36400 17182
L36287 17210
L36147 17210
L36034 17182
L35978 17154
L35950 17125
L35922 17069
L35922 17013
L35950 16957
L35978 16929
L36034 16901
L36147 16872
L36287 16872
L36400 16901
L36456 16929
L36484 16957
L36512 17013
" />
<path d="M36512 17575
L36512 17632
L36484 17688
L36456 17716
L36400 17744
L36287 17772
L36147 17772
L36034 17744
L35978 17716
L35950 17688
L35922 17632
L35922 17575
L35950 17519
L35978 17491
L36034 17463
L36147 17435
L36287 17435
L36400 17463
L36456 17491
L36484 17519
L36512 17575
" />
<path d="M36512 18138
L36512 18194
L36484 18250
L36456 18278
L36400 18307
L36287 18335
L36147 18335
L36034 18307
L35978 18278
L35950 18250
L35922 18194
L35922 18138
L35950 18082
L35978 18053
L36034 18025
L36147 17997
L36287 17997
L36400 18025
L36456 18053
L36484 18082
L36512 18138
" />
<path d="M35922 19038
L36316 19038
" />
<path d="M36259 19038
L36287 19066
L36316 19122
L36316 19206
L36287 19263
L36231 19291
L35922 19291
" />
<path d="M36231 19291
L36287 19319
L36316 19375
L36316 19460
L36287 19516
L36231 19544
L35922 19544
" />
<path d="M35922 19825
L36316 19825
" />
<path d="M36259 19825
L36287 19853
L36316 19910
L36316 19994
L36287 20050
L36231 20078
L35922 20078
" />
<path d="M36231 20078
L36287 20106
L36316 20163
L36316 20247
L36287 20303
L36231 20331
L35922 20331
" />
<path d="M35629 11614
L35629 24212
" />
<path d="M34940 11614
L36692 11614
" />
<path d="M34940 24212
L36692 24212
" />
<path d="M35629 24212
L35399 23769
" />
<path d="M35629 24212
L35860 23769
" />
<path d="M35629 11614
L35399 12057
" />
<path d="M35629 11614
L35860 12057
" />
<path d="M23509 7030
L23875 7030
L23678 7255
L23762 7255
L23818 7283
L23847 7311
L23875 7367
L23875 7508
L23847 7564
L23818 7592
L23762 7620
L23593 7620
L23537 7592
L23509 7564
" />
<path d="M24071 7030
L24437 7030
L24240 7255
L24325 7255
L24381 7283
L24409 7311
L24437 7367
L24437 7508
L24409 7564
L24381 7592
L24325 7620
L24156 7620
L24100 7592
L24071 7564
" />
<path d="M24718 7592
L24718 7620
L24690 7677
L24662 7705
" />
<path d="M24915 7030
L25309 7030
L25056 7620
" />
<path d="M25815 7030
L25534 7030
L25506 7311
L25534 7283
L25590 7255
L25731 7255
L25787 7283
L25815 7311
L25843 7367
L25843 7508
L25815 7564
L25787 7592
L25731 7620
L25590 7620
L25534 7592
L25506 7564
" />
<path d="M26209 7030
L26265 7030
L26321 7058
L26349 7086
L26377 7142
L26406 7255
L26406 7395
L26377 7508
L26349 7564
L26321 7592
L26265 7620
L26209 7620
L26152 7592
L26124 7564
L26096 7508
L26068 7395
L26068 7255
L26096 7142
L26124 7086
L26152 7058
L26209 7030
" />
<path d="M27109 7620
L27109 7227
" />
<path d="M27109 7283
L27137 7255
L27193 7227
L27277 7227
L27334 7255
L27362 7311
L27362 7620
" />
<path d="M27362 7311
L27390 7255
L27446 7227
L27530 7227
L27587 7255
L27615 7311
L27615 7620
" />
<path d="M27896 7620
L27896 7227
" />
<path d="M27896 7283
L27924 7255
L27980 7227
L28065 7227
L28121 7255
L28149 7311
L28149 7620
" />
<path d="M28149 7311
L28177 7255
L28233 7227
L28318 7227
L28374 7255
L28402 7311
L28402 7620
" />
<path d="M19291 8169
L32578 8169
" />
<path d="M19291 8759
L19291 7106
" />
<path d="M32578 8759
L32578 7106
" />
<path d="M32578 8169
L32135 8400
" />
<path d="M32578 8169
L32135 7938
" />
<path d="M19291 8169
L19734 8400
" />
<path d="M19291 8169
L19734 7938
" />
</g>
<g style="fill:#BFBFBF; fill-opacity:0.0; 
stroke:#BFBFBF; stroke-width:78.7402; stroke-opacity:1; 
stroke-linecap:round; stroke-linejoin:round;">
<path d="M19291 11614
L19291 16535
" />
<path d="M32578 11614
L19291 11614
" />
<path d="M32578 24212
L32578 11614
" />
<path d="M19291 24212
L32578 24212
" />
<path d="M19291 16535
L19291 24212
" />
</g>
<g style="fill:#009F00; fill-opacity:0.0; 
stroke:#009F00; stroke-width:118.11; stroke-opacity:1; 
stroke-linecap:round; stroke-linejoin:round;">
<path d="M19829 22213
L19857 22129
L19885 22101
L19942 22073
L20026 22073
L20082 22101
L20110 22129
L20139 22185
L20139 22410
L19548 22410
L19548 22213
L19576 22157
L19604 22129
L19660 22101
L19717 22101
L19773 22129
L19801 22157
L19829 22213
L19829 22410
" />
<path d="M19548 21707
L19548 21595
L19576 21538
L19632 21482
L19745 21454
L19942 21454
L20054 21482
L20110 21538
L20139 21595
L20139 21707
L20110 21763
L20054 21820
L19942 21848
L19745 21848
L19632 21820
L19576 21763
L19548 21707
" />
<path d="M19548 21285
L19548 20948
" />
<path d="M20139 21117
L19548 21117
" />
<path d="M19548 20835
L19548 20498
" />
<path d="M20139 20667
L19548 20667
" />
<path d="M19548 20189
L19548 20076
L19576 20020
L19632 19964
L19745 19936
L19942 19936
L20054 19964
L20110 20020
L20139 20076
L20139 20189
L20110 20245
L20054 20301
L19942 20329
L19745 20329
L19632 20301
L19576 20245
L19548 20189
" />
<path d="M20139 19682
L19548 19682
L19970 19486
L19548 19289
L20139 19289
" />
</g>
<g style="fill:#9F0000; fill-opacity:0.0; 
stroke:#9F0000; stroke-width:118.11; stroke-opacity:1; 
stroke-linecap:round; stroke-linejoin:round;">
<path d="M19098 21723
L19098 21385
" />
<path d="M19689 21554
L19098 21554
" />
<path d="M19098 21076
L19098 20964
L19126 20907
L19182 20851
L19295 20823
L19492 20823
L19604 20851
L19660 20907
L19689 20964
L19689 21076
L19660 21132
L19604 21189
L19492 21217
L19295 21217
L19182 21189
L19126 21132
L19098 21076
" />
<path d="M19689 20570
L19098 20570
L19098 20345
L19126 20289
L19154 20261
L19210 20232
L19295 20232
L19351 20261
L19379 20289
L19407 20345
L19407 20570
" />
</g>
<g style="fill:#FFFF00; fill-opacity:0.0; 
stroke:#FFFF00; stroke-width:39.3701; stroke-opacity:1; 
stroke-linecap:round; stroke-linejoin:round;">
<circle cx="19881.9" cy="23523.6" r="131.233" /> 
<path d="M19685 23523
L20078 23523
" />
<path d="M19881 23326
L19881 23720
" />
<circle cx="31889.8" cy="23523.6" r="131.233" /> 
<path d="M31692 23523
L32086 23523
" />
<path d="M31889 23326
L31889 23720
" />
<circle cx="31889.8" cy="12303.1" r="131.233" /> 
<path d="M31692 12303
L32086 12303
" />
<path d="M31889 12106
L31889 12500
" />
<circle cx="19881.9" cy="12303.1" r="131.233" /> 
<path d="M19685 12303
L20078 12303
" />
<path d="M19881 12106
L19881 12500
" />
</g>
<g style="fill:#009F9F; fill-opacity:0.0; 
stroke:#009F9F; stroke-width:59.0551; stroke-opacity:1; 
stroke-linecap:round; stroke-linejoin:round;">
<path d="M26933 18726
L26933 18431
L27045 18431
L27073 18445
L27088 18459
L27102 18487
L27102 18529
L27088 18557
L27073 18571
L27045 18585
L26933 18585
" />
<path d="M27186 18431
L27355 18431
" />
<path d="M27270 18726
L27270 18431
" />
<path d="M27594 18431
L27453 18431
L27439 18571
L27453 18557
L27481 18543
L27552 18543
L27580 18557
L27594 18571
L27608 18600
L27608 18670
L27594 18698
L27580 18712
L27552 18726
L27481 18726
L27453 18712
L27439 18698
" />
</g>
<g style="fill:#009F9F; fill-opacity:0.0; 
stroke:#009F9F; stroke-width:39.3701; stroke-opacity:1; 
stroke-linecap:round; stroke-linejoin:round;">
<path d="M27137 18186
L27137 17989
L27212 17989
L27230 17999
L27240 18008
L27249 18027
L27249 18055
L27240 18074
L27230 18083
L27212 18093
L27137 18093
" />
<path d="M27305 17989
L27418 17989
" />
<path d="M27362 18186
L27362 17989
" />
</g>
<g style="fill:#009F9F; fill-opacity:0.0; 
stroke:#009F9F; stroke-width:59.0551; stroke-opacity:1; 
stroke-linecap:round; stroke-linejoin:round;">
<path d="M25358 24189
L25358 23894
L25471 23894
L25499 23908
L25513 23922
L25527 23950
L25527 23993
L25513 24021
L25499 24035
L25471 24049
L25358 24049
" />
<path d="M25611 23894
L25780 23894
" />
<path d="M25696 24189
L25696 23894
" />
<path d="M26005 23894
L25949 23894
L25920 23908
L25906 23922
L25878 23965
L25864 24021
L25864 24133
L25878 24161
L25892 24175
L25920 24189
L25977 24189
L26005 24175
L26019 24161
L26033 24133
L26033 24063
L26019 24035
L26005 24021
L25977 24007
L25920 24007
L25892 24021
L25878 24035
L25864 24063
" />
</g>
<g style="fill:#009F9F; fill-opacity:0.0; 
stroke:#009F9F; stroke-width:39.3701; stroke-opacity:1; 
stroke-linecap:round; stroke-linejoin:round;">
<path d="M25562 23600
L25562 23403
L25637 23403
L25656 23412
L25665 23422
L25674 23440
L25674 23468
L25665 23487
L25656 23497
L25637 23506
L25562 23506
" />
<path d="M25731 23403
L25843 23403
" />
<path d="M25787 23600
L25787 23403
" />
</g>
<g style="fill:#009F9F; fill-opacity:0.0; 
stroke:#009F9F; stroke-width:59.0551; stroke-opacity:1; 
stroke-linecap:round; stroke-linejoin:round;">
<path d="M30491 22108
L30505 22122
L30519 22164
L30519 22192
L30505 22235
L30477 22263
L30449 22277
L30392 22291
L30350 22291
L30294 22277
L30266 22263
L30238 22235
L30224 22192
L30224 22164
L30238 22122
L30252 22108
" />
<path d="M30224 21925
L30224 21869
L30238 21841
L30266 21813
L30322 21799
L30421 21799
L30477 21813
L30505 21841
L30519 21869
L30519 21925
L30505 21953
L30477 21982
L30421 21996
L30322 21996
L30266 21982
L30238 21953
L30224 21925
" />
<path d="M30519 21672
L30224 21672
L30519 21503
L30224 21503
" />
<path d="M30224 21391
L30224 21208
L30336 21307
L30336 21264
L30350 21236
L30364 21222
L30392 21208
L30463 21208
L30491 21222
L30505 21236
L30519 21264
L30519 21349
L30505 21377
L30491 21391
" />
</g>
<g style="fill:#009F9F; fill-opacity:0.0; 
stroke:#009F9F; stroke-width:73.8189; stroke-opacity:1; 
stroke-linecap:round; stroke-linejoin:round;">
<path d="M21441 17414
L21427 17428
L21385 17442
L21357 17442
L21314 17428
L21286 17400
L21272 17372
L21258 17316
L21258 17274
L21272 17217
L21286 17189
L21314 17161
L21357 17147
L21385 17147
L21427 17161
L21441 17175
" />
<path d="M21624 17147
L21680 17147
L21708 17161
L21736 17189
L21750 17245
L21750 17344
L21736 17400
L21708 17428
L21680 17442
L21624 17442
L21596 17428
L21567 17400
L21553 17344
L21553 17245
L21567 17189
L21596 17161
L21624 17147
" />
<path d="M21877 17442
L21877 17147
L22046 17442
L22046 17147
" />
<path d="M22172 17175
L22186 17161
L22214 17147
L22285 17147
L22313 17161
L22327 17175
L22341 17203
L22341 17231
L22327 17274
L22158 17442
L22341 17442
" />
<path d="M23341 22008
L23355 22022
L23369 22064
L23369 22092
L23355 22135
L23327 22163
L23299 22177
L23242 22191
L23200 22191
L23144 22177
L23116 22163
L23088 22135
L23074 22092
L23074 22064
L23088 22022
L23102 22008
" />
<path d="M23074 21825
L23074 21769
L23088 21741
L23116 21713
L23172 21699
L23271 21699
L23327 21713
L23355 21741
L23369 21769
L23369 21825
L23355 21853
L23327 21882
L23271 21896
L23172 21896
L23116 21882
L23088 21853
L23074 21825
" />
<path d="M23369 21572
L23074 21572
L23369 21403
L23074 21403
" />
<path d="M23369 21108
L23369 21277
" />
<path d="M23369 21193
L23074 21193
L23116 21221
L23144 21249
L23158 21277
" />
</g>
<g style="fill:#009F9F; fill-opacity:0.0; 
stroke:#009F9F; stroke-width:59.0551; stroke-opacity:1; 
stroke-linecap:round; stroke-linejoin:round;">
<path d="M29319 18241
L29024 18241
L29024 18128
L29038 18100
L29052 18086
L29080 18072
L29122 18072
L29150 18086
L29164 18100
L29178 18128
L29178 18241
" />
<path d="M29319 17791
L29319 17959
" />
<path d="M29319 17875
L29024 17875
L29066 17903
L29094 17931
L29108 17959
" />
</g>
<g style="fill:#009F9F; fill-opacity:0.0; 
stroke:#009F9F; stroke-width:39.3701; stroke-opacity:1; 
stroke-linecap:round; stroke-linejoin:round;">
<path d="M29371 17558
L29511 17558
" />
<path d="M29343 17642
L29441 17347
L29539 17642
" />
<path d="M29778 17642
L29638 17642
L29638 17347
" />
<path d="M29877 17642
L29877 17347
" />
<path d="M30017 17642
L30017 17347
L30116 17558
L30214 17347
L30214 17642
" />
</g>
<g style="fill:#009F9F; fill-opacity:0.0; 
stroke:#009F9F; stroke-width:112.5; stroke-opacity:1; 
stroke-linecap:round; stroke-linejoin:round;">
<path d="M25016 17810
L25016 18377
L25038 18444
L25059 18477
L25102 18510
L25188 18510
L25230 18477
L25252 18444
L25273 18377
L25273 17810
" />
<path d="M25445 17810
L25723 17810
L25573 18077
L25638 18077
L25680 18110
L25702 18144
L25723 18210
L25723 18377
L25702 18444
L25680 18477
L25638 18510
L25509 18510
L25466 18477
L25445 18444
" />
</g>
<g style="fill:#009F9F; fill-opacity:0.0; 
stroke:#009F9F; stroke-width:39.3701; stroke-opacity:1; 
stroke-linecap:round; stroke-linejoin:round;">
<path d="M24856 17410
L24903 17607
L24940 17466
L24978 17607
L25025 17410
" />
<path d="M25090 17597
L25118 17607
L25165 17607
L25184 17597
L25193 17588
L25203 17569
L25203 17550
L25193 17532
L25184 17522
L25165 17513
L25128 17504
L25109 17494
L25100 17485
L25090 17466
L25090 17447
L25100 17429
L25109 17419
L25128 17410
L25175 17410
L25203 17419
" />
<path d="M25278 17429
L25287 17419
L25306 17410
L25353 17410
L25371 17419
L25381 17429
L25390 17447
L25390 17466
L25381 17494
L25268 17607
L25390 17607
" />
<path d="M25503 17494
L25484 17485
L25475 17476
L25465 17457
L25465 17447
L25475 17429
L25484 17419
L25503 17410
L25540 17410
L25559 17419
L25568 17429
L25578 17447
L25578 17457
L25568 17476
L25559 17485
L25540 17494
L25503 17494
L25484 17504
L25475 17513
L25465 17532
L25465 17569
L25475 17588
L25484 17597
L25503 17607
L25540 17607
L25559 17597
L25568 17588
L25578 17569
L25578 17532
L25568 17513
L25559 17504
L25540 17494
" />
<path d="M25765 17607
L25653 17607
" />
<path d="M25709 17607
L25709 17410
L25690 17438
L25671 17457
L25653 17466
" />
<path d="M25840 17429
L25850 17419
L25868 17410
L25915 17410
L25934 17419
L25943 17429
L25953 17447
L25953 17466
L25943 17494
L25831 17607
L25953 17607
" />
</g>
<g style="fill:#009F9F; fill-opacity:0.0; 
stroke:#009F9F; stroke-width:59.0551; stroke-opacity:1; 
stroke-linecap:round; stroke-linejoin:round;">
<path d="M31069 19719
L31069 19424
L31182 19424
L31210 19438
L31224 19452
L31238 19480
L31238 19522
L31224 19550
L31210 19564
L31182 19578
L31069 19578
" />
<path d="M31322 19424
L31491 19424
" />
<path d="M31407 19719
L31407 19424
" />
<path d="M31716 19522
L31716 19719
" />
<path d="M31646 19410
L31575 19621
L31758 19621
" />
</g>
<g style="fill:#009F9F; fill-opacity:0.0; 
stroke:#009F9F; stroke-width:39.3701; stroke-opacity:1; 
stroke-linecap:round; stroke-linejoin:round;">
<path d="M31273 18729
L31273 18532
L31348 18532
L31367 18542
L31376 18551
L31385 18570
L31385 18598
L31376 18617
L31367 18626
L31348 18635
L31273 18635
" />
<path d="M31442 18532
L31554 18532
" />
<path d="M31498 18729
L31498 18532
" />
</g>
<g style="fill:#009F9F; fill-opacity:0.0; 
stroke:#009F9F; stroke-width:59.0551; stroke-opacity:1; 
stroke-linecap:round; stroke-linejoin:round;">
<path d="M29969 19669
L29969 19374
L30082 19374
L30110 19388
L30124 19402
L30138 19430
L30138 19472
L30124 19500
L30110 19514
L30082 19528
L29969 19528
" />
<path d="M30222 19374
L30391 19374
" />
<path d="M30307 19669
L30307 19374
" />
<path d="M30461 19374
L30644 19374
L30546 19486
L30588 19486
L30616 19500
L30630 19514
L30644 19542
L30644 19613
L30630 19641
L30616 19655
L30588 19669
L30503 19669
L30475 19655
L30461 19641
" />
</g>
<g style="fill:#009F9F; fill-opacity:0.0; 
stroke:#009F9F; stroke-width:39.3701; stroke-opacity:1; 
stroke-linecap:round; stroke-linejoin:round;">
<path d="M30173 18729
L30173 18532
L30248 18532
L30267 18542
L30276 18551
L30285 18570
L30285 18598
L30276 18617
L30267 18626
L30248 18635
L30173 18635
" />
<path d="M30342 18532
L30454 18532
" />
<path d="M30398 18729
L30398 18532
" />
</g>
<g style="fill:#009F9F; fill-opacity:0.0; 
stroke:#009F9F; stroke-width:112.5; stroke-opacity:1; 
stroke-linecap:round; stroke-linejoin:round;">
<path d="M25557 13306
L25557 13873
L25578 13939
L25600 13973
L25642 14006
L25728 14006
L25771 13973
L25792 13939
L25814 13873
L25814 13306
" />
<path d="M26007 13373
L26028 13339
L26071 13306
L26178 13306
L26221 13339
L26242 13373
L26264 13439
L26264 13506
L26242 13606
L25985 14006
L26264 14006
" />
</g>
<g style="fill:#009F9F; fill-opacity:0.0; 
stroke:#009F9F; stroke-width:39.3701; stroke-opacity:1; 
stroke-linecap:round; stroke-linejoin:round;">
<path d="M26782 14052
L26717 13959
" />
<path d="M26670 14052
L26670 13856
L26745 13856
L26764 13865
L26773 13874
L26782 13893
L26782 13921
L26773 13940
L26764 13949
L26745 13959
L26670 13959
" />
<path d="M26932 13949
L26867 13949
" />
<path d="M26867 14052
L26867 13856
L26961 13856
" />
<path d="M27120 13921
L27120 14052
" />
<path d="M27073 13846
L27026 13987
L27148 13987
" />
<path d="M27204 13856
L27326 13856
L27260 13931
L27289 13931
L27307 13940
L27317 13949
L27326 13968
L27326 14015
L27317 14034
L27307 14043
L27289 14052
L27232 14052
L27214 14043
L27204 14034
" />
<path d="M27448 13856
L27467 13856
L27485 13865
L27495 13874
L27504 13893
L27514 13931
L27514 13977
L27504 14015
L27495 14034
L27485 14043
L27467 14052
L27448 14052
L27429 14043
L27420 14034
L27410 14015
L27401 13977
L27401 13931
L27410 13893
L27420 13874
L27429 13865
L27448 13856
" />
<path d="M27710 14034
L27701 14043
L27673 14052
L27654 14052
L27626 14043
L27607 14024
L27598 14006
L27589 13968
L27589 13940
L27598 13902
L27607 13884
L27626 13865
L27654 13856
L27673 13856
L27701 13865
L27710 13874
" />
<path d="M27889 14052
L27795 14052
L27795 13856
" />
<path d="M27935 13856
L28057 13856
L27992 13931
L28020 13931
L28039 13940
L28048 13949
L28057 13968
L28057 14015
L28048 14034
L28039 14043
L28020 14052
L27964 14052
L27945 14043
L27935 14034
" />
<path d="M28123 13856
L28245 13856
L28179 13931
L28207 13931
L28226 13940
L28235 13949
L28245 13968
L28245 14015
L28235 14034
L28226 14043
L28207 14052
L28151 14052
L28132 14043
L28123 14034
" />
<path d="M28367 13856
L28385 13856
L28404 13865
L28413 13874
L28423 13893
L28432 13931
L28432 13977
L28423 14015
L28413 14034
L28404 14043
L28385 14052
L28367 14052
L28348 14043
L28338 14034
L28329 14015
L28320 13977
L28320 13931
L28329 13893
L28338 13874
L28348 13865
L28367 13856
" />
<path d="M28517 14052
L28517 13856
" />
<path d="M28517 13949
L28629 13949
" />
<path d="M28629 14052
L28629 13856
" />
</g>
<g style="fill:#009F9F; fill-opacity:0.0; 
stroke:#009F9F; stroke-width:120; stroke-opacity:1; 
stroke-linecap:round; stroke-linejoin:round;">
</g>
<g style="fill:#009F9F; fill-opacity:0.0; 
stroke:#009F9F; stroke-width:112.5; stroke-opacity:1; 
stroke-linecap:round; stroke-linejoin:round;">
<path d="M25107 20506
L25107 21073
L25128 21139
L25150 21173
L25192 21206
L25278 21206
L25321 21173
L25342 21139
L25364 21073
L25364 20506
" />
<path d="M25814 21206
L25557 21206
" />
<path d="M25685 21206
L25685 20506
L25642 20606
L25600 20673
L25557 20706
" />
</g>
<g style="fill:#009F9F; fill-opacity:0.0; 
stroke:#009F9F; stroke-width:120; stroke-opacity:1; 
stroke-linecap:round; stroke-linejoin:round;">
</g>
<g style="fill:#009F9F; fill-opacity:0.0; 
stroke:#009F9F; stroke-width:49.2126; stroke-opacity:1; 
stroke-linecap:round; stroke-linejoin:round;">
<path d="M26061 21196
L26154 21196
" />
<path d="M26042 21252
L26107 21056
L26173 21252
" />
<path d="M26211 21056
L26323 21056
" />
<path d="M26267 21252
L26267 21056
" />
<path d="M26361 21056
L26473 21056
" />
<path d="M26417 21252
L26417 21056
" />
<path d="M26539 21252
L26539 21056
" />
<path d="M26632 21252
L26632 21056
L26745 21252
L26745 21056
" />
<path d="M26876 21159
L26876 21252
" />
<path d="M26810 21056
L26876 21159
L26942 21056
" />
<path d="M26998 21074
L27007 21065
L27026 21056
L27073 21056
L27092 21065
L27101 21074
L27110 21093
L27110 21112
L27101 21140
L26989 21252
L27110 21252
" />
<path d="M27289 21056
L27195 21056
L27185 21149
L27195 21140
L27214 21131
L27260 21131
L27279 21140
L27289 21149
L27298 21168
L27298 21215
L27289 21234
L27279 21243
L27260 21252
L27214 21252
L27195 21243
L27185 21234
" />
<path d="M27382 21177
L27532 21177
" />
<path d="M27626 21252
L27626 21056
L27701 21056
L27720 21065
L27729 21074
L27738 21093
L27738 21121
L27729 21140
L27720 21149
L27701 21159
L27626 21159
" />
</g>
<g style="fill:#009F9F; fill-opacity:0.0; 
stroke:#009F9F; stroke-width:39.3701; stroke-opacity:1; 
stroke-linecap:round; stroke-linejoin:round;">
<path d="M22119 13192
L22119 12897
L22232 12897
L22260 12911
L22274 12925
L22288 12953
L22288 12995
L22274 13024
L22260 13038
L22232 13052
L22119 13052
" />
<path d="M22372 12897
L22541 12897
" />
<path d="M22457 13192
L22457 12897
" />
<path d="M22625 12925
L22639 12911
L22667 12897
L22738 12897
L22766 12911
L22780 12925
L22794 12953
L22794 12981
L22780 13024
L22611 13192
L22794 13192
" />
</g>
<g style="fill:#009F9F; fill-opacity:0.0; 
stroke:#009F9F; stroke-width:49.2126; stroke-opacity:1; 
stroke-linecap:round; stroke-linejoin:round;">
<path d="M22323 12152
L22323 11956
L22398 11956
L22417 11965
L22426 11974
L22435 11993
L22435 12021
L22426 12040
L22417 12049
L22398 12059
L22323 12059
" />
<path d="M22492 11956
L22604 11956
" />
<path d="M22548 12152
L22548 11956
" />
<path d="M21027 13217
L21027 12922
L21140 12922
L21168 12936
L21182 12950
L21196 12978
L21196 13021
L21182 13049
L21168 13063
L21140 13077
L21027 13077
" />
<path d="M21280 12922
L21449 12922
" />
<path d="M21365 13217
L21365 12922
" />
<path d="M21702 13217
L21534 13217
" />
<path d="M21618 13217
L21618 12922
L21590 12964
L21562 12992
L21534 13007
" />
<path d="M21231 12178
L21231 11981
L21306 11981
L21325 11990
L21334 12000
L21344 12018
L21344 12046
L21334 12065
L21325 12074
L21306 12084
L21231 12084
" />
<path d="M21400 11981
L21512 11981
" />
<path d="M21456 12178
L21456 11981
" />
</g>
<g style="fill:#9F009F; fill-opacity:0.0; 
stroke:#9F009F; stroke-width:45; stroke-opacity:1; 
stroke-linecap:round; stroke-linejoin:round;">
<path d="M22569 13939
L22577 13949
L22603 13958
L22620 13958
L22646 13949
L22663 13930
L22672 13911
L22680 13873
L22680 13844
L22672 13806
L22663 13787
L22646 13768
L22620 13758
L22603 13758
L22577 13768
L22569 13777
" />
<path d="M22397 13958
L22500 13958
" />
<path d="M22449 13958
L22449 13758
L22466 13787
L22483 13806
L22500 13816
" />
<path d="M22727 13308
L22830 13308
" />
<path d="M22779 13308
L22779 13108
L22796 13137
L22813 13156
L22830 13166
" />
<path d="M22513 13175
L22513 13375
" />
<path d="M22427 13280
L22419 13299
L22402 13308
" />
<path d="M22513 13280
L22505 13299
L22487 13308
L22453 13308
L22436 13299
L22427 13280
L22427 13175
" />
<path d="M22265 13204
L22325 13204
" />
<path d="M22325 13308
L22325 13108
L22239 13108
" />
<path d="M24045 13939
L24054 13949
L24080 13958
L24097 13958
L24122 13949
L24140 13930
L24148 13911
L24157 13873
L24157 13844
L24148 13806
L24140 13787
L24122 13768
L24097 13758
L24080 13758
L24054 13768
L24045 13777
" />
<path d="M23977 13777
L23968 13768
L23951 13758
L23908 13758
L23891 13768
L23882 13777
L23874 13797
L23874 13816
L23882 13844
L23985 13958
L23874 13958
" />
<path d="M24392 13108
L24375 13108
L24358 13118
L24350 13127
L24341 13147
L24332 13185
L24332 13232
L24341 13270
L24350 13289
L24358 13299
L24375 13308
L24392 13308
L24410 13299
L24418 13289
L24427 13270
L24435 13232
L24435 13185
L24427 13147
L24418 13127
L24410 13118
L24392 13108
" />
<path d="M24247 13299
L24247 13308
L24255 13327
L24264 13337
" />
<path d="M24075 13308
L24178 13308
" />
<path d="M24127 13308
L24127 13108
L24144 13137
L24161 13156
L24178 13166
" />
<path d="M23861 13175
L23861 13375
" />
<path d="M23775 13280
L23767 13299
L23750 13308
" />
<path d="M23861 13280
L23852 13299
L23835 13308
L23801 13308
L23784 13299
L23775 13280
L23775 13175
" />
<path d="M23612 13204
L23672 13204
" />
<path d="M23672 13308
L23672 13108
L23587 13108
" />
<path d="M25325 13939
L25333 13949
L25359 13958
L25376 13958
L25402 13949
L25419 13930
L25428 13911
L25436 13873
L25436 13844
L25428 13806
L25419 13787
L25402 13768
L25376 13758
L25359 13758
L25333 13768
L25325 13777
" />
<path d="M25265 13758
L25153 13758
L25213 13835
L25188 13835
L25170 13844
L25162 13854
L25153 13873
L25153 13920
L25162 13939
L25170 13949
L25188 13958
L25239 13958
L25256 13949
L25265 13939
" />
<path d="M25758 14408
L25740 14408
L25723 14418
L25715 14427
L25706 14447
L25698 14485
L25698 14532
L25706 14570
L25715 14589
L25723 14599
L25740 14608
L25758 14608
L25775 14599
L25783 14589
L25792 14570
L25800 14532
L25800 14485
L25792 14447
L25783 14427
L25775 14418
L25758 14408
" />
<path d="M25612 14599
L25612 14608
L25620 14627
L25629 14637
" />
<path d="M25458 14475
L25458 14608
" />
<path d="M25500 14399
L25543 14542
L25432 14542
" />
<path d="M25380 14408
L25260 14408
L25338 14608
" />
<path d="M25055 14475
L25055 14675
" />
<path d="M24969 14580
L24960 14599
L24943 14608
" />
<path d="M25055 14580
L25046 14599
L25029 14608
L24995 14608
L24978 14599
L24969 14580
L24969 14475
" />
<path d="M24806 14504
L24866 14504
" />
<path d="M24866 14608
L24866 14408
L24780 14408
" />
<path d="M25030 17089
L25038 17098
L25064 17108
L25081 17108
L25107 17098
L25124 17079
L25132 17060
L25141 17022
L25141 16994
L25132 16956
L25124 16937
L25107 16918
L25081 16908
L25064 16908
L25038 16918
L25030 16927
" />
<path d="M24875 16975
L24875 17108
" />
<path d="M24918 16898
L24961 17041
L24850 17041
" />
<path d="M25364 16277
L25355 16268
L25338 16258
L25295 16258
L25278 16268
L25270 16277
L25261 16296
L25261 16315
L25270 16344
L25372 16458
L25261 16458
" />
<path d="M25192 16277
L25184 16268
L25167 16258
L25124 16258
L25107 16268
L25098 16277
L25090 16296
L25090 16315
L25098 16344
L25201 16458
L25090 16458
" />
<path d="M24875 16325
L24875 16525
" />
<path d="M24875 16334
L24858 16325
L24824 16325
L24807 16334
L24798 16344
L24790 16363
L24790 16420
L24798 16439
L24807 16448
L24824 16458
L24858 16458
L24875 16448
" />
<path d="M24652 16353
L24712 16353
" />
<path d="M24712 16458
L24712 16258
L24627 16258
" />
<path d="M25304 20868
L25210 20808
" />
<path d="M25304 20765
L25107 20765
L25107 20833
L25117 20851
L25126 20859
L25145 20868
L25173 20868
L25192 20859
L25201 20851
L25210 20833
L25210 20765
" />
<path d="M25304 21039
L25304 20936
" />
<path d="M25304 20988
L25107 20988
L25135 20971
L25154 20953
L25164 20936
" />
<path d="M24478 20028
L24611 20028
" />
<path d="M24497 20028
L24488 20037
L24478 20054
L24478 20080
L24488 20097
L24507 20106
L24611 20106
" />
<path d="M24611 20217
L24602 20200
L24592 20191
L24573 20183
L24516 20183
L24497 20191
L24488 20200
L24478 20217
L24478 20243
L24488 20260
L24497 20268
L24516 20277
L24573 20277
L24592 20268
L24602 20260
L24611 20243
L24611 20217
" />
<path d="M24478 20328
L24478 20397
" />
<path d="M24411 20354
L24583 20354
L24602 20363
L24611 20380
L24611 20397
" />
<path d="M24602 20663
L24611 20646
L24611 20611
L24602 20594
L24583 20586
L24507 20586
L24488 20594
L24478 20611
L24478 20646
L24488 20663
L24507 20671
L24526 20671
L24545 20586
" />
<path d="M24478 20826
L24678 20826
" />
<path d="M24602 20826
L24611 20808
L24611 20774
L24602 20757
L24592 20748
L24573 20740
L24516 20740
L24497 20748
L24488 20757
L24478 20774
L24478 20808
L24488 20826
" />
<path d="M24478 20988
L24611 20988
" />
<path d="M24478 20911
L24583 20911
L24602 20920
L24611 20937
L24611 20963
L24602 20980
L24592 20988
" />
<path d="M24611 21074
L24478 21074
" />
<path d="M24411 21074
L24421 21066
L24431 21074
L24421 21083
L24411 21074
L24431 21074
" />
<path d="M24478 21160
L24678 21160
" />
<path d="M24488 21160
L24478 21177
L24478 21211
L24488 21228
L24497 21237
L24516 21246
L24573 21246
L24592 21237
L24602 21228
L24611 21211
L24611 21177
L24602 21160
" />
<path d="M24478 21323
L24678 21323
" />
<path d="M24488 21323
L24478 21340
L24478 21374
L24488 21391
L24497 21400
L24516 21408
L24573 21408
L24592 21400
L24602 21391
L24611 21374
L24611 21340
L24602 21323
" />
<path d="M24602 21554
L24611 21537
L24611 21503
L24602 21486
L24583 21477
L24507 21477
L24488 21486
L24478 21503
L24478 21537
L24488 21554
L24507 21563
L24526 21563
L24545 21477
" />
<path d="M24611 21717
L24411 21717
" />
<path d="M24602 21717
L24611 21700
L24611 21666
L24602 21648
L24592 21640
L24573 21631
L24516 21631
L24497 21640
L24488 21648
L24478 21666
L24478 21700
L24488 21717
" />
</g>
<g style="fill:#009F9F; fill-opacity:0.0; 
stroke:#009F9F; stroke-width:45; stroke-opacity:1; 
stroke-linecap:round; stroke-linejoin:round;">
<path d="M31207 18016
L31113 18076
" />
<path d="M31207 18119
L31010 18119
L31010 18051
L31019 18033
L31028 18025
L31047 18016
L31075 18016
L31094 18025
L31103 18033
L31113 18051
L31113 18119
" />
<path d="M31028 17948
L31019 17939
L31010 17922
L31010 17879
L31019 17862
L31028 17853
L31047 17845
L31066 17845
L31094 17853
L31207 17956
L31207 17845
" />
<path d="M30380 18856
L30514 18856
" />
<path d="M30400 18856
L30390 18847
L30380 18830
L30380 18804
L30390 18787
L30409 18778
L30514 18778
" />
<path d="M30514 18667
L30504 18684
L30495 18693
L30476 18701
L30419 18701
L30400 18693
L30390 18684
L30380 18667
L30380 18641
L30390 18624
L30400 18616
L30419 18607
L30476 18607
L30495 18616
L30504 18624
L30514 18641
L30514 18667
" />
<path d="M30380 18556
L30380 18487
" />
<path d="M30314 18530
L30485 18530
L30504 18521
L30514 18504
L30514 18487
" />
<path d="M30504 18221
L30514 18238
L30514 18273
L30504 18290
L30485 18298
L30409 18298
L30390 18290
L30380 18273
L30380 18238
L30390 18221
L30409 18213
L30428 18213
L30447 18298
" />
<path d="M30380 18058
L30580 18058
" />
<path d="M30504 18058
L30514 18076
L30514 18110
L30504 18127
L30495 18136
L30476 18144
L30419 18144
L30400 18136
L30390 18127
L30380 18110
L30380 18076
L30390 18058
" />
<path d="M30380 17896
L30514 17896
" />
<path d="M30380 17973
L30485 17973
L30504 17964
L30514 17947
L30514 17921
L30504 17904
L30495 17896
" />
<path d="M30514 17810
L30380 17810
" />
<path d="M30314 17810
L30323 17818
L30333 17810
L30323 17801
L30314 17810
L30333 17810
" />
<path d="M30380 17724
L30580 17724
" />
<path d="M30390 17724
L30380 17707
L30380 17673
L30390 17656
L30400 17647
L30419 17638
L30476 17638
L30495 17647
L30504 17656
L30514 17673
L30514 17707
L30504 17724
" />
<path d="M30380 17561
L30580 17561
" />
<path d="M30390 17561
L30380 17544
L30380 17510
L30390 17493
L30400 17484
L30419 17476
L30476 17476
L30495 17484
L30504 17493
L30514 17510
L30514 17544
L30504 17561
" />
<path d="M30504 17330
L30514 17347
L30514 17381
L30504 17398
L30485 17407
L30409 17407
L30390 17398
L30380 17381
L30380 17347
L30390 17330
L30409 17321
L30428 17321
L30447 17407
" />
<path d="M30514 17167
L30314 17167
" />
<path d="M30504 17167
L30514 17184
L30514 17218
L30504 17236
L30495 17244
L30476 17253
L30419 17253
L30400 17244
L30390 17236
L30380 17218
L30380 17184
L30390 17167
" />
<path d="M30124 16737
L30030 16797
" />
<path d="M30124 16840
L29927 16840
L29927 16771
L29936 16754
L29946 16745
L29964 16737
L29993 16737
L30011 16745
L30021 16754
L30030 16771
L30030 16840
" />
<path d="M29927 16677
L29927 16565
L30002 16625
L30002 16600
L30011 16582
L30021 16574
L30039 16565
L30086 16565
L30105 16574
L30115 16582
L30124 16600
L30124 16651
L30115 16668
L30105 16677
" />
<path d="M29298 17576
L29431 17576
" />
<path d="M29317 17576
L29307 17567
L29298 17550
L29298 17525
L29307 17507
L29326 17499
L29431 17499
" />
<path d="M29431 17387
L29422 17405
L29412 17413
L29393 17422
L29336 17422
L29317 17413
L29307 17405
L29298 17387
L29298 17362
L29307 17345
L29317 17336
L29336 17327
L29393 17327
L29412 17336
L29422 17345
L29431 17362
L29431 17387
" />
<path d="M29298 17276
L29298 17207
" />
<path d="M29231 17250
L29403 17250
L29422 17242
L29431 17225
L29431 17207
" />
<path d="M29422 16942
L29431 16959
L29431 16993
L29422 17010
L29403 17019
L29326 17019
L29307 17010
L29298 16993
L29298 16959
L29307 16942
L29326 16933
L29345 16933
L29364 17019
" />
<path d="M29298 16779
L29498 16779
" />
<path d="M29422 16779
L29431 16796
L29431 16830
L29422 16847
L29412 16856
L29393 16865
L29336 16865
L29317 16856
L29307 16847
L29298 16830
L29298 16796
L29307 16779
" />
<path d="M29298 16616
L29431 16616
" />
<path d="M29298 16693
L29403 16693
L29422 16685
L29431 16667
L29431 16642
L29422 16625
L29412 16616
" />
<path d="M29431 16530
L29298 16530
" />
<path d="M29231 16530
L29241 16539
L29250 16530
L29241 16522
L29231 16530
L29250 16530
" />
<path d="M29298 16445
L29498 16445
" />
<path d="M29307 16445
L29298 16427
L29298 16393
L29307 16376
L29317 16367
L29336 16359
L29393 16359
L29412 16367
L29422 16376
L29431 16393
L29431 16427
L29422 16445
" />
<path d="M29298 16282
L29498 16282
" />
<path d="M29307 16282
L29298 16265
L29298 16230
L29307 16213
L29317 16205
L29336 16196
L29393 16196
L29412 16205
L29422 16213
L29431 16230
L29431 16265
L29422 16282
" />
<path d="M29422 16050
L29431 16067
L29431 16102
L29422 16119
L29403 16127
L29326 16127
L29307 16119
L29298 16102
L29298 16067
L29307 16050
L29326 16042
L29345 16042
L29364 16127
" />
<path d="M29431 15887
L29231 15887
" />
<path d="M29422 15887
L29431 15905
L29431 15939
L29422 15956
L29412 15965
L29393 15973
L29336 15973
L29317 15965
L29307 15956
L29298 15939
L29298 15905
L29307 15887
" />
</g>
<g style="fill:#9F009F; fill-opacity:0.0; 
stroke:#9F009F; stroke-width:45; stroke-opacity:1; 
stroke-linecap:round; stroke-linejoin:round;">
<path d="M28106 14523
L28166 14429
" />
<path d="M28209 14523
L28209 14326
L28140 14326
L28123 14335
L28114 14345
L28106 14363
L28106 14391
L28114 14410
L28123 14420
L28140 14429
L28209 14429
" />
<path d="M27951 14391
L27951 14523
" />
<path d="M27994 14316
L28037 14457
L27926 14457
" />
<path d="M28471 15085
L28376 15085
L28471 15218
L28376 15218
" />
<path d="M28239 15208
L28256 15218
L28291 15218
L28308 15208
L28316 15189
L28316 15113
L28308 15094
L28291 15085
L28256 15085
L28239 15094
L28231 15113
L28231 15132
L28316 15151
" />
<path d="M28154 15218
L28154 15085
" />
<path d="M28154 15123
L28145 15104
L28136 15094
L28119 15085
L28102 15085
" />
<path d="M28016 15218
L28034 15208
L28042 15199
L28051 15180
L28051 15123
L28042 15104
L28034 15094
L28016 15085
L27991 15085
L27974 15094
L27965 15104
L27956 15123
L27956 15180
L27965 15199
L27974 15208
L27991 15218
L28016 15218
" />
<path d="M27639 15218
L27699 15123
" />
<path d="M27742 15218
L27742 15018
L27674 15018
L27656 15027
L27648 15037
L27639 15056
L27639 15085
L27648 15104
L27656 15113
L27674 15123
L27742 15123
" />
<path d="M29090 14523
L29150 14429
" />
<path d="M29193 14523
L29193 14326
L29124 14326
L29107 14335
L29099 14345
L29090 14363
L29090 14391
L29099 14410
L29107 14420
L29124 14429
L29193 14429
" />
<path d="M28927 14326
L29013 14326
L29021 14420
L29013 14410
L28996 14401
L28953 14401
L28936 14410
L28927 14420
L28919 14438
L28919 14485
L28927 14504
L28936 14513
L28953 14523
L28996 14523
L29013 14513
L29021 14504
" />
<path d="M29455 15085
L29361 15085
L29455 15218
L29361 15218
" />
<path d="M29224 15208
L29241 15218
L29275 15218
L29292 15208
L29301 15189
L29301 15113
L29292 15094
L29275 15085
L29241 15085
L29224 15094
L29215 15113
L29215 15132
L29301 15151
" />
<path d="M29138 15218
L29138 15085
" />
<path d="M29138 15123
L29129 15104
L29121 15094
L29104 15085
L29086 15085
" />
<path d="M29001 15218
L29018 15208
L29026 15199
L29035 15180
L29035 15123
L29026 15104
L29018 15094
L29001 15085
L28975 15085
L28958 15094
L28949 15104
L28941 15123
L28941 15180
L28949 15199
L28958 15208
L28975 15218
L29001 15218
" />
<path d="M28624 15218
L28684 15123
" />
<path d="M28726 15218
L28726 15018
L28658 15018
L28641 15027
L28632 15037
L28624 15056
L28624 15085
L28632 15104
L28641 15113
L28658 15123
L28726 15123
" />
<path d="M30074 14523
L30134 14429
" />
<path d="M30177 14523
L30177 14326
L30108 14326
L30091 14335
L30083 14345
L30074 14363
L30074 14391
L30083 14410
L30091 14420
L30108 14429
L30177 14429
" />
<path d="M29920 14326
L29954 14326
L29971 14335
L29980 14345
L29997 14373
L30006 14410
L30006 14485
L29997 14504
L29988 14513
L29971 14523
L29937 14523
L29920 14513
L29911 14504
L29903 14485
L29903 14438
L29911 14420
L29920 14410
L29937 14401
L29971 14401
L29988 14410
L29997 14420
L30006 14438
" />
<path d="M30439 15085
L30345 15085
L30439 15218
L30345 15218
" />
<path d="M30208 15208
L30225 15218
L30259 15218
L30276 15208
L30285 15189
L30285 15113
L30276 15094
L30259 15085
L30225 15085
L30208 15094
L30199 15113
L30199 15132
L30285 15151
" />
<path d="M30122 15218
L30122 15085
" />
<path d="M30122 15123
L30113 15104
L30105 15094
L30088 15085
L30071 15085
" />
<path d="M29985 15218
L30002 15208
L30011 15199
L30019 15180
L30019 15123
L30011 15104
L30002 15094
L29985 15085
L29959 15085
L29942 15094
L29933 15104
L29925 15123
L29925 15180
L29933 15199
L29942 15208
L29959 15218
L29985 15218
" />
<path d="M29608 15218
L29668 15123
" />
<path d="M29711 15218
L29711 15018
L29642 15018
L29625 15027
L29616 15037
L29608 15056
L29608 15085
L29616 15104
L29625 15113
L29642 15123
L29711 15123
" />
<path d="M24045 17089
L24054 17098
L24080 17108
L24097 17108
L24122 17098
L24140 17079
L24148 17060
L24157 17022
L24157 16994
L24148 16956
L24140 16937
L24122 16918
L24097 16908
L24080 16908
L24054 16918
L24045 16927
" />
<path d="M23882 16908
L23968 16908
L23977 17003
L23968 16994
L23951 16984
L23908 16984
L23891 16994
L23882 17003
L23874 17022
L23874 17070
L23882 17089
L23891 17098
L23908 17108
L23951 17108
L23968 17098
L23977 17089
" />
<path d="M24860 16325
L24860 16458
" />
<path d="M24860 16344
L24851 16334
L24834 16325
L24808 16325
L24791 16334
L24782 16353
L24782 16458
" />
<path d="M24671 16458
L24688 16448
L24697 16439
L24705 16420
L24705 16363
L24697 16344
L24688 16334
L24671 16325
L24645 16325
L24628 16334
L24620 16344
L24611 16363
L24611 16420
L24620 16439
L24628 16448
L24645 16458
L24671 16458
" />
<path d="M24560 16325
L24491 16325
" />
<path d="M24534 16258
L24534 16429
L24525 16448
L24508 16458
L24491 16458
" />
<path d="M24225 16448
L24242 16458
L24277 16458
L24294 16448
L24302 16429
L24302 16353
L24294 16334
L24277 16325
L24242 16325
L24225 16334
L24217 16353
L24217 16372
L24302 16391
" />
<path d="M24062 16325
L24062 16525
" />
<path d="M24062 16448
L24080 16458
L24114 16458
L24131 16448
L24140 16439
L24148 16420
L24148 16363
L24140 16344
L24131 16334
L24114 16325
L24080 16325
L24062 16334
" />
<path d="M23900 16325
L23900 16458
" />
<path d="M23977 16325
L23977 16429
L23968 16448
L23951 16458
L23925 16458
L23908 16448
L23900 16439
" />
<path d="M23814 16458
L23814 16325
" />
<path d="M23814 16258
L23822 16268
L23814 16277
L23805 16268
L23814 16258
L23814 16277
" />
<path d="M23728 16325
L23728 16525
" />
<path d="M23728 16334
L23711 16325
L23677 16325
L23660 16334
L23651 16344
L23642 16363
L23642 16420
L23651 16439
L23660 16448
L23677 16458
L23711 16458
L23728 16448
" />
<path d="M23565 16325
L23565 16525
" />
<path d="M23565 16334
L23548 16325
L23514 16325
L23497 16334
L23488 16344
L23480 16363
L23480 16420
L23488 16439
L23497 16448
L23514 16458
L23548 16458
L23565 16448
" />
<path d="M23334 16448
L23351 16458
L23385 16458
L23402 16448
L23411 16429
L23411 16353
L23402 16334
L23385 16325
L23351 16325
L23334 16334
L23325 16353
L23325 16372
L23411 16391
" />
<path d="M23171 16458
L23171 16258
" />
<path d="M23171 16448
L23188 16458
L23222 16458
L23240 16448
L23248 16439
L23257 16420
L23257 16363
L23248 16344
L23240 16334
L23222 16325
L23188 16325
L23171 16334
" />
</g>
<g style="fill:#009F9F; fill-opacity:0.0; 
stroke:#009F9F; stroke-width:45; stroke-opacity:1; 
stroke-linecap:round; stroke-linejoin:round;">
<path d="M23345 17454
L23285 17360
" />
<path d="M23242 17454
L23242 17257
L23310 17257
L23327 17267
L23336 17276
L23345 17295
L23345 17323
L23336 17342
L23327 17351
L23310 17360
L23242 17360
" />
<path d="M23405 17257
L23525 17257
L23447 17454
" />
<path d="M23140 16761
L23037 16761
" />
<path d="M23088 16761
L23088 16561
L23071 16590
L23054 16609
L23037 16619
" />
<path d="M23251 16561
L23268 16561
L23285 16571
L23294 16581
L23302 16600
L23311 16638
L23311 16685
L23302 16723
L23294 16742
L23285 16752
L23268 16761
L23251 16761
L23234 16752
L23225 16742
L23217 16723
L23208 16685
L23208 16638
L23217 16600
L23225 16581
L23234 16571
L23251 16561
" />
<path d="M23422 16561
L23440 16561
L23457 16571
L23465 16581
L23474 16600
L23482 16638
L23482 16685
L23474 16723
L23465 16742
L23457 16752
L23440 16761
L23422 16761
L23405 16752
L23397 16742
L23388 16723
L23380 16685
L23380 16638
L23388 16600
L23397 16581
L23405 16571
L23422 16561
" />
<path d="M23662 16761
L23602 16666
" />
<path d="M23560 16761
L23560 16561
L23628 16561
L23645 16571
L23654 16581
L23662 16600
L23662 16628
L23654 16647
L23645 16657
L23628 16666
L23560 16666
" />
</g>
<g style="fill:#9F009F; fill-opacity:0.0; 
stroke:#9F009F; stroke-width:45; stroke-opacity:1; 
stroke-linecap:round; stroke-linejoin:round;">
<path d="M28705 19654
L28765 19560
" />
<path d="M28807 19654
L28807 19457
L28739 19457
L28722 19467
L28713 19476
L28705 19495
L28705 19523
L28713 19542
L28722 19551
L28739 19560
L28807 19560
" />
<path d="M28602 19542
L28619 19532
L28627 19523
L28636 19504
L28636 19495
L28627 19476
L28619 19467
L28602 19457
L28567 19457
L28550 19467
L28542 19476
L28533 19495
L28533 19504
L28542 19523
L28550 19532
L28567 19542
L28602 19542
L28619 19551
L28627 19560
L28636 19579
L28636 19617
L28627 19635
L28619 19645
L28602 19654
L28567 19654
L28550 19645
L28542 19635
L28533 19617
L28533 19579
L28542 19560
L28550 19551
L28567 19542
" />
<path d="M29070 20216
L28975 20216
L29070 20349
L28975 20349
" />
<path d="M28838 20340
L28855 20349
L28890 20349
L28907 20340
L28915 20321
L28915 20245
L28907 20226
L28890 20216
L28855 20216
L28838 20226
L28830 20245
L28830 20264
L28915 20283
" />
<path d="M28752 20349
L28752 20216
" />
<path d="M28752 20254
L28744 20235
L28735 20226
L28718 20216
L28701 20216
" />
<path d="M28615 20349
L28632 20340
L28641 20330
L28649 20311
L28649 20254
L28641 20235
L28632 20226
L28615 20216
L28589 20216
L28572 20226
L28564 20235
L28555 20254
L28555 20311
L28564 20330
L28572 20340
L28589 20349
L28615 20349
" />
<path d="M28238 20349
L28298 20254
" />
<path d="M28341 20349
L28341 20149
L28272 20149
L28255 20159
L28247 20169
L28238 20188
L28238 20216
L28247 20235
L28255 20245
L28272 20254
L28341 20254
" />
</g>
<g style="fill:#009F9F; fill-opacity:0.0; 
stroke:#009F9F; stroke-width:60; stroke-opacity:1; 
stroke-linecap:round; stroke-linejoin:round;">
<path d="M29300 20250
L30300 20250
" />
<path d="M30300 20250
L30300 23250
" />
<path d="M30300 23250
L29300 23250
" />
<path d="M29300 23250
L29300 20250
" />
<path d="M30300 21250
L29300 21250
" />
</g>
<g style="fill:#009F9F; fill-opacity:0.0; 
stroke:#009F9F; stroke-width:120; stroke-opacity:1; 
stroke-linecap:round; stroke-linejoin:round;">
<path d="M22800 17073
L20800 17073
" />
<path d="M20800 17073
L20800 15073
" />
<path d="M20800 15073
L22800 15073
" />
<path d="M22800 15073
L22800 17073
" />
</g>
<g style="fill:#009F9F; fill-opacity:0.0; 
stroke:#009F9F; stroke-width:80; stroke-opacity:1; 
stroke-linecap:round; stroke-linejoin:round;">
<path d="M21000 23150
L21000 20150
" />
<path d="M23000 20150
L23000 23150
" />
<path d="M23000 23150
L21000 23150
" />
<path d="M21000 20150
L23000 20150
" />
</g>
<g style="fill:#009F9F; fill-opacity:0.0; 
stroke:#009F9F; stroke-width:150; stroke-opacity:1; 
stroke-linecap:round; stroke-linejoin:round;">
<path d="M23000 13073
L31000 13073
" />
<path d="M31000 15073
L23000 15073
" />
<path d="M23000 15073
L23000 13073
" />
<path d="M23000 13573
L23500 13573
" />
<path d="M23500 13573
L23500 14573
" />
<path d="M23500 14573
L23000 14573
" />
<path d="M31000 13073
L31000 15073
" />
<path d="M24200 20773
L24700 20773
" />
<path d="M24700 20773
L24700 21773
" />
<path d="M24700 21773
L24200 21773
" />
<path d="M24200 20273
L28200 20273
" />
<path d="M28200 20273
L28200 22273
" />
<path d="M28200 22273
L24200 22273
" />
<path d="M24200 22273
L24200 20273
" />
</g>
<g style="fill:#9F009F; fill-opacity:0.0; 
stroke:#9F009F; stroke-width:47; stroke-opacity:1; 
stroke-linecap:round; stroke-linejoin:round;">
<path d="M22795 14074
L22795 14349
" />
<path d="M22795 13680
L22795 13405
" />
<path d="M22283 14074
L22283 14349
" />
<path d="M22283 13405
L22283 13680
" />
<path d="M22289 14349
L22789 14349
" />
<path d="M22789 13405
L22289 13405
" />
<path d="M24271 14074
L24271 14349
" />
<path d="M24271 13680
L24271 13405
" />
<path d="M23759 14074
L23759 14349
" />
<path d="M23759 13405
L23759 13680
" />
<path d="M23765 14349
L24265 14349
" />
<path d="M24265 13405
L23765 13405
" />
<path d="M25039 13680
L25039 13405
" />
<path d="M25039 14074
L25039 14349
" />
<path d="M25551 13680
L25551 13405
" />
<path d="M25551 14349
L25551 14074
" />
<path d="M25545 13405
L25045 13405
" />
<path d="M25045 14349
L25545 14349
" />
<path d="M25256 17224
L25256 17499
" />
<path d="M25256 16830
L25256 16555
" />
<path d="M24744 17224
L24744 17499
" />
<path d="M24744 16555
L24744 16830
" />
<path d="M24750 17499
L25250 17499
" />
<path d="M25250 16555
L24750 16555
" />
</g>
<g style="fill:#9F009F; fill-opacity:0.0; 
stroke:#9F009F; stroke-width:50; stroke-opacity:1; 
stroke-linecap:round; stroke-linejoin:round;">
<path d="M25003 21148
L24725 21148
" />
<path d="M24725 21148
L24725 20598
" />
<path d="M24725 20598
L25003 20598
" />
<path d="M25675 21148
L25397 21148
" />
<path d="M25675 21148
L25675 20598
" />
<path d="M25675 20598
L25397 20598
" />
</g>
<g style="fill:#009F9F; fill-opacity:0.0; 
stroke:#009F9F; stroke-width:50; stroke-opacity:1; 
stroke-linecap:round; stroke-linejoin:round;">
<path d="M30905 17736
L30627 17736
" />
<path d="M30627 17736
L30627 18286
" />
<path d="M30627 18286
L30905 18286
" />
<path d="M31577 17736
L31299 17736
" />
<path d="M31577 17736
L31577 18286
" />
<path d="M31577 18286
L31299 18286
" />
<path d="M29822 16457
L29544 16457
" />
<path d="M29544 16457
L29544 17007
" />
<path d="M29544 17007
L29822 17007
" />
<path d="M30494 16457
L30216 16457
" />
<path d="M30494 16457
L30494 17007
" />
<path d="M30494 17007
L30216 17007
" />
</g>
<g style="fill:#9F009F; fill-opacity:0.0; 
stroke:#9F009F; stroke-width:50; stroke-opacity:1; 
stroke-linecap:round; stroke-linejoin:round;">
<path d="M28326 14665
L28326 14943
" />
<path d="M28326 14943
L27776 14943
" />
<path d="M27776 14943
L27776 14665
" />
<path d="M28326 13993
L28326 14271
" />
<path d="M28326 13993
L27776 13993
" />
<path d="M27776 13993
L27776 14271
" />
<path d="M29310 14665
L29310 14943
" />
<path d="M29310 14943
L28760 14943
" />
<path d="M28760 14943
L28760 14665
" />
<path d="M29310 13993
L29310 14271
" />
<path d="M29310 13993
L28760 13993
" />
<path d="M28760 13993
L28760 14271
" />
<path d="M30294 14665
L30294 14943
" />
<path d="M30294 14943
L29744 14943
" />
<path d="M29744 14943
L29744 14665
" />
<path d="M30294 13993
L30294 14271
" />
<path d="M30294 13993
L29744 13993
" />
<path d="M29744 13993
L29744 14271
" />
</g>
<g style="fill:#9F009F; fill-opacity:0.0; 
stroke:#9F009F; stroke-width:47; stroke-opacity:1; 
stroke-linecap:round; stroke-linejoin:round;">
<path d="M24271 17224
L24271 17499
" />
<path d="M24271 16830
L24271 16555
" />
<path d="M23759 17224
L23759 17499
" />
<path d="M23759 16555
L23759 16830
" />
<path d="M23765 17499
L24265 17499
" />
<path d="M24265 16555
L23765 16555
" />
</g>
<g style="fill:#009F9F; fill-opacity:0.0; 
stroke:#009F9F; stroke-width:50; stroke-opacity:1; 
stroke-linecap:round; stroke-linejoin:round;">
<path d="M23625 17153
L23625 16875
" />
<path d="M23625 16875
L23075 16875
" />
<path d="M23075 16875
L23075 17153
" />
<path d="M23625 17825
L23625 17547
" />
<path d="M23625 17825
L23075 17825
" />
<path d="M23075 17825
L23075 17547
" />
</g>
<g style="fill:#9F009F; fill-opacity:0.0; 
stroke:#9F009F; stroke-width:50; stroke-opacity:1; 
stroke-linecap:round; stroke-linejoin:round;">
<path d="M28925 19797
L28925 20075
" />
<path d="M28925 20075
L28375 20075
" />
<path d="M28375 20075
L28375 19797
" />
<path d="M28925 19125
L28925 19403
" />
<path d="M28925 19125
L28375 19125
" />
<path d="M28375 19125
L28375 19403
" />
</g>
<g style="fill:#9F0000; fill-opacity:0.0; 
stroke:#9F0000; stroke-width:196.85; stroke-opacity:1; 
stroke-linecap:round; stroke-linejoin:round;">
</g>
<g style="fill:#9F0000; fill-opacity:1.0; 
stroke:#9F0000; stroke-width:196.85; stroke-opacity:1; 
stroke-linecap:round; stroke-linejoin:round;">
<polyline style="fill-rule:evenodd;"
points="27165,18405
27165,18208
27362,18208
27362,18405
27165,18405
" /> 
<polyline style="fill-rule:evenodd;"
points="25590,23818
25590,23622
25787,23622
25787,23818
25590,23818
" /> 
</g>
<g style="fill:#7F7F00; fill-opacity:1.0; 
stroke:#7F7F00; stroke-width:196.85; stroke-opacity:1; 
stroke-linecap:round; stroke-linejoin:round;">
<polyline style="fill-rule:evenodd;"
points="29445,20395
30154,20395
30154,21104
29445,21104
29445,20395
" /> 
<circle cx="29800" cy="21750" r="354.331" /> 
<circle cx="29800" cy="22750" r="354.331" /> 
<circle cx="22300" cy="15573.2" r="354.331" /> 
<circle cx="22300" cy="16573.2" r="354.331" /> 
<circle cx="21300" cy="15573.2" r="354.331" /> 
<circle cx="21300" cy="16573.2" r="354.331" /> 
<polyline style="fill-rule:evenodd;"
points="21145,20295
21854,20295
21854,21004
21145,21004
21145,20295
" /> 
<circle cx="22500" cy="20650" r="354.331" /> 
<circle cx="21500" cy="21650" r="354.331" /> 
<circle cx="22500" cy="21650" r="354.331" /> 
<circle cx="21500" cy="22650" r="354.331" /> 
<circle cx="22500" cy="22650" r="354.331" /> 
<polyline style="fill-rule:evenodd;"
points="29445,17618
30154,17618
30154,18327
29445,18327
29445,17618
" /> 
<circle cx="21729.1" cy="17973.2" r="354.331" /> 
</g>
<g style="fill:#9F0000; fill-opacity:1.0; 
stroke:#9F0000; stroke-width:196.85; stroke-opacity:1; 
stroke-linecap:round; stroke-linejoin:round;">
<polyline style="fill-rule:evenodd;"
points="24212,17125
24212,16929
24606,16929
24606,17125
24212,17125
" /> 
<polyline style="fill-rule:evenodd;"
points="24212,17755
24212,17559
24606,17559
24606,17755
24212,17755
" /> 
<polyline style="fill-rule:evenodd;"
points="24220,18385
24220,18188
24614,18188
24614,18385
24220,18385
" /> 
<polyline style="fill-rule:evenodd;"
points="26141,17125
26141,16929
26535,16929
26535,17125
26141,17125
" /> 
<polyline style="fill-rule:evenodd;"
points="26141,17755
26141,17559
26535,17559
26535,17755
26141,17755
" /> 
<polyline style="fill-rule:evenodd;"
points="26141,18385
26141,18188
26535,18188
26535,18385
26141,18385
" /> 
<polyline style="fill-rule:evenodd;"
points="31104,19345
31104,18754
31695,18754
31695,19345
31104,19345
" /> 
<polyline style="fill-rule:evenodd;"
points="30004,19345
30004,18754
30595,18754
30595,19345
30004,19345
" /> 
</g>
<g style="fill:#7F7F00; fill-opacity:1.0; 
stroke:#7F7F00; stroke-width:196.85; stroke-opacity:1; 
stroke-linecap:round; stroke-linejoin:round;">
<polyline style="fill-rule:evenodd;"
points="23788,15924
23788,15221
24211,15221
24211,15924
23788,15924
" /> 
</g>
<g style="fill:#7F7F00; fill-opacity:1.0; 
stroke:#7F7F00; stroke-width:620; stroke-opacity:1; 
stroke-linecap:round; stroke-linejoin:round;">
<path d="M25000 15433
L25000 15713
" />
<path d="M26000 15433
L26000 15713
" />
<path d="M27000 15433
L27000 15713
" />
<path d="M28000 15433
L28000 15713
" />
<path d="M29000 15433
L29000 15713
" />
<path d="M30000 15433
L30000 15713
" />
<path d="M30000 12433
L30000 12713
" />
<path d="M29000 12433
L29000 12713
" />
<path d="M28000 12433
L28000 12713
" />
<path d="M27000 12433
L27000 12713
" />
<path d="M26000 12433
L26000 12713
" />
<path d="M25000 12433
L25000 12713
" />
<path d="M24000 12433
L24000 12713
" />
</g>
<g style="fill:#7F7F00; fill-opacity:1.0; 
stroke:#7F7F00; stroke-width:196.85; stroke-opacity:1; 
stroke-linecap:round; stroke-linejoin:round;">
<polyline style="fill-rule:evenodd;"
points="24488,23124
24488,22421
24911,22421
24911,23124
24488,23124
" /> 
</g>
<g style="fill:#7F7F00; fill-opacity:1.0; 
stroke:#7F7F00; stroke-width:620; stroke-opacity:1; 
stroke-linecap:round; stroke-linejoin:round;">
<path d="M25700 22633
L25700 22913
" />
<path d="M26700 22633
L26700 22913
" />
<path d="M27700 22633
L27700 22913
" />
<path d="M27700 19633
L27700 19913
" />
<path d="M26700 19633
L26700 19913
" />
<path d="M25700 19633
L25700 19913
" />
<path d="M24700 19633
L24700 19913
" />
</g>
<g style="fill:#9F0000; fill-opacity:1.0; 
stroke:#9F0000; stroke-width:196.85; stroke-opacity:1; 
stroke-linecap:round; stroke-linejoin:round;">
<polyline style="fill-rule:evenodd;"
points="22145,12893
22145,12303
22736,12303
22736,12893
22145,12893
" /> 
<polyline style="fill-rule:evenodd;"
points="21062,12893
21062,12303
21653,12303
21653,12893
21062,12893
" /> 
</g>
<g style="fill:#009F00; fill-opacity:1.0; 
stroke:#009F00; stroke-width:196.85; stroke-opacity:1; 
stroke-linecap:round; stroke-linejoin:round;">
<polyline style="fill-rule:evenodd;"
points="22412,13551
22665,13551
22665,13604
22412,13604
22412,13551
" /> 
<polyline style="fill-rule:evenodd;"
points="22412,14151
22665,14151
22665,14204
22412,14204
22412,14151
" /> 
<polyline style="fill-rule:evenodd;"
points="23889,13551
24142,13551
24142,13604
23889,13604
23889,13551
" /> 
<polyline style="fill-rule:evenodd;"
points="23889,14151
24142,14151
24142,14204
23889,14204
23889,14151
" /> 
<polyline style="fill-rule:evenodd;"
points="25421,14204
25168,14204
25168,14151
25421,14151
25421,14204
" /> 
<polyline style="fill-rule:evenodd;"
points="25421,13604
25168,13604
25168,13551
25421,13551
25421,13604
" /> 
<polyline style="fill-rule:evenodd;"
points="24873,16700
25126,16700
25126,16754
24873,16754
24873,16700
" /> 
<polyline style="fill-rule:evenodd;"
points="24873,17300
25126,17300
25126,17354
24873,17354
24873,17300
" /> 
<polyline style="fill-rule:evenodd;"
points="24873,20999
24873,20746
24926,20746
24926,20999
24873,20999
" /> 
<polyline style="fill-rule:evenodd;"
points="25473,20999
25473,20746
25526,20746
25526,20999
25473,20999
" /> 
</g>
<g style="fill:#9F0000; fill-opacity:1.0; 
stroke:#9F0000; stroke-width:196.85; stroke-opacity:1; 
stroke-linecap:round; stroke-linejoin:round;">
<polyline style="fill-rule:evenodd;"
points="30775,18138
30775,17885
30828,17885
30828,18138
30775,18138
" /> 
<polyline style="fill-rule:evenodd;"
points="31375,18138
31375,17885
31428,17885
31428,18138
31375,18138
" /> 
<polyline style="fill-rule:evenodd;"
points="29693,16858
29693,16605
29746,16605
29746,16858
29693,16858
" /> 
<polyline style="fill-rule:evenodd;"
points="30293,16858
30293,16605
30346,16605
30346,16858
30293,16858
" /> 
</g>
<g style="fill:#009F00; fill-opacity:1.0; 
stroke:#009F00; stroke-width:196.85; stroke-opacity:1; 
stroke-linecap:round; stroke-linejoin:round;">
<polyline style="fill-rule:evenodd;"
points="28177,14795
27924,14795
27924,14741
28177,14741
28177,14795
" /> 
<polyline style="fill-rule:evenodd;"
points="28177,14195
27924,14195
27924,14141
28177,14141
28177,14195
" /> 
<polyline style="fill-rule:evenodd;"
points="29162,14795
28908,14795
28908,14741
29162,14741
29162,14795
" /> 
<polyline style="fill-rule:evenodd;"
points="29162,14195
28908,14195
28908,14141
29162,14141
29162,14195
" /> 
<polyline style="fill-rule:evenodd;"
points="30146,14795
29893,14795
29893,14741
30146,14741
30146,14795
" /> 
<polyline style="fill-rule:evenodd;"
points="30146,14195
29893,14195
29893,14141
30146,14141
30146,14195
" /> 
<polyline style="fill-rule:evenodd;"
points="23889,16700
24142,16700
24142,16754
23889,16754
23889,16700
" /> 
<polyline style="fill-rule:evenodd;"
points="23889,17300
24142,17300
24142,17354
23889,17354
23889,17300
" /> 
</g>
<g style="fill:#9F0000; fill-opacity:1.0; 
stroke:#9F0000; stroke-width:196.85; stroke-opacity:1; 
stroke-linecap:round; stroke-linejoin:round;">
<polyline style="fill-rule:evenodd;"
points="23223,17023
23476,17023
23476,17076
23223,17076
23223,17023
" /> 
<polyline style="fill-rule:evenodd;"
points="23223,17623
23476,17623
23476,17676
23223,17676
23223,17623
" /> 
</g>
<g style="fill:#009F00; fill-opacity:1.0; 
stroke:#009F00; stroke-width:196.85; stroke-opacity:1; 
stroke-linecap:round; stroke-linejoin:round;">
<polyline style="fill-rule:evenodd;"
points="28776,19926
28523,19926
28523,19873
28776,19873
28776,19926
" /> 
<polyline style="fill-rule:evenodd;"
points="28776,19326
28523,19326
28523,19273
28776,19273
28776,19326
" /> 
</g>
<g style="fill:#BFBFBF; fill-opacity:1.0; 
stroke:#BFBFBF; stroke-width:196.85; stroke-opacity:1; 
stroke-linecap:round; stroke-linejoin:round;">
<circle cx="20150" cy="18110.2" r="354.331" /> 
<circle cx="28444.9" cy="18011.8" r="354.331" /> 
<circle cx="17913.4" cy="16141.7" r="251.575" /> 
<circle cx="18897.6" cy="16535.4" r="251.575" /> 
</g>
<g style="fill:#009F00; fill-opacity:1.0; 
stroke:#009F00; stroke-width:314.961; stroke-opacity:1; 
stroke-linecap:round; stroke-linejoin:round;">
<path d="M24000 15573
L24000 14193
" />
<path d="M23984 14177
L22539 14177
" />
<path d="M24000 14193
L23984 14177
" />
</g>
<g style="fill:#9F0000; fill-opacity:1.0; 
stroke:#9F0000; stroke-width:314.961; stroke-opacity:1; 
stroke-linecap:round; stroke-linejoin:round;">
<path d="M24000 15573
L23726 15573
" />
<path d="M23350 15950
L23350 17050
" />
<path d="M23726 15573
L23350 15950
" />
<path d="M24700 19773
L24700 19877
" />
<path d="M25574 20751
L29822 20751
" />
<path d="M24700 19877
L25574 20751
" />
</g>
<g style="fill:#009F00; fill-opacity:1.0; 
stroke:#009F00; stroke-width:314.961; stroke-opacity:1; 
stroke-linecap:round; stroke-linejoin:round;">
<path d="M29822 20751
L29822 17996
" />
<path d="M29822 17996
L29800 17973
" />
</g>
<g style="fill:#9F0000; fill-opacity:1.0; 
stroke:#9F0000; stroke-width:314.961; stroke-opacity:1; 
stroke-linecap:round; stroke-linejoin:round;">
<path d="M22500 20673
L22500 19973
" />
<path d="M22500 19973
L22700 19773
" />
<path d="M23600 19773
L24700 19773
" />
<path d="M22700 19773
L23600 19773
" />
</g>
<g style="fill:#009F00; fill-opacity:1.0; 
stroke:#009F00; stroke-width:314.961; stroke-opacity:1; 
stroke-linecap:round; stroke-linejoin:round;">
<path d="M24900 20873
L24900 19973
" />
<path d="M24900 19973
L24700 19773
" />
</g>
<g style="fill:#9F0000; fill-opacity:1.0; 
stroke:#9F0000; stroke-width:314.961; stroke-opacity:1; 
stroke-linecap:round; stroke-linejoin:round;">
<path d="M24000 15573
L24000 15143
" />
<path d="M21259 12598
L20472 13385
" />
<path d="M24015 14665
L21161 14665
" />
<path d="M21161 14665
L20570 14173
" />
<path d="M20570 14173
L20472 14074
" />
<path d="M20472 14074
L20472 13385
" />
<path d="M21259 12598
L21358 12598
" />
<path d="M30319 16732
L30319 16530
" />
<path d="M30319 16530
L30708 16141
" />
<path d="M30708 16141
L30708 14862
" />
<path d="M30708 14862
L30511 14665
" />
<path d="M30511 14665
L24015 14665
" />
<path d="M24015 14665
L24000 15573
" />
<path d="M29800 17973
L29800 17936
" />
<path d="M30319 17416
L30319 16732
" />
<path d="M29800 17936
L30319 17416
" />
<path d="M26338 17027
L28854 17027
" />
<path d="M28854 17027
L29800 17973
" />
<path d="M30802 18011
L29838 18011
" />
<path d="M29838 18011
L29800 17973
" />
</g>
<g style="fill:#009F00; fill-opacity:1.0; 
stroke:#009F00; stroke-width:314.961; stroke-opacity:1; 
stroke-linecap:round; stroke-linejoin:round;">
<path d="M24015 16727
L23814 16727
" />
<path d="M22659 15573
L22300 15573
" />
<path d="M23814 16727
L22659 15573
" />
<path d="M25000 15573
L25000 16727
" />
<path d="M24015 16727
L25000 16727
" />
<path d="M24015 17327
L23036 17327
" />
<path d="M22300 16591
L22300 16573
" />
<path d="M23036 17327
L22300 16591
" />
<path d="M26000 15573
L26000 16913
" />
<path d="M25585 17327
L25000 17327
" />
<path d="M26000 16913
L25585 17327
" />
<path d="M25000 17327
L24015 17327
" />
<path d="M26700 19773
L26700 19514
" />
<path d="M21500 19543
L21970 19073
" />
<path d="M21500 20673
L21500 19783
" />
<path d="M21970 19073
L26258 19073
" />
<path d="M21500 19783
L21500 19543
" />
<path d="M26700 19514
L26258 19073
" />
<path d="M26700 19773
L26700 18181
" />
<path d="M26700 18181
L28051 16830
" />
<path d="M28051 16830
L30807 16830
" />
<path d="M30807 16830
L31692 15944
" />
<path d="M31692 15944
L31692 13484
" />
<path d="M31692 13484
L30781 12573
" />
<path d="M30781 12573
L30000 12573
" />
<path d="M28650 19900
L28650 20365
" />
<path d="M28650 20365
L28582 20432
" />
<path d="M28582 20432
L26700 22315
" />
<path d="M26700 22773
L26700 22315
" />
<path d="M27263 21751
L29822 21751
" />
<path d="M26700 22315
L27263 21751
" />
</g>
<g style="fill:#9F0000; fill-opacity:1.0; 
stroke:#9F0000; stroke-width:314.961; stroke-opacity:1; 
stroke-linecap:round; stroke-linejoin:round;">
<path d="M21500 22673
L21500 23573
" />
<path d="M21500 23573
L21600 23673
" />
<path d="M21600 23673
L23700 23673
" />
<path d="M23700 23673
L24700 22673
" />
<path d="M25678 19773
L25098 19094
" />
<path d="M25098 19094
L21259 19094
" />
<path d="M21259 19094
L20150 20150
" />
<path d="M25700 19674
L26377 18996
" />
<path d="M30511 18996
L30511 18996
" />
<path d="M26377 18996
L30511 18996
" />
<path d="M21500 21650
L20650 21650
" />
<path d="M20150 21150
L20150 20150
" />
<path d="M20650 21650
L20150 21150
" />
</g>
<g style="fill:#009F00; fill-opacity:1.0; 
stroke:#009F00; stroke-width:314.961; stroke-opacity:1; 
stroke-linecap:round; stroke-linejoin:round;">
<path d="M27000 12573
L27000 11940
" />
<path d="M20150 18110
L20150 14000
" />
</g>
<g style="fill:#9F0000; fill-opacity:1.0; 
stroke:#9F0000; stroke-width:314.961; stroke-opacity:1; 
stroke-linecap:round; stroke-linejoin:round;">
<path d="M20150 18110
L20150 20150
" />
</g>
<g style="fill:#009F00; fill-opacity:1.0; 
stroke:#009F00; stroke-width:314.961; stroke-opacity:1; 
stroke-linecap:round; stroke-linejoin:round;">
<path d="M22539 11712
L20150 14000
" />
<path d="M26771 11712
L22539 11712
" />
<path d="M27000 11940
L26771 11712
" />
<path d="M25500 20873
L25500 19973
" />
<path d="M25500 19973
L25700 19773
" />
</g>
<g style="fill:#9F0000; fill-opacity:1.0; 
stroke:#9F0000; stroke-width:314.961; stroke-opacity:1; 
stroke-linecap:round; stroke-linejoin:round;">
<path d="M25700 19773
L25700 19674
" />
<path d="M25700 19773
L25678 19773
" />
<path d="M26000 12573
L26000 13106
" />
<path d="M31402 14276
L31402 18011
" />
<path d="M31102 13976
L31402 14276
" />
<path d="M26870 13976
L31102 13976
" />
<path d="M26000 13106
L26870 13976
" />
<path d="M31397 18996
L31397 19094
" />
<path d="M31397 19094
L30718 19773
" />
<path d="M31397 18996
L31397 18016
" />
<path d="M31397 18016
L31402 18011
" />
<path d="M27700 19773
L30718 19773
" />
</g>
<g style="fill:#009F00; fill-opacity:1.0; 
stroke:#009F00; stroke-width:314.961; stroke-opacity:1; 
stroke-linecap:round; stroke-linejoin:round;">
<path d="M22500 21673
L25800 21673
" />
<path d="M25800 21673
L27700 19773
" />
</g>
<g style="fill:#9F0000; fill-opacity:1.0; 
stroke:#9F0000; stroke-width:314.961; stroke-opacity:1; 
stroke-linecap:round; stroke-linejoin:round;">
<path d="M29822 22751
L30248 22751
" />
<path d="M31496 13464
L32086 13976
" />
<path d="M29000 12838
L29000 12573
" />
<path d="M32086 20570
L32086 13976
" />
<path d="M29000 12838
L29625 13464
" />
<path d="M29625 13464
L31496 13464
" />
<path d="M32086 20913
L32086 20570
" />
<path d="M30248 22751
L32086 20913
" />
</g>
<g style="fill:#009F00; fill-opacity:1.0; 
stroke:#009F00; stroke-width:314.961; stroke-opacity:1; 
stroke-linecap:round; stroke-linejoin:round;">
<path d="M22500 22673
L22500 23523
" />
<path d="M25295 14177
L25004 14177
" />
<path d="M24404 13577
L24015 13577
" />
<path d="M25004 14177
L24404 13577
" />
<path d="M28051 14168
L25304 14168
" />
<path d="M25304 14168
L25295 14177
" />
<path d="M22539 13577
L24015 13577
" />
<path d="M24000 13562
L24000 12573
" />
<path d="M27700 22773
L27700 23087
" />
<path d="M27700 23087
L27263 23523
" />
<path d="M27700 22773
L29801 22773
" />
<path d="M29801 22773
L29822 22751
" />
</g>
<g style="fill:#9F0000; fill-opacity:1.0; 
stroke:#9F0000; stroke-width:314.961; stroke-opacity:1; 
stroke-linecap:round; stroke-linejoin:round;">
<path d="M24417 18287
L24212 18287
" />
<path d="M23996 18503
L22259 18503
" />
<path d="M22259 18503
L21729 17973
" />
<path d="M24212 18287
L23996 18503
" />
</g>
<g style="fill:#009F00; fill-opacity:1.0; 
stroke:#009F00; stroke-width:314.961; stroke-opacity:1; 
stroke-linecap:round; stroke-linejoin:round;">
<path d="M29035 14168
L28051 14168
" />
<path d="M29035 14168
L30216 14173
" />
<path d="M29000 12573
L29000 14133
" />
<path d="M29000 14133
L29035 14168
" />
<path d="M20669 19033
L21729 17973
" />
<path d="M22500 23523
L20964 23523
" />
<path d="M20964 23523
L20669 23228
" />
<path d="M20669 23228
L20669 19033
" />
<path d="M27263 23523
L22500 23523
" />
</g>
<g style="fill:#9F0000; fill-opacity:1.0; 
stroke:#9F0000; stroke-width:314.961; stroke-opacity:1; 
stroke-linecap:round; stroke-linejoin:round;">
<path d="M22500 12573
L24000 12573
" />
<path d="M28000 12573
L29000 12573
" />
<path d="M26338 17657
L28090 17657
" />
</g>
<g style="fill:#009F00; fill-opacity:1.0; 
stroke:#009F00; stroke-width:314.961; stroke-opacity:1; 
stroke-linecap:round; stroke-linejoin:round;">
<path d="M28650 18216
L28650 19300
" />
<path d="M28444 18011
L28650 18216
" />
</g>
<g style="fill:#9F0000; fill-opacity:1.0; 
stroke:#9F0000; stroke-width:314.961; stroke-opacity:1; 
stroke-linecap:round; stroke-linejoin:round;">
<path d="M28090 17657
L28444 18011
" />
<path d="M27263 18307
L26358 18307
" />
<path d="M26358 18307
L26338 18287
" />
<path d="M25700 23573
L25700 22773
" />
</g>
<g style="fill:#009F00; fill-opacity:1.0; 
stroke:#009F00; stroke-width:314.961; stroke-opacity:1; 
stroke-linecap:round; stroke-linejoin:round;">
<path d="M25300 13573
L25300 12873
" />
<path d="M25300 12873
L25000 12573
" />
</g>
<g style="fill:#009F00; fill-opacity:1.0; 
stroke:#009F00; stroke-width:196.85; stroke-opacity:1; 
stroke-linecap:round; stroke-linejoin:round;">
<path d="M18405 10433
L18799 10433
" />
</g>
<g style="fill:#9F0000; fill-opacity:1.0; 
stroke:#9F0000; stroke-width:196.85; stroke-opacity:1; 
stroke-linecap:round; stroke-linejoin:round;">
<path d="M18897 15551
L21277 15551
" />
<path d="M32972 25000
L32972 10925
" />
<path d="M18405 25000
L18405 10433
" />
<path d="M33464 10433
L33464 25492
" />
<path d="M33464 25492
L17913 25492
" />
<path d="M17913 16141
L17913 25492
" />
</g>
<g style="fill:#009F00; fill-opacity:1.0; 
stroke:#009F00; stroke-width:196.85; stroke-opacity:1; 
stroke-linecap:round; stroke-linejoin:round;">
<path d="M17913 9940
L33464 9940
" />
<path d="M33464 25492
L18405 25492
" />
<path d="M32972 10433
L32972 25000
" />
<path d="M18897 16535
L18897 25000
" />
<path d="M32972 25000
L18897 25000
" />
<path d="M18799 10433
L32972 10433
" />
<path d="M18405 25492
L18405 10433
" />
<path d="M33464 9940
L33464 25492
" />
<path d="M17913 9940
L17913 16141
" />
</g>
<g style="fill:#9F0000; fill-opacity:1.0; 
stroke:#9F0000; stroke-width:196.85; stroke-opacity:1; 
stroke-linecap:round; stroke-linejoin:round;">
<path d="M18405 10433
L33464 10433
" />
<path d="M32972 25000
L18405 25000
" />
<path d="M32972 10925
L18897 10925
" />
<path d="M18897 15551
L18897 10925
" />
<path d="M21277 15551
L21300 15573
" />
<path d="M21300 16573
L18935 16573
" />
</g>
<g style="fill:#9F0000; fill-opacity:1.0; 
stroke:#9F0000; stroke-width:314.961; stroke-opacity:1; 
stroke-linecap:round; stroke-linejoin:round;">
<path d="M24409 17657
L23357 17657
" />
</g>
<g style="fill:#009F00; fill-opacity:1.0; 
stroke:#009F00; stroke-width:314.961; stroke-opacity:1; 
stroke-linecap:round; stroke-linejoin:round;">
<path d="M29000 15573
L29000 14902
" />
<path d="M29000 14902
L29035 14866
" />
</g>
<g style="fill:#9F0000; fill-opacity:1.0; 
stroke:#9F0000; stroke-width:314.961; stroke-opacity:1; 
stroke-linecap:round; stroke-linejoin:round;">
<path d="M27460 16437
L27362 16437
" />
<path d="M29527 16732
L29232 16437
" />
<path d="M29232 16437
L27460 16437
" />
<path d="M29719 16732
L29527 16732
" />
<path d="M27000 16074
L27000 15573
" />
<path d="M27362 16437
L27000 16074
" />
<path d="M27000 15582
L27000 15573
" />
</g>
<g style="fill:#009F00; fill-opacity:1.0; 
stroke:#009F00; stroke-width:314.961; stroke-opacity:1; 
stroke-linecap:round; stroke-linejoin:round;">
<path d="M30000 15573
L30000 14886
" />
<path d="M30000 14886
L30019 14866
" />
<path d="M28000 15573
L28000 14918
" />
<path d="M28000 14918
L28051 14866
" />
</g>
<g style="fill:#FFFFFF; fill-opacity:1.0; 
stroke:#FFFFFF; stroke-width:196.85; stroke-opacity:1; 
stroke-linecap:round; stroke-linejoin:round;">
<circle cx="20150" cy="18110.2" r="59.0551" /> 
<circle cx="28444.9" cy="18011.8" r="59.0551" /> 
<circle cx="17913.4" cy="16141.7" r="59.0551" /> 
<circle cx="18897.6" cy="16535.4" r="59.0551" /> 
<circle cx="29800" cy="20750" r="101.575" /> 
<circle cx="29800" cy="21750" r="101.575" /> 
<circle cx="29800" cy="22750" r="101.575" /> 
<circle cx="22300" cy="15573.2" r="98.4252" /> 
<circle cx="22300" cy="16573.2" r="98.4252" /> 
<circle cx="21300" cy="15573.2" r="98.4252" /> 
<circle cx="21300" cy="16573.2" r="98.4252" /> 
<circle cx="21500" cy="20650" r="98.4252" /> 
<circle cx="22500" cy="20650" r="98.4252" /> 
<circle cx="21500" cy="21650" r="98.4252" /> 
<circle cx="22500" cy="21650" r="98.4252" /> 
<circle cx="21500" cy="22650" r="98.4252" /> 
<circle cx="22500" cy="22650" r="98.4252" /> 
<circle cx="29800" cy="17973.2" r="102.362" /> 
<circle cx="21729.1" cy="17973.2" r="102.362" /> 
<circle cx="24000" cy="15573.2" r="61.5748" /> 
<circle cx="25000" cy="15573.2" r="61.5748" /> 
<circle cx="26000" cy="15573.2" r="61.5748" /> 
<circle cx="27000" cy="15573.2" r="61.5748" /> 
<circle cx="28000" cy="15573.2" r="61.5748" /> 
<circle cx="29000" cy="15573.2" r="61.5748" /> 
<circle cx="30000" cy="15573.2" r="61.5748" /> 
<circle cx="30000" cy="12573.2" r="61.5748" /> 
<circle cx="29000" cy="12573.2" r="61.5748" /> 
<circle cx="28000" cy="12573.2" r="61.5748" /> 
<circle cx="27000" cy="12573.2" r="61.5748" /> 
<circle cx="26000" cy="12573.2" r="61.5748" /> 
<circle cx="25000" cy="12573.2" r="61.5748" /> 
<circle cx="24000" cy="12573.2" r="61.5748" /> 
<circle cx="24700" cy="22773.2" r="61.5748" /> 
<circle cx="25700" cy="22773.2" r="61.5748" /> 
<circle cx="26700" cy="22773.2" r="61.5748" /> 
<circle cx="27700" cy="22773.2" r="61.5748" /> 
<circle cx="27700" cy="19773.2" r="61.5748" /> 
<circle cx="26700" cy="19773.2" r="61.5748" /> 
<circle cx="25700" cy="19773.2" r="61.5748" /> 
<circle cx="24700" cy="19773.2" r="61.5748" /> 
</g> 
</svg>
