<?xml version="1.0" standalone="no"?>
 <!DOCTYPE svg PUBLIC "-//W3C//DTD SVG 1.1//EN" 
 "http://www.w3.org/Graphics/SVG/1.1/DTD/svg11.dtd"> 
<svg xmlns="http://www.w3.org/2000/svg" version="1.1" 
    width="14.8488cm" height="10.5004cm" viewBox="0 0 58460 41340 ">
<title>SVG Picture created as BuddiesJewel-Dessous_Cu.svg date 2013/12/03 01:33:02 </title>
  <desc>Picture generated by PCBNEW </desc>
<g style="fill:#000000; fill-opacity:1;stroke:#000000; stroke-opacity:1;
stroke-linecap:round; stroke-linejoin:round; "
 transform="translate(0 0) scale(1 1)">
</g>
<g style="fill:#000000; fill-opacity:0.0; 
stroke:#000000; stroke-width:196.85; stroke-opacity:1; 
stroke-linecap:round; stroke-linejoin:round;">
<path d="M4000 4000
L54460 4000
L54460 37340
L4000 37340
L4000 4000
" />
<path d="M4700 4700
L53760 4700
L53760 36640
L4700 36640
L4700 4700
" />
<path d="M29230 4000
L29230 4700
" />
<path d="M16762 4552
L16477 4552
" />
<path d="M16620 4552
L16620 4052
L16572 4123
L16524 4171
L16477 4195
" />
<path d="M29230 37340
L29230 36640
" />
<path d="M16762 37192
L16477 37192
" />
<path d="M16620 37192
L16620 36692
L16572 36763
L16524 36811
L16477 36835
" />
<path d="M41707 4100
L41730 4076
L41778 4052
L41897 4052
L41945 4076
L41969 4100
L41992 4147
L41992 4195
L41969 4266
L41683 4552
L41992 4552
" />
<path d="M41707 36740
L41730 36716
L41778 36692
L41897 36692
L41945 36716
L41969 36740
L41992 36787
L41992 36835
L41969 36906
L41683 37192
L41992 37192
" />
<path d="M4230 20729
L4469 20729
" />
<path d="M4183 20872
L4350 20372
L4516 20872
" />
<path d="M53990 20729
L54229 20729
" />
<path d="M53943 20872
L54110 20372
L54276 20872
" />
<path d="M20910 35082
L20985 34482
L21127 34482
L21210 34511
L21260 34568
L21281 34625
L21295 34740
L21285 34825
L21242 34940
L21206 34997
L21142 35054
L21052 35082
L20910 35082
" />
<path d="M21767 35082
L21806 34768
L21785 34711
L21731 34682
L21617 34682
L21556 34711
" />
<path d="M21770 35054
L21710 35082
L21567 35082
L21513 35054
L21492 34997
L21499 34940
L21535 34882
L21595 34854
L21738 34854
L21799 34825
" />
<path d="M22017 34682
L22245 34682
" />
<path d="M22127 34482
L22063 34997
L22085 35054
L22138 35082
L22195 35082
" />
<path d="M22627 35054
L22567 35082
L22452 35082
L22399 35054
L22377 34997
L22406 34768
L22442 34711
L22502 34682
L22617 34682
L22670 34711
L22692 34768
L22685 34825
L22392 34882
" />
<path d="M22917 35025
L22942 35054
L22910 35082
L22885 35054
L22917 35025
L22910 35082
" />
<path d="M22956 34711
L22981 34740
L22949 34768
L22924 34740
L22956 34711
L22949 34768
" />
<path d="M23670 34482
L24042 34482
L23813 34711
L23899 34711
L23952 34740
L23977 34768
L23999 34825
L23981 34968
L23945 35025
L23913 35054
L23852 35082
L23681 35082
L23627 35054
L23602 35025
" />
<path d="M24938 35082
L25013 34482
" />
<path d="M24942 35054
L24881 35082
L24767 35082
L24713 35054
L24688 35025
L24667 34968
L24688 34797
L24724 34740
L24756 34711
L24817 34682
L24931 34682
L24985 34711
" />
<path d="M25456 35054
L25395 35082
L25281 35082
L25227 35054
L25206 34997
L25235 34768
L25270 34711
L25331 34682
L25445 34682
L25499 34711
L25520 34768
L25513 34825
L25220 34882
" />
<path d="M25999 35054
L25938 35082
L25824 35082
L25770 35054
L25745 35025
L25724 34968
L25745 34797
L25781 34740
L25813 34711
L25874 34682
L25988 34682
L26042 34711
" />
<path d="M26749 34540
L26781 34511
L26842 34482
L26985 34482
L27038 34511
L27063 34540
L27085 34597
L27077 34654
L27038 34740
L26652 35082
L27024 35082
" />
<path d="M27470 34482
L27527 34482
L27581 34511
L27606 34540
L27627 34597
L27642 34711
L27624 34854
L27581 34968
L27545 35025
L27513 35054
L27452 35082
L27395 35082
L27342 35054
L27317 35025
L27295 34968
L27281 34854
L27299 34711
L27342 34597
L27377 34540
L27410 34511
L27470 34482
" />
<path d="M28167 35082
L27824 35082
" />
<path d="M27995 35082
L28070 34482
L28002 34568
L27938 34625
L27877 34654
" />
<path d="M28442 34482
L28813 34482
L28585 34711
L28670 34711
L28724 34740
L28749 34768
L28770 34825
L28752 34968
L28717 35025
L28685 35054
L28624 35082
L28452 35082
L28399 35054
L28374 35025
" />
<path d="M12502 36282
L12502 35682
" />
<path d="M12845 36282
L12588 35940
" />
<path d="M12845 35682
L12502 36025
" />
<path d="M13102 36282
L13102 35882
" />
<path d="M13102 35682
L13074 35711
L13102 35740
L13131 35711
L13102 35682
L13102 35740
" />
<path d="M13731 36225
L13702 36254
L13617 36282
L13560 36282
L13474 36254
L13417 36197
L13388 36140
L13360 36025
L13360 35940
L13388 35825
L13417 35768
L13474 35711
L13560 35682
L13617 35682
L13702 35711
L13731 35740
" />
<path d="M14245 36282
L14245 35968
L14217 35911
L14160 35882
L14045 35882
L13988 35911
" />
<path d="M14245 36254
L14188 36282
L14045 36282
L13988 36254
L13960 36197
L13960 36140
L13988 36082
L14045 36054
L14188 36054
L14245 36025
" />
<path d="M14788 36282
L14788 35682
" />
<path d="M14788 36254
L14731 36282
L14617 36282
L14560 36254
L14531 36225
L14502 36168
L14502 35997
L14531 35940
L14560 35911
L14617 35882
L14731 35882
L14788 35911
" />
<path d="M15531 35968
L15731 35968
" />
<path d="M15817 36282
L15531 36282
L15531 35682
L15817 35682
" />
<path d="M16074 36225
L16102 36254
L16074 36282
L16045 36254
L16074 36225
L16074 36282
" />
<path d="M16359 36282
L16359 35682
L16502 35682
L16588 35711
L16645 35768
L16674 35825
L16702 35940
L16702 36025
L16674 36140
L16645 36197
L16588 36254
L16502 36282
L16359 36282
" />
<path d="M16959 36225
L16988 36254
L16959 36282
L16931 36254
L16959 36225
L16959 36282
" />
<path d="M17217 36111
L17502 36111
" />
<path d="M17159 36282
L17359 35682
L17559 36282
" />
<path d="M17759 36225
L17788 36254
L17759 36282
L17731 36254
L17759 36225
L17759 36282
" />
<path d="M46052 35082
L45888 34797
" />
<path d="M45710 35082
L45785 34482
L46013 34482
L46067 34511
L46092 34540
L46113 34597
L46102 34682
L46067 34740
L46035 34768
L45974 34797
L45745 34797
" />
<path d="M46542 35054
L46481 35082
L46367 35082
L46313 35054
L46292 34997
L46320 34768
L46356 34711
L46417 34682
L46531 34682
L46585 34711
L46606 34768
L46599 34825
L46306 34882
" />
<path d="M46817 34682
L46910 35082
L47102 34682
" />
<path d="M47288 35025
L47313 35054
L47281 35082
L47256 35054
L47288 35025
L47281 35082
" />
<path d="M47327 34711
L47352 34740
L47320 34768
L47295 34740
L47327 34711
L47320 34768
" />
<path d="M48338 35082
L47995 35082
" />
<path d="M48167 35082
L48242 34482
L48174 34568
L48110 34625
L48049 34654
" />
<path d="M48602 35025
L48627 35054
L48595 35082
L48570 35054
L48602 35025
L48595 35082
" />
<path d="M49188 34682
L49138 35082
" />
<path d="M49074 34454
L48877 34882
L49249 34882
" />
<path d="M12474 35054
L12560 35082
L12702 35082
L12760 35054
L12788 35025
L12817 34968
L12817 34911
L12788 34854
L12760 34825
L12702 34797
L12588 34768
L12531 34740
L12502 34711
L12474 34654
L12474 34597
L12502 34540
L12531 34511
L12588 34482
L12731 34482
L12817 34511
" />
<path d="M13074 35082
L13074 34682
" />
<path d="M13074 34482
L13045 34511
L13074 34540
L13102 34511
L13074 34482
L13074 34540
" />
<path d="M13302 34682
L13617 34682
L13302 35082
L13617 35082
" />
<path d="M14074 35054
L14017 35082
L13902 35082
L13845 35054
L13817 34997
L13817 34768
L13845 34711
L13902 34682
L14017 34682
L14074 34711
L14102 34768
L14102 34825
L13817 34882
" />
<path d="M14360 35025
L14388 35054
L14360 35082
L14331 35054
L14360 35025
L14360 35082
" />
<path d="M14360 34711
L14388 34740
L14360 34768
L14331 34740
L14360 34711
L14360 34768
" />
<path d="M15102 34482
L15102 34968
L15131 35025
L15160 35054
L15217 35082
L15331 35082
L15388 35054
L15417 35025
L15445 34968
L15445 34482
" />
<path d="M15702 35054
L15760 35082
L15874 35082
L15931 35054
L15960 34997
L15960 34968
L15931 34911
L15874 34882
L15788 34882
L15731 34854
L15702 34797
L15702 34768
L15731 34711
L15788 34682
L15874 34682
L15931 34711
" />
<path d="M16445 35054
L16388 35082
L16274 35082
L16217 35054
L16188 34997
L16188 34768
L16217 34711
L16274 34682
L16388 34682
L16445 34711
L16474 34768
L16474 34825
L16188 34882
" />
<path d="M16731 35082
L16731 34682
" />
<path d="M16731 34797
L16760 34740
L16788 34711
L16845 34682
L16902 34682
" />
<path d="M45702 36282
L45702 35682
" />
<path d="M46245 36282
L46245 35682
" />
<path d="M46245 36254
L46188 36282
L46074 36282
L46017 36254
L45988 36225
L45960 36168
L45960 35997
L45988 35940
L46017 35911
L46074 35882
L46188 35882
L46245 35911
" />
<path d="M46531 36225
L46560 36254
L46531 36282
L46502 36254
L46531 36225
L46531 36282
" />
<path d="M46531 35911
L46560 35940
L46531 35968
L46502 35940
L46531 35911
L46531 35968
" />
<path d="M47588 36282
L47245 36282
" />
<path d="M47417 36282
L47417 35682
L47359 35768
L47302 35825
L47245 35854
" />
<path d="M48274 35654
L47760 36425
" />
<path d="M48788 36282
L48445 36282
" />
<path d="M48617 36282
L48617 35682
L48559 35768
L48502 35825
L48445 35854
" />
<path d="M12499 33282
L12842 33282
" />
<path d="M12595 33882
L12670 33282
" />
<path d="M12967 33882
L13017 33482
" />
<path d="M13042 33282
L13010 33311
L13035 33340
L13067 33311
L13042 33282
L13035 33340
" />
<path d="M13217 33482
L13445 33482
" />
<path d="M13327 33282
L13263 33797
L13285 33854
L13338 33882
L13395 33882
" />
<path d="M13681 33882
L13627 33854
L13606 33797
L13670 33282
" />
<path d="M14142 33854
L14081 33882
L13967 33882
L13913 33854
L13892 33797
L13920 33568
L13956 33511
L14017 33482
L14131 33482
L14185 33511
L14206 33568
L14199 33625
L13906 33682
" />
<path d="M14431 33825
L14456 33854
L14424 33882
L14399 33854
L14431 33825
L14424 33882
" />
<path d="M14470 33511
L14495 33540
L14463 33568
L14438 33540
L14470 33511
L14463 33568
" />
<path d="M15167 33882
L15242 33282
L15470 33282
L15524 33311
L15549 33340
L15570 33397
L15560 33482
L15524 33540
L15492 33568
L15431 33597
L15202 33597
" />
<path d="M15767 33882
L15817 33482
" />
<path d="M15802 33597
L15838 33540
L15870 33511
L15931 33482
L15988 33482
" />
<path d="M16224 33882
L16170 33854
L16145 33825
L16124 33768
L16145 33597
L16181 33540
L16213 33511
L16274 33482
L16360 33482
L16413 33511
L16438 33540
L16460 33597
L16438 33768
L16402 33825
L16370 33854
L16310 33882
L16224 33882
" />
<path d="M16645 33482
L16874 33482
" />
<path d="M16756 33282
L16692 33797
L16713 33854
L16767 33882
L16824 33882
" />
<path d="M17110 33882
L17056 33854
L17031 33825
L17010 33768
L17031 33597
L17067 33540
L17099 33511
L17160 33482
L17245 33482
L17299 33511
L17324 33540
L17345 33597
L17324 33768
L17288 33825
L17256 33854
L17195 33882
L17110 33882
" />
<path d="M18263 33568
L18345 33597
L18370 33625
L18392 33682
L18381 33768
L18345 33825
L18313 33854
L18252 33882
L18024 33882
L18099 33282
L18299 33282
L18352 33311
L18377 33340
L18399 33397
L18392 33454
L18356 33511
L18324 33540
L18263 33568
L18063 33568
" />
<path d="M18931 33482
L18881 33882
" />
<path d="M18674 33482
L18635 33797
L18656 33854
L18710 33882
L18795 33882
L18856 33854
L18888 33825
" />
<path d="M19424 33882
L19499 33282
" />
<path d="M19427 33854
L19367 33882
L19252 33882
L19199 33854
L19174 33825
L19152 33768
L19174 33597
L19210 33540
L19242 33511
L19302 33482
L19417 33482
L19470 33511
" />
<path d="M19967 33882
L20042 33282
" />
<path d="M19970 33854
L19910 33882
L19795 33882
L19742 33854
L19717 33825
L19695 33768
L19717 33597
L19752 33540
L19785 33511
L19845 33482
L19960 33482
L20013 33511
" />
<path d="M20252 33882
L20302 33482
" />
<path d="M20327 33282
L20295 33311
L20320 33340
L20352 33311
L20327 33282
L20320 33340
" />
<path d="M20770 33854
L20710 33882
L20595 33882
L20542 33854
L20520 33797
L20549 33568
L20584 33511
L20645 33482
L20760 33482
L20813 33511
L20835 33568
L20827 33625
L20535 33682
" />
<path d="M21027 33854
L21081 33882
L21195 33882
L21256 33854
L21292 33797
L21295 33768
L21274 33711
L21220 33682
L21135 33682
L21081 33654
L21060 33597
L21063 33568
L21099 33511
L21160 33482
L21245 33482
L21299 33511
" />
<path d="M21785 33282
L21731 33711
L21692 33797
L21627 33854
L21538 33882
L21481 33882
" />
<path d="M22227 33854
L22167 33882
L22052 33882
L21999 33854
L21977 33797
L22006 33568
L22042 33511
L22102 33482
L22217 33482
L22270 33511
L22292 33568
L22285 33625
L21992 33682
" />
<path d="M22502 33482
L22567 33882
L22717 33597
L22795 33882
L22960 33482
" />
<path d="M23370 33854
L23310 33882
L23195 33882
L23142 33854
L23120 33797
L23149 33568
L23184 33511
L23245 33482
L23360 33482
L23413 33511
L23435 33568
L23427 33625
L23135 33682
" />
<path d="M23738 33882
L23685 33854
L23663 33797
L23727 33282
" />
<path d="M12702 31168
L12502 31168
" />
<path d="M12502 31482
L12502 30882
L12788 30882
" />
<path d="M13017 31482
L13017 31082
" />
<path d="M13017 30882
L12988 30911
L13017 30940
L13045 30911
L13017 30882
L13017 30940
" />
<path d="M13388 31482
L13331 31454
L13302 31397
L13302 30882
" />
<path d="M13845 31454
L13788 31482
L13674 31482
L13617 31454
L13588 31397
L13588 31168
L13617 31111
L13674 31082
L13788 31082
L13845 31111
L13874 31168
L13874 31225
L13588 31282
" />
<path d="M14131 31425
L14160 31454
L14131 31482
L14102 31454
L14131 31425
L14131 31482
" />
<path d="M14131 31111
L14160 31140
L14131 31168
L14102 31140
L14131 31111
L14131 31168
" />
<path d="M15074 31168
L15160 31197
L15188 31225
L15217 31282
L15217 31368
L15188 31425
L15160 31454
L15102 31482
L14874 31482
L14874 30882
L15074 30882
L15131 30911
L15160 30940
L15188 30997
L15188 31054
L15160 31111
L15131 31140
L15074 31168
L14874 31168
" />
<path d="M15731 31082
L15731 31482
" />
<path d="M15474 31082
L15474 31397
L15502 31454
L15560 31482
L15645 31482
L15702 31454
L15731 31425
" />
<path d="M16274 31482
L16274 30882
" />
<path d="M16274 31454
L16217 31482
L16102 31482
L16045 31454
L16017 31425
L15988 31368
L15988 31197
L16017 31140
L16045 31111
L16102 31082
L16217 31082
L16274 31111
" />
<path d="M16817 31482
L16817 30882
" />
<path d="M16817 31454
L16760 31482
L16645 31482
L16588 31454
L16560 31425
L16531 31368
L16531 31197
L16560 31140
L16588 31111
L16645 31082
L16760 31082
L16817 31111
" />
<path d="M17102 31482
L17102 31082
" />
<path d="M17102 30882
L17074 30911
L17102 30940
L17131 30911
L17102 30882
L17102 30940
" />
<path d="M17617 31454
L17560 31482
L17445 31482
L17388 31454
L17360 31397
L17360 31168
L17388 31111
L17445 31082
L17560 31082
L17617 31111
L17645 31168
L17645 31225
L17360 31282
" />
<path d="M17874 31454
L17931 31482
L18045 31482
L18102 31454
L18131 31397
L18131 31368
L18102 31311
L18045 31282
L17960 31282
L17902 31254
L17874 31197
L17874 31168
L17902 31111
L17960 31082
L18045 31082
L18102 31111
" />
<path d="M18560 30882
L18560 31311
L18531 31397
L18474 31454
L18388 31482
L18331 31482
" />
<path d="M19074 31454
L19017 31482
L18902 31482
L18845 31454
L18817 31397
L18817 31168
L18845 31111
L18902 31082
L19017 31082
L19074 31111
L19102 31168
L19102 31225
L18817 31282
" />
<path d="M19302 31082
L19417 31482
L19531 31197
L19645 31482
L19760 31082
" />
<path d="M20217 31454
L20160 31482
L20045 31482
L19988 31454
L19960 31397
L19960 31168
L19988 31111
L20045 31082
L20160 31082
L20217 31111
L20245 31168
L20245 31225
L19960 31282
" />
<path d="M20588 31482
L20531 31454
L20502 31397
L20502 30882
" />
<path d="M20817 31425
L20845 31454
L20817 31482
L20788 31454
L20817 31425
L20817 31482
" />
<path d="M21102 31482
L21102 30882
" />
<path d="M21160 31254
L21331 31482
" />
<path d="M21331 31082
L21102 31311
" />
<path d="M21588 31482
L21588 31082
" />
<path d="M21588 30882
L21560 30911
L21588 30940
L21617 30911
L21588 30882
L21588 30940
" />
<path d="M22131 31454
L22074 31482
L21959 31482
L21902 31454
L21874 31425
L21845 31368
L21845 31197
L21874 31140
L21902 31111
L21959 31082
L22074 31082
L22131 31111
" />
<path d="M22645 31482
L22645 31168
L22617 31111
L22560 31082
L22445 31082
L22388 31111
" />
<path d="M22645 31454
L22588 31482
L22445 31482
L22388 31454
L22360 31397
L22360 31340
L22388 31282
L22445 31254
L22588 31254
L22645 31225
" />
<path d="M23188 31482
L23188 30882
" />
<path d="M23188 31454
L23131 31482
L23017 31482
L22960 31454
L22931 31425
L22902 31368
L22902 31197
L22931 31140
L22960 31111
L23017 31082
L23131 31082
L23188 31111
" />
<path d="M23331 31540
L23788 31540
" />
<path d="M23931 31082
L23931 31682
" />
<path d="M23931 31111
L23988 31082
L24102 31082
L24160 31111
L24188 31140
L24217 31197
L24217 31368
L24188 31425
L24160 31454
L24102 31482
L23988 31482
L23931 31454
" />
<path d="M24731 31454
L24674 31482
L24559 31482
L24502 31454
L24474 31425
L24445 31368
L24445 31197
L24474 31140
L24502 31111
L24559 31082
L24674 31082
L24731 31111
" />
<path d="M24988 31482
L24988 30882
" />
<path d="M24988 31111
L25045 31082
L25160 31082
L25217 31111
L25245 31140
L25274 31197
L25274 31368
L25245 31425
L25217 31454
L25160 31482
L25045 31482
L24988 31454
" />
<path d="M12474 32654
L12560 32682
L12702 32682
L12760 32654
L12788 32625
L12817 32568
L12817 32511
L12788 32454
L12760 32425
L12702 32397
L12588 32368
L12531 32340
L12502 32311
L12474 32254
L12474 32197
L12502 32140
L12531 32111
L12588 32082
L12731 32082
L12817 32111
" />
<path d="M13074 32682
L13074 32082
" />
<path d="M13331 32682
L13331 32368
L13302 32311
L13245 32282
L13160 32282
L13102 32311
L13074 32340
" />
<path d="M13845 32654
L13788 32682
L13674 32682
L13617 32654
L13588 32597
L13588 32368
L13617 32311
L13674 32282
L13788 32282
L13845 32311
L13874 32368
L13874 32425
L13588 32482
" />
<path d="M14360 32654
L14302 32682
L14188 32682
L14131 32654
L14102 32597
L14102 32368
L14131 32311
L14188 32282
L14302 32282
L14360 32311
L14388 32368
L14388 32425
L14102 32482
" />
<path d="M14560 32282
L14788 32282
" />
<path d="M14645 32082
L14645 32597
L14674 32654
L14731 32682
L14788 32682
" />
<path d="M14988 32625
L15017 32654
L14988 32682
L14960 32654
L14988 32625
L14988 32682
" />
<path d="M14988 32311
L15017 32340
L14988 32368
L14960 32340
L14988 32311
L14988 32368
" />
<path d="M12749 29968
L12831 29997
L12856 30025
L12877 30082
L12867 30168
L12831 30225
L12799 30254
L12738 30282
L12510 30282
L12585 29682
L12785 29682
L12838 29711
L12863 29740
L12885 29797
L12877 29854
L12842 29911
L12810 29940
L12749 29968
L12549 29968
" />
<path d="M13417 29882
L13367 30282
" />
<path d="M13160 29882
L13120 30197
L13142 30254
L13195 30282
L13281 30282
L13342 30254
L13374 30225
" />
<path d="M13910 30282
L13985 29682
" />
<path d="M13913 30254
L13852 30282
L13738 30282
L13685 30254
L13660 30225
L13638 30168
L13660 29997
L13695 29940
L13727 29911
L13788 29882
L13902 29882
L13956 29911
" />
<path d="M14452 30282
L14527 29682
" />
<path d="M14456 30254
L14395 30282
L14281 30282
L14227 30254
L14202 30225
L14181 30168
L14202 29997
L14238 29940
L14270 29911
L14331 29882
L14445 29882
L14499 29911
" />
<path d="M14738 30282
L14788 29882
" />
<path d="M14813 29682
L14781 29711
L14806 29740
L14838 29711
L14813 29682
L14806 29740
" />
<path d="M15256 30254
L15195 30282
L15081 30282
L15027 30254
L15006 30197
L15035 29968
L15070 29911
L15131 29882
L15245 29882
L15299 29911
L15320 29968
L15313 30025
L15020 30082
" />
<path d="M15513 30254
L15567 30282
L15681 30282
L15742 30254
L15777 30197
L15781 30168
L15759 30111
L15706 30082
L15620 30082
L15567 30054
L15545 29997
L15549 29968
L15584 29911
L15645 29882
L15731 29882
L15784 29911
" />
<path d="M16024 30282
L16099 29682
L16327 29682
L16381 29711
L16406 29740
L16427 29797
L16417 29882
L16381 29940
L16349 29968
L16288 29997
L16059 29997
" />
<path d="M16624 30282
L16674 29882
" />
<path d="M16659 29997
L16695 29940
L16727 29911
L16788 29882
L16845 29882
" />
<path d="M17081 30282
L17027 30254
L17002 30225
L16981 30168
L17002 29997
L17038 29940
L17070 29911
L17131 29882
L17217 29882
L17270 29911
L17295 29940
L17317 29997
L17295 30168
L17260 30225
L17227 30254
L17167 30282
L17081 30282
" />
<path d="M17588 29882
L17524 30397
L17488 30454
L17427 30482
L17399 30482
" />
<path d="M17613 29682
L17581 29711
L17606 29740
L17638 29711
L17613 29682
L17606 29740
" />
<path d="M18056 30254
L17995 30282
L17881 30282
L17827 30254
L17806 30197
L17835 29968
L17870 29911
L17931 29882
L18045 29882
L18099 29911
L18120 29968
L18113 30025
L17820 30082
" />
<path d="M18599 30254
L18538 30282
L18424 30282
L18370 30254
L18345 30225
L18324 30168
L18345 29997
L18381 29940
L18413 29911
L18474 29882
L18588 29882
L18642 29911
" />
<path d="M18817 29882
L19045 29882
" />
<path d="M18927 29682
L18863 30197
L18885 30254
L18938 30282
L18995 30282
" />
<path d="M19170 30254
L19224 30282
L19338 30282
L19399 30254
L19435 30197
L19438 30168
L19417 30111
L19363 30082
L19277 30082
L19224 30054
L19202 29997
L19206 29968
L19242 29911
L19302 29882
L19388 29882
L19442 29911
" />
<path d="M11760 29440
L11760 36640
" />
<path d="M11760 30640
L53760 30640
" />
<path d="M11760 29440
L53760 29440
" />
<path d="M11760 33040
L53760 33040
" />
<path d="M44960 34240
L44960 36640
" />
<path d="M11760 35440
L53760 35440
" />
<path d="M11760 34240
L53760 34240
" />
<path d="M18360 34240
L18360 35440
" />
</g>
<g style="fill:#000000; fill-opacity:0.0; 
stroke:#000000; stroke-width:39.3701; stroke-opacity:1; 
stroke-linecap:round; stroke-linejoin:round;">
<path d="M33858 25885
L33858 9547
" />
<path d="M33858 9547
L17519 9547
" />
<path d="M17519 25885
L33858 25885
" />
<path d="M17519 9547
L17519 25885
" />
</g>
<g style="fill:#000000; fill-opacity:0.0; 
stroke:#000000; stroke-width:118.11; stroke-opacity:1; 
stroke-linecap:round; stroke-linejoin:round;">
<path d="M19829 22213
L19857 22129
L19885 22101
L19942 22073
L20026 22073
L20082 22101
L20110 22129
L20139 22185
L20139 22410
L19548 22410
L19548 22213
L19576 22157
L19604 22129
L19660 22101
L19717 22101
L19773 22129
L19801 22157
L19829 22213
L19829 22410
" />
<path d="M19548 21707
L19548 21595
L19576 21538
L19632 21482
L19745 21454
L19942 21454
L20054 21482
L20110 21538
L20139 21595
L20139 21707
L20110 21763
L20054 21820
L19942 21848
L19745 21848
L19632 21820
L19576 21763
L19548 21707
" />
<path d="M19548 21285
L19548 20948
" />
<path d="M20139 21117
L19548 21117
" />
<path d="M19548 20835
L19548 20498
" />
<path d="M20139 20667
L19548 20667
" />
<path d="M19548 20189
L19548 20076
L19576 20020
L19632 19964
L19745 19936
L19942 19936
L20054 19964
L20110 20020
L20139 20076
L20139 20189
L20110 20245
L20054 20301
L19942 20329
L19745 20329
L19632 20301
L19576 20245
L19548 20189
" />
<path d="M20139 19682
L19548 19682
L19970 19486
L19548 19289
L20139 19289
" />
</g>
<g style="fill:#000000; fill-opacity:0.0; 
stroke:#000000; stroke-width:39.3701; stroke-opacity:1; 
stroke-linecap:round; stroke-linejoin:round;">
<circle cx="19881.9" cy="23523.6" r="131.233" /> 
<path d="M19685 23523
L20078 23523
" />
<path d="M19881 23326
L19881 23720
" />
<circle cx="31889.8" cy="23523.6" r="131.233" /> 
<path d="M31692 23523
L32086 23523
" />
<path d="M31889 23326
L31889 23720
" />
<circle cx="31889.8" cy="12303.1" r="131.233" /> 
<path d="M31692 12303
L32086 12303
" />
<path d="M31889 12106
L31889 12500
" />
<circle cx="19881.9" cy="12303.1" r="131.233" /> 
<path d="M19685 12303
L20078 12303
" />
<path d="M19881 12106
L19881 12500
" />
</g>
<g style="fill:#000000; fill-opacity:0.0; 
stroke:#000000; stroke-width:196.85; stroke-opacity:1; 
stroke-linecap:round; stroke-linejoin:round;">
</g>
<g style="fill:#000000; fill-opacity:1.0; 
stroke:#000000; stroke-width:196.85; stroke-opacity:1; 
stroke-linecap:round; stroke-linejoin:round;">
<polyline style="fill-rule:evenodd;"
points="29445,20395
30154,20395
30154,21104
29445,21104
29445,20395
" /> 
<circle cx="29800" cy="21750" r="354.331" /> 
<circle cx="29800" cy="22750" r="354.331" /> 
<circle cx="22300" cy="15573.2" r="354.331" /> 
<circle cx="22300" cy="16573.2" r="354.331" /> 
<circle cx="21300" cy="15573.2" r="354.331" /> 
<circle cx="21300" cy="16573.2" r="354.331" /> 
<polyline style="fill-rule:evenodd;"
points="21145,20295
21854,20295
21854,21004
21145,21004
21145,20295
" /> 
<circle cx="22500" cy="20650" r="354.331" /> 
<circle cx="21500" cy="21650" r="354.331" /> 
<circle cx="22500" cy="21650" r="354.331" /> 
<circle cx="21500" cy="22650" r="354.331" /> 
<circle cx="22500" cy="22650" r="354.331" /> 
<polyline style="fill-rule:evenodd;"
points="29445,17618
30154,17618
30154,18327
29445,18327
29445,17618
" /> 
<circle cx="21729.1" cy="17973.2" r="354.331" /> 
<polyline style="fill-rule:evenodd;"
points="23788,15924
23788,15221
24211,15221
24211,15924
23788,15924
" /> 
</g>
<g style="fill:#000000; fill-opacity:1.0; 
stroke:#000000; stroke-width:620; stroke-opacity:1; 
stroke-linecap:round; stroke-linejoin:round;">
<path d="M25000 15433
L25000 15713
" />
<path d="M26000 15433
L26000 15713
" />
<path d="M27000 15433
L27000 15713
" />
<path d="M28000 15433
L28000 15713
" />
<path d="M29000 15433
L29000 15713
" />
<path d="M30000 15433
L30000 15713
" />
<path d="M30000 12433
L30000 12713
" />
<path d="M29000 12433
L29000 12713
" />
<path d="M28000 12433
L28000 12713
" />
<path d="M27000 12433
L27000 12713
" />
<path d="M26000 12433
L26000 12713
" />
<path d="M25000 12433
L25000 12713
" />
<path d="M24000 12433
L24000 12713
" />
</g>
<g style="fill:#000000; fill-opacity:1.0; 
stroke:#000000; stroke-width:196.85; stroke-opacity:1; 
stroke-linecap:round; stroke-linejoin:round;">
<polyline style="fill-rule:evenodd;"
points="24488,23124
24488,22421
24911,22421
24911,23124
24488,23124
" /> 
</g>
<g style="fill:#000000; fill-opacity:1.0; 
stroke:#000000; stroke-width:620; stroke-opacity:1; 
stroke-linecap:round; stroke-linejoin:round;">
<path d="M25700 22633
L25700 22913
" />
<path d="M26700 22633
L26700 22913
" />
<path d="M27700 22633
L27700 22913
" />
<path d="M27700 19633
L27700 19913
" />
<path d="M26700 19633
L26700 19913
" />
<path d="M25700 19633
L25700 19913
" />
<path d="M24700 19633
L24700 19913
" />
</g>
<g style="fill:#000000; fill-opacity:1.0; 
stroke:#000000; stroke-width:196.85; stroke-opacity:1; 
stroke-linecap:round; stroke-linejoin:round;">
<polyline style="fill-rule:evenodd;"
points="22412,13551
22665,13551
22665,13604
22412,13604
22412,13551
" /> 
<polyline style="fill-rule:evenodd;"
points="22412,14151
22665,14151
22665,14204
22412,14204
22412,14151
" /> 
<polyline style="fill-rule:evenodd;"
points="23889,13551
24142,13551
24142,13604
23889,13604
23889,13551
" /> 
<polyline style="fill-rule:evenodd;"
points="23889,14151
24142,14151
24142,14204
23889,14204
23889,14151
" /> 
<polyline style="fill-rule:evenodd;"
points="25421,14204
25168,14204
25168,14151
25421,14151
25421,14204
" /> 
<polyline style="fill-rule:evenodd;"
points="25421,13604
25168,13604
25168,13551
25421,13551
25421,13604
" /> 
<polyline style="fill-rule:evenodd;"
points="24873,16700
25126,16700
25126,16754
24873,16754
24873,16700
" /> 
<polyline style="fill-rule:evenodd;"
points="24873,17300
25126,17300
25126,17354
24873,17354
24873,17300
" /> 
<polyline style="fill-rule:evenodd;"
points="24873,20999
24873,20746
24926,20746
24926,20999
24873,20999
" /> 
<polyline style="fill-rule:evenodd;"
points="25473,20999
25473,20746
25526,20746
25526,20999
25473,20999
" /> 
<polyline style="fill-rule:evenodd;"
points="28177,14795
27924,14795
27924,14741
28177,14741
28177,14795
" /> 
<polyline style="fill-rule:evenodd;"
points="28177,14195
27924,14195
27924,14141
28177,14141
28177,14195
" /> 
<polyline style="fill-rule:evenodd;"
points="29162,14795
28908,14795
28908,14741
29162,14741
29162,14795
" /> 
<polyline style="fill-rule:evenodd;"
points="29162,14195
28908,14195
28908,14141
29162,14141
29162,14195
" /> 
<polyline style="fill-rule:evenodd;"
points="30146,14795
29893,14795
29893,14741
30146,14741
30146,14795
" /> 
<polyline style="fill-rule:evenodd;"
points="30146,14195
29893,14195
29893,14141
30146,14141
30146,14195
" /> 
<polyline style="fill-rule:evenodd;"
points="23889,16700
24142,16700
24142,16754
23889,16754
23889,16700
" /> 
<polyline style="fill-rule:evenodd;"
points="23889,17300
24142,17300
24142,17354
23889,17354
23889,17300
" /> 
<polyline style="fill-rule:evenodd;"
points="28776,19926
28523,19926
28523,19873
28776,19873
28776,19926
" /> 
<polyline style="fill-rule:evenodd;"
points="28776,19326
28523,19326
28523,19273
28776,19273
28776,19326
" /> 
<circle cx="20150" cy="18110.2" r="354.331" /> 
<circle cx="28444.9" cy="18011.8" r="354.331" /> 
<circle cx="17913.4" cy="16141.7" r="251.575" /> 
<circle cx="18897.6" cy="16535.4" r="251.575" /> 
</g>
<g style="fill:#000000; fill-opacity:1.0; 
stroke:#000000; stroke-width:314.961; stroke-opacity:1; 
stroke-linecap:round; stroke-linejoin:round;">
<path d="M24000 15573
L24000 14193
" />
<path d="M23984 14177
L22539 14177
" />
<path d="M24000 14193
L23984 14177
" />
<path d="M29822 20751
L29822 17996
" />
<path d="M29822 17996
L29800 17973
" />
<path d="M24900 20873
L24900 19973
" />
<path d="M24900 19973
L24700 19773
" />
<path d="M24015 16727
L23814 16727
" />
<path d="M22659 15573
L22300 15573
" />
<path d="M23814 16727
L22659 15573
" />
<path d="M25000 15573
L25000 16727
" />
<path d="M24015 16727
L25000 16727
" />
<path d="M24015 17327
L23036 17327
" />
<path d="M22300 16591
L22300 16573
" />
<path d="M23036 17327
L22300 16591
" />
<path d="M26000 15573
L26000 16913
" />
<path d="M25585 17327
L25000 17327
" />
<path d="M26000 16913
L25585 17327
" />
<path d="M25000 17327
L24015 17327
" />
<path d="M26700 19773
L26700 19514
" />
<path d="M21500 19543
L21970 19073
" />
<path d="M21500 20673
L21500 19783
" />
<path d="M21970 19073
L26258 19073
" />
<path d="M21500 19783
L21500 19543
" />
<path d="M26700 19514
L26258 19073
" />
<path d="M26700 19773
L26700 18181
" />
<path d="M26700 18181
L28051 16830
" />
<path d="M28051 16830
L30807 16830
" />
<path d="M30807 16830
L31692 15944
" />
<path d="M31692 15944
L31692 13484
" />
<path d="M31692 13484
L30781 12573
" />
<path d="M30781 12573
L30000 12573
" />
<path d="M28650 19900
L28650 20365
" />
<path d="M28650 20365
L28582 20432
" />
<path d="M28582 20432
L26700 22315
" />
<path d="M26700 22773
L26700 22315
" />
<path d="M27263 21751
L29822 21751
" />
<path d="M26700 22315
L27263 21751
" />
<path d="M27000 12573
L27000 11940
" />
<path d="M20150 18110
L20150 14000
" />
<path d="M22539 11712
L20150 14000
" />
<path d="M26771 11712
L22539 11712
" />
<path d="M27000 11940
L26771 11712
" />
<path d="M25500 20873
L25500 19973
" />
<path d="M25500 19973
L25700 19773
" />
<path d="M22500 21673
L25800 21673
" />
<path d="M25800 21673
L27700 19773
" />
<path d="M22500 22673
L22500 23523
" />
<path d="M25295 14177
L25004 14177
" />
<path d="M24404 13577
L24015 13577
" />
<path d="M25004 14177
L24404 13577
" />
<path d="M28051 14168
L25304 14168
" />
<path d="M25304 14168
L25295 14177
" />
<path d="M22539 13577
L24015 13577
" />
<path d="M24000 13562
L24000 12573
" />
<path d="M27700 22773
L27700 23087
" />
<path d="M27700 23087
L27263 23523
" />
<path d="M27700 22773
L29801 22773
" />
<path d="M29801 22773
L29822 22751
" />
<path d="M29035 14168
L28051 14168
" />
<path d="M29035 14168
L30216 14173
" />
<path d="M29000 12573
L29000 14133
" />
<path d="M29000 14133
L29035 14168
" />
<path d="M20669 19033
L21729 17973
" />
<path d="M22500 23523
L20964 23523
" />
<path d="M20964 23523
L20669 23228
" />
<path d="M20669 23228
L20669 19033
" />
<path d="M27263 23523
L22500 23523
" />
<path d="M28650 18216
L28650 19300
" />
<path d="M28444 18011
L28650 18216
" />
<path d="M25300 13573
L25300 12873
" />
<path d="M25300 12873
L25000 12573
" />
</g>
<g style="fill:#000000; fill-opacity:1.0; 
stroke:#000000; stroke-width:196.85; stroke-opacity:1; 
stroke-linecap:round; stroke-linejoin:round;">
<path d="M18405 10433
L18799 10433
" />
<path d="M17913 9940
L33464 9940
" />
<path d="M33464 25492
L18405 25492
" />
<path d="M32972 10433
L32972 25000
" />
<path d="M18897 16535
L18897 25000
" />
<path d="M32972 25000
L18897 25000
" />
<path d="M18799 10433
L32972 10433
" />
<path d="M18405 25492
L18405 10433
" />
<path d="M33464 9940
L33464 25492
" />
<path d="M17913 9940
L17913 16141
" />
</g>
<g style="fill:#000000; fill-opacity:1.0; 
stroke:#000000; stroke-width:314.961; stroke-opacity:1; 
stroke-linecap:round; stroke-linejoin:round;">
<path d="M29000 15573
L29000 14902
" />
<path d="M29000 14902
L29035 14866
" />
<path d="M30000 15573
L30000 14886
" />
<path d="M30000 14886
L30019 14866
" />
<path d="M28000 15573
L28000 14918
" />
<path d="M28000 14918
L28051 14866
" />
</g>
<g style="fill:#FFFFFF; fill-opacity:1.0; 
stroke:#FFFFFF; stroke-width:196.85; stroke-opacity:1; 
stroke-linecap:round; stroke-linejoin:round;">
<circle cx="20150" cy="18110.2" r="59.0551" /> 
<circle cx="28444.9" cy="18011.8" r="59.0551" /> 
<circle cx="17913.4" cy="16141.7" r="59.0551" /> 
<circle cx="18897.6" cy="16535.4" r="59.0551" /> 
<circle cx="29800" cy="20750" r="101.575" /> 
<circle cx="29800" cy="21750" r="101.575" /> 
<circle cx="29800" cy="22750" r="101.575" /> 
<circle cx="22300" cy="15573.2" r="98.4252" /> 
<circle cx="22300" cy="16573.2" r="98.4252" /> 
<circle cx="21300" cy="15573.2" r="98.4252" /> 
<circle cx="21300" cy="16573.2" r="98.4252" /> 
<circle cx="21500" cy="20650" r="98.4252" /> 
<circle cx="22500" cy="20650" r="98.4252" /> 
<circle cx="21500" cy="21650" r="98.4252" /> 
<circle cx="22500" cy="21650" r="98.4252" /> 
<circle cx="21500" cy="22650" r="98.4252" /> 
<circle cx="22500" cy="22650" r="98.4252" /> 
<circle cx="29800" cy="17973.2" r="102.362" /> 
<circle cx="21729.1" cy="17973.2" r="102.362" /> 
<circle cx="24000" cy="15573.2" r="61.5748" /> 
<circle cx="25000" cy="15573.2" r="61.5748" /> 
<circle cx="26000" cy="15573.2" r="61.5748" /> 
<circle cx="27000" cy="15573.2" r="61.5748" /> 
<circle cx="28000" cy="15573.2" r="61.5748" /> 
<circle cx="29000" cy="15573.2" r="61.5748" /> 
<circle cx="30000" cy="15573.2" r="61.5748" /> 
<circle cx="30000" cy="12573.2" r="61.5748" /> 
<circle cx="29000" cy="12573.2" r="61.5748" /> 
<circle cx="28000" cy="12573.2" r="61.5748" /> 
<circle cx="27000" cy="12573.2" r="61.5748" /> 
<circle cx="26000" cy="12573.2" r="61.5748" /> 
<circle cx="25000" cy="12573.2" r="61.5748" /> 
<circle cx="24000" cy="12573.2" r="61.5748" /> 
<circle cx="24700" cy="22773.2" r="61.5748" /> 
<circle cx="25700" cy="22773.2" r="61.5748" /> 
<circle cx="26700" cy="22773.2" r="61.5748" /> 
<circle cx="27700" cy="22773.2" r="61.5748" /> 
<circle cx="27700" cy="19773.2" r="61.5748" /> 
<circle cx="26700" cy="19773.2" r="61.5748" /> 
<circle cx="25700" cy="19773.2" r="61.5748" /> 
<circle cx="24700" cy="19773.2" r="61.5748" /> 
</g> 
</svg>
